<?xml version="1.0" encoding="UTF-8"?>
<svg width="467px" height="589px" viewBox="0 0 467 589" version="1.1" xmlns="http://www.w3.org/2000/svg" xmlns:xlink="http://www.w3.org/1999/xlink">
    <!-- Generator: sketchtool 55.2 (78181) - https://sketchapp.com -->
    <title>F0DDA991-071A-4723-A293-DB7D48226B9C</title>
    <desc>Created with sketchtool.</desc>
    <g id="Page-1" stroke="none" stroke-width="1" fill="none" fill-rule="evenodd">
        <g id="Insights-Inner" transform="translate(-80.000000, -6352.000000)">
            <g id="Cubes-1" transform="translate(80.000000, 685.000000)">
                <g id="Cubes-2" transform="translate(161.000000, 6113.500000) scale(1, -1) translate(-161.000000, -6113.500000) translate(-145.000000, 5667.000000)">
                    <g id="6" transform="translate(33.000000, 677.388579)">
                        <polygon fill="#EDEDED" points="95.8955796 0 95.8955796 136.956592 203.658291 182.383334 203.575362 45.3515892"></polygon>
                        <polygon fill="#E6E7E8" points="0.227695154 173.695294 112.395443 214.807037 203.656673 182.385472 95.9076617 136.862932"></polygon>
                    </g>
                    <g id="15" transform="translate(181.000000, 263.454376)">
                        <polygon fill="#F2F2F2" points="137.705078 0 0 59.5224896 0 252.37216 137.705078 198.957682"></polygon>
                        <polygon fill="#DDDDDD" points="137.705078 0 137.705078 198.792173 295 264.5277 294.88063 65.783414"></polygon>
                        <polygon fill="#D5D6D7" points="0 252.663802 162.30736 311.992188 294.996026 264.531692 137.705078 198.715434"></polygon>
                    </g>
                    <g id="10" transform="translate(181.000000, 490.322160)">
                        <polygon  fill="#F5F5F5" points="137.97456 0 0 59.6291363 0 252.731102 137.97456 199.13982"></polygon>
                        <polygon fill="#ECECEC" points="137.97456 0 137.97456 199.461902 295 265.512905 294.938902 66.0590165"></polygon>
                        <polygon fill="#F0F1F1" points="0 252.766611 162.340971 311.992188 295 265.096179 137.977097 198.834254"></polygon>
                    </g>
                    <g id="14" transform="translate(0.000000, 184.846679)">
                        <polygon fill="#D7D7D7" points="138.551859 0.00107191709 137.961346 198.952723 295 265.018638 294.939126 65.936849"></polygon>
                        <polygon fill="#CACCCC" points="0 252.569724 162.340971 311.991116 295 264.896161 137.995138 198.909223"></polygon>
                    </g>
                    <g id="9" transform="translate(1.000000, 414.699565)">
                        <polygon fill="#ECECEC" points="136.549288 0 136.549288 197.726242 293.657343 263.109314 293.657343 65.4359924"></polygon>
                        <polygon fill="#E5E5E6" points="0.211889621 250.965807 161.741195 309.948554 293.656056 263.109711 136.543259 197.711964"></polygon>
                    </g>
                    <g id="16" transform="translate(206.000000, 0.765363)">
                        <polygon  fill="#F6F6F6" points="190.276353 0 0 81.906411 0 347.243545 190.276353 273.758543"></polygon>
                        <polygon fill="#E7E7E7" points="189.698006 0 189.698006 273.515253 406 364.026984 405.837369 90.5117305"></polygon>
                        <polygon fill="#EAEBEB" points="0 346.688639 223.38098 428.267039 406 363.805512 189.880626 273.164922"></polygon>
                    </g>
                </g>
            </g>
        </g>
    </g>
</svg>