<?xml version="1.0" encoding="UTF-8"?>
<svg width="23.33px" height="18.67px" viewBox="0 0 23.33 18.67" version="1.1" xmlns="http://www.w3.org/2000/svg" xmlns:xlink="http://www.w3.org/1999/xlink">
    <g stroke="none" stroke-width="1" fill="none" fill-rule="evenodd">
        <g id="Main-page_1920-90_Final-(I-hope)" transform="translate(-1800.000000, -979.000000)">
            <g id="Chat" transform="translate(1784.000000, 961.000000)">
                <g id="baseline-mail_outline-24px" transform="translate(14.000000, 14.000000)">
                    <polygon points="0 0 28 0 28 28 0 28"></polygon>
                    <path d="M23.3333333,4.66666667 L4.66666667,4.66666667 C3.38333333,4.66666667 2.345,5.71666667 2.345,7 L2.33333333,21 C2.33333333,22.2833333 3.38333333,23.3333333 4.66666667,23.3333333 L23.3333333,23.3333333 C24.6166667,23.3333333 25.6666667,22.2833333 25.6666667,21 L25.6666667,7 C25.6666667,5.71666667 24.6166667,4.66666667 23.3333333,4.66666667 Z M23.3333333,21 L4.66666667,21 L4.66666667,9.33333333 L14,15.1666667 L23.3333333,9.33333333 L23.3333333,21 Z M14,12.8333333 L4.66666667,7 L23.3333333,7 L14,12.8333333 Z" fill="#F7F7F7" fill-rule="nonzero"></path>
                </g>
            </g>
        </g>
    </g>
</svg>
