<svg width="817px" height="244px" viewBox="0 0 817 244" version="1.1" xmlns="http://www.w3.org/2000/svg">
    <title>pattern</title>
    <desc>Created with Sketch.</desc>
    <defs>
        <rect id="path-1" x="0" y="0" width="906" height="244"></rect>
    </defs>
    <g id="Page-1" stroke="none" stroke-width="1" fill="none" fill-rule="evenodd">
        <g id="pattern">
            <g id="Rectangle-Copy-2"></g>
            <path d="M242,291.1 L570.2,-37.1 L242,291.1 Z" id="Path" stroke="#CFCFCF" stroke-linecap="square" mask="url(#mask-2)"></path>
            <path d="M227.7,295.4 L559.6,-36.6 L227.7,295.4 Z" id="Path" stroke="#CFCFCF" stroke-linecap="square" mask="url(#mask-2)"></path>
            <path d="M234.7,278.4 L549.7,-36.6 L234.7,278.4 Z" id="Path" stroke="#CFCFCF" stroke-linecap="square" mask="url(#mask-2)"></path>
            <path d="M293.2,279.9 L609.6,-36.6 L293.2,279.9 Z" id="Path" stroke="#CFCFCF" stroke-linecap="square" mask="url(#mask-2)"></path>
            <path d="M301.4,281.7 L620.2,-37.1 L301.4,281.7 Z" id="Path" stroke="#CFCFCF" stroke-linecap="square" mask="url(#mask-2)"></path>
            <path d="M316.2,276.9 L629.6,-36.6 L316.2,276.9 Z" id="Path" stroke="#CFCFCF" stroke-linecap="square" mask="url(#mask-2)"></path>
            <path d="M785.5,287.6 L1105.5,-32.4 L785.5,287.6 Z" id="Path" stroke="#CFCFCF" stroke-linecap="square" mask="url(#mask-2)"></path>
            <path d="M775.5,287.6 L1095.5,-32.4 L775.5,287.6 Z" id="Path" stroke="#CFCFCF" stroke-linecap="square" mask="url(#mask-2)"></path>
            <path d="M765.5,287.6 L1085.5,-32.4 L765.5,287.6 Z" id="Path" stroke="#CFCFCF" stroke-linecap="square" mask="url(#mask-2)"></path>
            <path d="M755.5,287.6 L1075.5,-32.4 L755.5,287.6 Z" id="Path" stroke="#CFCFCF" stroke-linecap="square" mask="url(#mask-2)"></path>
            <path d="M745.5,287.6 L1065.5,-32.4 L745.5,287.6 Z" id="Path" stroke="#CFCFCF" stroke-linecap="square" mask="url(#mask-2)"></path>
            <path d="M735.5,287.6 L1055.5,-32.4 L735.5,287.6 Z" id="Path" stroke="#CFCFCF" stroke-linecap="square" mask="url(#mask-2)"></path>
            <path d="M725.5,287.6 L1045.5,-32.4 L725.5,287.6 Z" id="Path" stroke="#CFCFCF" stroke-linecap="square" mask="url(#mask-2)"></path>
            <path d="M715.5,287.6 L1035.5,-32.4 L715.5,287.6 Z" id="Path" stroke="#CFCFCF" stroke-linecap="square" mask="url(#mask-2)"></path>
            <path d="M708.3,284.8 L1025.5,-32.4 L708.3,284.8 Z" id="Path" stroke="#CFCFCF" stroke-linecap="square" mask="url(#mask-2)"></path>
            <path d="M697,286.1 L1015.5,-32.4 L697,286.1 Z" id="Path" stroke="#CFCFCF" stroke-linecap="square" mask="url(#mask-2)"></path>
            <path d="M688.3,284.8 L1005.5,-32.4 L688.3,284.8 Z" id="Path" stroke="#CFCFCF" stroke-linecap="square" mask="url(#mask-2)"></path>
            <path d="M677.6,285.5 L995.5,-32.4 L677.6,285.5 Z" id="Path" stroke="#CFCFCF" stroke-linecap="square" mask="url(#mask-2)"></path>
            <path d="M666.7,286.4 L985.5,-32.4 L666.7,286.4 Z" id="Path" stroke="#CFCFCF" stroke-linecap="square" mask="url(#mask-2)"></path>
            <path d="M656.7,286.4 L975.5,-32.4 L656.7,286.4 Z" id="Path" stroke="#CFCFCF" stroke-linecap="square" mask="url(#mask-2)"></path>
            <path d="M647.6,285.5 L965.5,-32.4 L647.6,285.5 Z" id="Path" stroke="#CFCFCF" stroke-linecap="square" mask="url(#mask-2)"></path>
            <path d="M636.7,286.4 L955.5,-32.4 L636.7,286.4 Z" id="Path" stroke="#CFCFCF" stroke-linecap="square" mask="url(#mask-2)"></path>
            <path d="M625.5,287.6 L945.5,-32.4 L625.5,287.6 Z" id="Path" stroke="#CFCFCF" stroke-linecap="square" mask="url(#mask-2)"></path>
            <path d="M617.6,285.5 L935.5,-32.4 L617.6,285.5 Z" id="Path" stroke="#CFCFCF" stroke-linecap="square" mask="url(#mask-2)"></path>
            <path d="M607.9,285.2 L925.5,-32.4 L607.9,285.2 Z" id="Path" stroke="#CFCFCF" stroke-linecap="square" mask="url(#mask-2)"></path>
            <path d="M597,286.1 L915.5,-32.4 L597,286.1 Z" id="Path" stroke="#CFCFCF" stroke-linecap="square" mask="url(#mask-2)"></path>
            <path d="M587,286.1 L905.5,-32.4 L587,286.1 Z" id="Path" stroke="#CFCFCF" stroke-linecap="square" mask="url(#mask-2)"></path>
            <path d="M577.6,285.5 L895.5,-32.4 L577.6,285.5 Z" id="Path" stroke="#CFCFCF" stroke-linecap="square" mask="url(#mask-2)"></path>
            <path d="M567,286.1 L885.5,-32.4 L567,286.1 Z" id="Path" stroke="#CFCFCF" stroke-linecap="square" mask="url(#mask-2)"></path>
            <path d="M553.5,289.6 L875.5,-32.4 L553.5,289.6 Z" id="Path" stroke="#CFCFCF" stroke-linecap="square" mask="url(#mask-2)"></path>
            <path d="M544.9,288.2 L865.5,-32.4 L544.9,288.2 Z" id="Path" stroke="#CFCFCF" stroke-linecap="square" mask="url(#mask-2)"></path>
            <path d="M537,286.1 L855.5,-32.4 L537,286.1 Z" id="Path" stroke="#CFCFCF" stroke-linecap="square" mask="url(#mask-2)"></path>
            <path d="M527,286.1 L845.5,-32.4 L527,286.1 Z" id="Path" stroke="#CFCFCF" stroke-linecap="square" mask="url(#mask-2)"></path>
            <path d="M517.6,285.5 L835.5,-32.4 L517.6,285.5 Z" id="Path" stroke="#CFCFCF" stroke-linecap="square" mask="url(#mask-2)"></path>
            <path d="M507.6,285.5 L825.5,-32.4 L507.6,285.5 Z" id="Path" stroke="#CFCFCF" stroke-linecap="square" mask="url(#mask-2)"></path>
            <path d="M497.6,285.5 L815.5,-32.4 L497.6,285.5 Z" id="Path" stroke="#CFCFCF" stroke-linecap="square" mask="url(#mask-2)"></path>
            <path d="M487,286.1 L805.5,-32.4 L487,286.1 Z" id="Path" stroke="#CFCFCF" stroke-linecap="square" mask="url(#mask-2)"></path>
            <path d="M477,286.1 L799.1,-36 L477,286.1 Z" id="Path" stroke="#CFCFCF" stroke-linecap="square" mask="url(#mask-2)"></path>
            <path d="M474,279.1 L792,-39 L474,279.1 Z" id="Path" stroke="#CFCFCF" stroke-linecap="square" mask="url(#mask-2)"></path>
            <path d="M472.3,270.8 L781.5,-38.5 L472.3,270.8 Z" id="Path" stroke="#CFCFCF" stroke-linecap="square" mask="url(#mask-2)"></path>
            <path d="M470.8,262.2 L770.2,-37.1 L470.8,262.2 Z" id="Path" stroke="#CFCFCF" stroke-linecap="square" mask="url(#mask-2)"></path>
            <path d="M473,250.1 L760.2,-37.1 L473,250.1 Z" id="Path" stroke="#CFCFCF" stroke-linecap="square" mask="url(#mask-2)"></path>
            <path d="M449.1,264 L751.2,-38.1 L449.1,264 Z" id="Path" stroke="#CFCFCF" stroke-linecap="square" mask="url(#mask-2)"></path>
            <path d="M428,275.1 L739.6,-36.6 L428,275.1 Z" id="Path" stroke="#CFCFCF" stroke-linecap="square" mask="url(#mask-2)"></path>
            <path d="M390.1,303 L731.2,-38.1 L390.1,303 Z" id="Path" stroke="#CFCFCF" stroke-linecap="square" mask="url(#mask-2)"></path>
            <path d="M393.4,289.7 L720.2,-37.1 L393.4,289.7 Z" id="Path" stroke="#CFCFCF" stroke-linecap="square" mask="url(#mask-2)"></path>
            <path d="M391.8,281.3 L709.6,-36.6 L391.8,281.3 Z" id="Path" stroke="#CFCFCF" stroke-linecap="square" mask="url(#mask-2)"></path>
            <path d="M372.6,290.5 L699.6,-36.5 L372.6,290.5 Z" id="Path" stroke="#CFCFCF" stroke-linecap="square" mask="url(#mask-2)"></path>
            <path d="M347.4,305.7 L691.5,-38.5 L347.4,305.7 Z" id="Path" stroke="#CFCFCF" stroke-linecap="square" mask="url(#mask-2)"></path>
            <path d="M344.8,298.3 L681.2,-38.1 L344.8,298.3 Z" id="Path" stroke="#CFCFCF" stroke-linecap="square" mask="url(#mask-2)"></path>
            <path d="M323.7,309.4 L670.2,-37.1 L323.7,309.4 Z" id="Path" stroke="#CFCFCF" stroke-linecap="square" mask="url(#mask-2)"></path>
            <path d="M317.2,305.8 L661.2,-38.1 L317.2,305.8 Z" id="Path" stroke="#CFCFCF" stroke-linecap="square" mask="url(#mask-2)"></path>
            <path d="M329.1,284 L649.6,-36.6 L329.1,284 Z" id="Path" stroke="#CFCFCF" stroke-linecap="square" mask="url(#mask-2)"></path>
            <path d="M343.4,259.7 L644.9,-41.8 L343.4,259.7 Z" id="Path" stroke="#CFCFCF" stroke-linecap="square" mask="url(#mask-2)"></path>
            <path d="M229.9,273.2 L541.2,-38.1 L229.9,273.2 Z" id="Path" stroke="#CFCFCF" stroke-linecap="square" mask="url(#mask-2)"></path>
            <path d="M238.6,254.5 L532,-39 L238.6,254.5 Z" id="Path" stroke="#CFCFCF" stroke-linecap="square" mask="url(#mask-2)"></path>
            <path d="M297.5,265.6 L598.7,-35.7 L297.5,265.6 Z" id="Path" stroke="#CFCFCF" stroke-linecap="square" mask="url(#mask-2)"></path>
            <path d="M283.8,269.9 L595.5,-41.8 L283.8,269.9 Z" id="Path" stroke="#CFCFCF" stroke-linecap="square" mask="url(#mask-2)"></path>
            <path d="M267.2,275.8 L584.9,-41.8 L267.2,275.8 Z" id="Path" stroke="#CFCFCF" stroke-linecap="square" mask="url(#mask-2)"></path>
            <path d="M230.7,252.4 L527.2,-44.1 L230.7,252.4 Z" id="Path" stroke="#CFCFCF" stroke-linecap="square" mask="url(#mask-2)"></path>
            <path d="M-41.7,254.8 L250.2,-37.1 L-41.7,254.8 Z" id="Path" stroke="#CFCFCF" stroke-linecap="square" mask="url(#mask-2)"></path>
            <path d="M-38.3,241.4 L239.6,-36.6 L-38.3,241.4 Z" id="Path" stroke="#CFCFCF" stroke-linecap="square" mask="url(#mask-2)"></path>
            <path d="M-34.2,227.3 L229.6,-36.6 L-34.2,227.3 Z" id="Path" stroke="#CFCFCF" stroke-linecap="square" mask="url(#mask-2)"></path>
            <path d="M-10.6,263.7 L289.6,-36.6 L-10.6,263.7 Z" id="Path" stroke="#CFCFCF" stroke-linecap="square" mask="url(#mask-2)"></path>
            <path d="M1.6,261.5 L300.2,-37.1 L1.6,261.5 Z" id="Path" stroke="#CFCFCF" stroke-linecap="square" mask="url(#mask-2)"></path>
            <path d="M15.2,257.9 L309.6,-36.6 L15.2,257.9 Z" id="Path" stroke="#CFCFCF" stroke-linecap="square" mask="url(#mask-2)"></path>
            <path d="M187.6,285.5 L505.5,-32.4 L187.6,285.5 Z" id="Path" stroke="#CFCFCF" stroke-linecap="square" mask="url(#mask-2)"></path>
            <path d="M177.6,285.5 L495.5,-32.4 L177.6,285.5 Z" id="Path" stroke="#CFCFCF" stroke-linecap="square" mask="url(#mask-2)"></path>
            <path d="M167,286.1 L485.5,-32.4 L167,286.1 Z" id="Path" stroke="#CFCFCF" stroke-linecap="square" mask="url(#mask-2)"></path>
            <path d="M157,286.1 L479.1,-36 L157,286.1 Z" id="Path" stroke="#CFCFCF" stroke-linecap="square" mask="url(#mask-2)"></path>
            <path d="M154,279.1 L472,-39 L154,279.1 Z" id="Path" stroke="#CFCFCF" stroke-linecap="square" mask="url(#mask-2)"></path>
            <path d="M152.3,270.8 L461.5,-38.5 L152.3,270.8 Z" id="Path" stroke="#CFCFCF" stroke-linecap="square" mask="url(#mask-2)"></path>
            <path d="M150.8,262.2 L450.2,-37.1 L150.8,262.2 Z" id="Path" stroke="#CFCFCF" stroke-linecap="square" mask="url(#mask-2)"></path>
            <path d="M153,250.1 L440.2,-37.1 L153,250.1 Z" id="Path" stroke="#CFCFCF" stroke-linecap="square" mask="url(#mask-2)"></path>
            <path d="M104.1,289 L431.2,-38.1 L104.1,289 Z" id="Path" stroke="#CFCFCF" stroke-linecap="square" mask="url(#mask-2)"></path>
            <path d="M107.6,275.4 L419.6,-36.6 L107.6,275.4 Z" id="Path" stroke="#CFCFCF" stroke-linecap="square" mask="url(#mask-2)"></path>
            <path d="M86,287.1 L411.2,-38.1 L86,287.1 Z" id="Path" stroke="#CFCFCF" stroke-linecap="square" mask="url(#mask-2)"></path>
            <path d="M88.2,274.8 L400.2,-37.2 L88.2,274.8 Z" id="Path" stroke="#CFCFCF" stroke-linecap="square" mask="url(#mask-2)"></path>
            <path d="M65.1,288 L389.6,-36.6 L65.1,288 Z" id="Path" stroke="#CFCFCF" stroke-linecap="square" mask="url(#mask-2)"></path>
            <path d="M73.8,269.3 L379.6,-36.6 L73.8,269.3 Z" id="Path" stroke="#CFCFCF" stroke-linecap="square" mask="url(#mask-2)"></path>
            <path d="M40.1,293 L371.5,-38.5 L40.1,293 Z" id="Path" stroke="#CFCFCF" stroke-linecap="square" mask="url(#mask-2)"></path>
            <path d="M35.4,287.7 L361.2,-38.1 L35.4,287.7 Z" id="Path" stroke="#CFCFCF" stroke-linecap="square" mask="url(#mask-2)"></path>
            <path d="M54.8,258.3 L350.2,-37.1 L54.8,258.3 Z" id="Path" stroke="#CFCFCF" stroke-linecap="square" mask="url(#mask-2)"></path>
            <path d="M39.9,263.2 L341.2,-38.1 L39.9,263.2 Z" id="Path" stroke="#CFCFCF" stroke-linecap="square" mask="url(#mask-2)"></path>
            <path d="M39.2,253.9 L329.6,-36.6 L39.2,253.9 Z" id="Path" stroke="#CFCFCF" stroke-linecap="square" mask="url(#mask-2)"></path>
            <path d="M10.1,272.9 L324.9,-41.8 L10.1,272.9 Z" id="Path" stroke="#CFCFCF" stroke-linecap="square" mask="url(#mask-2)"></path>
            <path d="M-42.3,225.4 L221.2,-38.1 L-42.3,225.4 Z" id="Path" stroke="#CFCFCF" stroke-linecap="square" mask="url(#mask-2)"></path>
            <path d="M-32.8,205.9 L212,-39 L-32.8,205.9 Z" id="Path" stroke="#CFCFCF" stroke-linecap="square" mask="url(#mask-2)"></path>
            <path d="M-56.5,299.6 L278.7,-35.7 L-56.5,299.6 Z" id="Path" stroke="#CFCFCF" stroke-linecap="square" mask="url(#mask-2)"></path>
            <path d="M-29.6,263.2 L275.5,-41.8 L-29.6,263.2 Z" id="Path" stroke="#CFCFCF" stroke-linecap="square" mask="url(#mask-2)"></path>
            <path d="M-31.2,254.3 L264.9,-41.8 L-31.2,254.3 Z" id="Path" stroke="#CFCFCF" stroke-linecap="square" mask="url(#mask-2)"></path>
            <path d="M-46.2,209.3 L207.2,-44.1 L-46.2,209.3 Z" id="Path" stroke="#CFCFCF" stroke-linecap="square" mask="url(#mask-2)"></path>
            <path d="M-132.4,285.5 L185.5,-32.4 L-132.4,285.5 Z" id="Path" stroke="#CFCFCF" stroke-linecap="square" mask="url(#mask-2)"></path>
            <path d="M-142.4,285.5 L175.5,-32.4 L-142.4,285.5 Z" id="Path" stroke="#CFCFCF" stroke-linecap="square" mask="url(#mask-2)"></path>
            <path d="M-153,286.1 L165.5,-32.4 L-153,286.1 Z" id="Path" stroke="#CFCFCF" stroke-linecap="square" mask="url(#mask-2)"></path>
            <path d="M-163,286.1 L159.1,-36 L-163,286.1 Z" id="Path" stroke="#CFCFCF" stroke-linecap="square" mask="url(#mask-2)"></path>
            <path d="M-166,279.1 L152,-39 L-166,279.1 Z" id="Path" stroke="#CFCFCF" stroke-linecap="square" mask="url(#mask-2)"></path>
            <path d="M-167.7,270.8 L141.5,-38.5 L-167.7,270.8 Z" id="Path" stroke="#CFCFCF" stroke-linecap="square" mask="url(#mask-2)"></path>
            <path d="M-169.2,262.2 L130.2,-37.1 L-169.2,262.2 Z" id="Path" stroke="#CFCFCF" stroke-linecap="square" mask="url(#mask-2)"></path>
            <path d="M-167,250.1 L120.2,-37.1 L-167,250.1 Z" id="Path" stroke="#CFCFCF" stroke-linecap="square" mask="url(#mask-2)"></path>
            <path d="M-166,239.1 L111.2,-38.1 L-166,239.1 Z" id="Path" stroke="#CFCFCF" stroke-linecap="square" mask="url(#mask-2)"></path>
            <path d="M-170.1,233.2 L99.6,-36.6 L-170.1,233.2 Z" id="Path" stroke="#CFCFCF" stroke-linecap="square" mask="url(#mask-2)"></path>
            <path d="M-165.2,218.3 L91.2,-38.1 L-165.2,218.3 Z" id="Path" stroke="#CFCFCF" stroke-linecap="square" mask="url(#mask-2)"></path>
            <path d="M-166,209.1 L80.2,-37.1 L-166,209.1 Z" id="Path" stroke="#CFCFCF" stroke-linecap="square" mask="url(#mask-2)"></path>
            <path d="M-166,199.1 L69.6,-36.6 L-166,199.1 Z" id="Path" stroke="#CFCFCF" stroke-linecap="square" mask="url(#mask-2)"></path>
            <path d="M-167,190.1 L59.6,-36.6 L-167,190.1 Z" id="Path" stroke="#CFCFCF" stroke-linecap="square" mask="url(#mask-2)"></path>
            <path d="M-167,180.1 L51.5,-38.5 L-167,180.1 Z" id="Path" stroke="#CFCFCF" stroke-linecap="square" mask="url(#mask-2)"></path>
            <path d="M-163.9,167 L41.2,-38.1 L-163.9,167 Z" id="Path" stroke="#CFCFCF" stroke-linecap="square" mask="url(#mask-2)"></path>
            <path d="M-164.2,157.3 L30.2,-37.1 L-164.2,157.3 Z" id="Path" stroke="#CFCFCF" stroke-linecap="square" mask="url(#mask-2)"></path>
            <path d="M-164.8,147.9 L21.2,-38.1 L-164.8,147.9 Z" id="Path" stroke="#CFCFCF" stroke-linecap="square" mask="url(#mask-2)"></path>
            <path d="M-165.2,138.3 L9.6,-36.6 L-165.2,138.3 Z" id="Path" stroke="#CFCFCF" stroke-linecap="square" mask="url(#mask-2)"></path>
            <path d="M-165.2,128.3 L4.9,-41.8 L-165.2,128.3 Z" id="Path" stroke="#CFCFCF" stroke-linecap="square" mask="url(#mask-2)"></path>
        </g>
    </g>
</svg>