<?xml version="1.0" encoding="UTF-8"?>
<svg width="298px" height="700px" viewBox="0 0 298 700" version="1.1" xmlns="http://www.w3.org/2000/svg" xmlns:xlink="http://www.w3.org/1999/xlink">
    <!-- Generator: sketchtool 52.4 (67378) - http://www.bohemiancoding.com/sketch -->
    <title>B6EAE121-D2AD-4F2E-A4D8-F5E3D25C5B1A</title>
    <desc>Created with sketchtool.</desc>
    <defs>
        <rect id="path-1" x="0" y="0" width="298" height="700"></rect>
    </defs>
    <g id="Page-1" stroke="none" stroke-width="1" fill="none" fill-rule="evenodd">
        <g id="Main-page_1920" transform="translate(-1270.000000, -5034.000000)">
            <g id="Red-section" transform="translate(-10.000000, 4301.000000)">
                <g id="Red-bckgr">
                    <g id="Elements-/-Pattern-1" transform="translate(1280.000000, 733.000000)">
                        <g id="Pattern-2">
                            <mask id="mask-2" fill="white">
                                <use xlink:href="#path-1"></use>
                            </mask>
                            <g id="Rectangle"></g>
                            <path d="M-1.32629395,43.3262939 L50.109375,-8.109375 L-1.32629395,43.3262939 Z M-2.58532715,14.5853271 L13.9897461,-1.98974609 L-2.58532715,14.5853271 Z M-1.90136719,33.9013672 L32.9362488,-0.936248779 L-1.90136719,33.9013672 Z M-0.760559082,2.76055908 L2.77453613,-0.774536133 L-0.760559082,2.76055908 Z M-2.58532715,24.5853271 L24.4500732,-2.45007324 L-2.58532715,24.5853271 Z M-2.26818848,104.268188 L107.807861,-5.80786133 L-2.26818848,104.268188 Z M-0.9921875,113.567627 L118.383301,-5.80786133 L-0.9921875,113.567627 Z M-4.80541992,126.80542 L121.650879,0.349121094 L-4.80541992,126.80542 Z M-1.87988281,53.8798828 L54.963623,-2.96362305 L-1.87988281,53.8798828 Z M-3.08630371,65.0863037 L64.092041,-2.09204102 L-3.08630371,65.0863037 Z M-2.26818848,164.268188 L167.807861,-5.80786133 L-2.26818848,164.268188 Z M-2.26818848,174.268188 L172.552246,-0.552246094 L-2.26818848,174.268188 Z M-1.90136719,183.901367 L184.092041,-2.09204102 L-1.90136719,183.901367 Z M-1.32629395,193.326294 L193.120605,-1.12060547 L-1.32629395,193.326294 Z M-0.9921875,202.992188 L204.092041,-2.09204102 L-0.9921875,202.992188 Z M-4.12756348,216.127563 L214.450073,-2.45007324 L-4.12756348,216.127563 Z M-4.12756348,226.127563 L222.552246,-0.552246094 L-4.12756348,226.127563 Z M-3.08630371,235.086304 L232.552246,-0.552246094 L-3.08630371,235.086304 Z M-3.08630371,245.086304 L243.120605,-1.12060547 L-3.08630371,245.086304 Z M-2.26818848,254.268188 L254.092041,-2.09204102 L-2.26818848,254.268188 Z M-7.21948242,269.219482 L262.552246,-0.552246094 L-7.21948242,269.219482 Z M-3.08630371,275.086304 L274.092041,-2.09204102 L-3.08630371,275.086304 Z M-4.12756348,286.127563 L283.120605,-1.12060547 L-4.12756348,286.127563 Z M-6.24267578,298.242676 L293.120605,-1.12060547 L-6.24267578,298.242676 Z M-4.80541992,306.80542 L304.450073,-2.45007324 L-4.80541992,306.80542 Z M-3.08630371,315.086304 L314.963623,-2.96362305 L-3.08630371,315.086304 Z M-0.109008789,322.109009 L322,0 L-0.109008789,322.109009 Z M-3.08630371,335.086304 L328.400146,3.59985352 L-3.08630371,335.086304 Z M-6.24267578,348.242676 L338.400146,3.59985352 L-6.24267578,348.242676 Z M-19.9775391,371.977539 L348.400146,3.59985352 L-19.9775391,371.977539 Z M-9.97753906,371.977539 L358.400146,3.59985352 L-9.97753906,371.977539 Z M-4.80541992,376.80542 L368.400146,3.59985352 L-4.80541992,376.80542 Z M-4.12756348,386.127563 L378.400146,3.59985352 L-4.12756348,386.127563 Z M-13.1708984,405.170898 L388.400146,3.59985352 L-13.1708984,405.170898 Z M-9.97753906,411.977539 L398.400146,3.59985352 L-9.97753906,411.977539 Z M-9.97753906,421.977539 L408.400146,3.59985352 L-9.97753906,421.977539 Z M-2.58532715,424.585327 L418.400146,3.59985352 L-2.58532715,424.585327 Z M-7.21948242,439.219482 L428.400146,3.59985352 L-7.21948242,439.219482 Z M-9.97753906,451.977539 L438.400146,3.59985352 L-9.97753906,451.977539 Z M-7.21948242,459.219482 L448.400146,3.59985352 L-7.21948242,459.219482 Z M-9.97753906,471.977539 L458.400146,3.59985352 L-9.97753906,471.977539 Z M-6.24267578,478.242676 L468.400146,3.59985352 L-6.24267578,478.242676 Z M-7.21948242,489.219482 L478.400146,3.59985352 L-7.21948242,489.219482 Z M-9.97753906,501.977539 L488.400146,3.59985352 L-9.97753906,501.977539 Z M-9.97753906,511.977539 L498.400146,3.59985352 L-9.97753906,511.977539 Z M-4.12756348,516.127563 L508.400146,3.59985352 L-4.12756348,516.127563 Z M-7.21948242,529.219482 L518.400146,3.59985352 L-7.21948242,529.219482 Z M-9.97753906,541.977539 L528.400146,3.59985352 L-9.97753906,541.977539 Z M-9.97753906,551.977539 L538.400146,3.59985352 L-9.97753906,551.977539 Z M-13.1708984,565.170898 L548.400146,3.59985352 L-13.1708984,565.170898 Z M-13.1708984,575.170898 L558.400146,3.59985352 L-13.1708984,575.170898 Z M-13.1708984,585.170898 L369.007812,202.992188 L-13.1708984,585.170898 Z M-16.703125,598.703125 L346.913696,235.086304 L-16.703125,598.703125 Z M-9.97753906,601.977539 L588.400146,3.59985352 L-9.97753906,601.977539 Z M-9.97753906,611.977539 L598.400146,3.59985352 L-9.97753906,611.977539 Z M-13.1708984,625.170898 L608.400146,3.59985352 L-13.1708984,625.170898 Z M-13.1708984,635.170898 L618.400146,3.59985352 L-13.1708984,635.170898 Z M-2.26818848,154.268188 L152.552246,-0.552246094 L-2.26818848,154.268188 Z M-6.24267578,148.242676 L143.120605,-1.12060547 L-6.24267578,148.242676 Z M-4.80541992,136.80542 L132.552246,-0.552246094 L-4.80541992,136.80542 Z M-1.56103516,73.5610352 L72.5522461,-0.552246094 L-1.56103516,73.5610352 Z M-1.32629395,83.3262939 L82.5522461,-0.552246094 L-1.32629395,83.3262939 Z M-3.08630371,95.0863037 L93.1206055,-1.12060547 L-3.08630371,95.0863037 Z M-9.97753906,641.977539 L628.400146,3.59985352 L-9.97753906,641.977539 Z M-9.97753906,651.977539 L628.400146,13.5998535 L-9.97753906,651.977539 Z M-9.97753906,661.977539 L628.400146,23.5998535 L-9.97753906,661.977539 Z M-9.97753906,671.977539 L628.400146,33.5998535 L-9.97753906,671.977539 Z M-9.97753906,681.977539 L628.400146,43.5998535 L-9.97753906,681.977539 Z M-9.97753906,691.977539 L628.400146,53.5998535 L-9.97753906,691.977539 Z M-9.97753906,701.977539 L628.400146,63.5998535 L-9.97753906,701.977539 Z M-9.97753906,711.977539 L628.400146,73.5998535 L-9.97753906,711.977539 Z M-9.97753906,721.977539 L628.400146,83.5998535 L-9.97753906,721.977539 Z M-9.97753906,731.977539 L628.400146,93.5998535 L-9.97753906,731.977539 Z M-9.97753906,741.977539 L628.400146,103.599854 L-9.97753906,741.977539 Z M-9.97753906,751.977539 L628.400146,113.599854 L-9.97753906,751.977539 Z M-9.97753906,761.977539 L628.400146,123.599854 L-9.97753906,761.977539 Z M-9.97753906,771.977539 L628.400146,133.599854 L-9.97753906,771.977539 Z M-9.97753906,781.977539 L628.400146,143.599854 L-9.97753906,781.977539 Z M-9.97753906,791.977539 L628.400146,153.599854 L-9.97753906,791.977539 Z M-9.97753906,801.977539 L628.400146,163.599854 L-9.97753906,801.977539 Z M-9.97753906,811.977539 L628.400146,173.599854 L-9.97753906,811.977539 Z M-9.97753906,821.977539 L628.400146,183.599854 L-9.97753906,821.977539 Z M-9.97753906,831.977539 L628.400146,193.599854 L-9.97753906,831.977539 Z M-9.97753906,841.977539 L628.400146,203.599854 L-9.97753906,841.977539 Z M-9.97753906,851.977539 L628.400146,213.599854 L-9.97753906,851.977539 Z M-9.97753906,861.977539 L628.400146,223.599854 L-9.97753906,861.977539 Z M-9.97753906,871.977539 L628.400146,233.599854 L-9.97753906,871.977539 Z M-9.97753906,881.977539 L628.400146,243.599854 L-9.97753906,881.977539 Z M-9.97753906,891.977539 L628.400146,253.599854 L-9.97753906,891.977539 Z M-9.97753906,901.977539 L628.400146,263.599854 L-9.97753906,901.977539 Z M-9.97753906,911.977539 L628.400146,273.599854 L-9.97753906,911.977539 Z M-9.97753906,921.977539 L628.400146,283.599854 L-9.97753906,921.977539 Z M-9.97753906,931.977539 L628.400146,293.599854 L-9.97753906,931.977539 Z M-9.97753906,941.977539 L628.400146,303.599854 L-9.97753906,941.977539 Z M-9.97753906,951.977539 L628.400146,313.599854 L-9.97753906,951.977539 Z M-9.97753906,961.977539 L628.400146,323.599854 L-9.97753906,961.977539 Z M-9.97753906,971.977539 L628.400146,333.599854 L-9.97753906,971.977539 Z M-9.97753906,981.977539 L628.400146,343.599854 L-9.97753906,981.977539 Z M-9.97753906,991.977539 L628.400146,353.599854 L-9.97753906,991.977539 Z M-9.97753906,1001.97754 L628.400146,363.599854 L-9.97753906,1001.97754 Z M-9.97753906,1011.97754 L628.400146,373.599854 L-9.97753906,1011.97754 Z M294.211304,717.788696 L332.100586,679.899414 L294.211304,717.788696 Z" id="Combined-Shape" stroke="#FFFFFF" opacity="0.25" stroke-linecap="square" mask="url(#mask-2)"></path>
                        </g>
                    </g>
                </g>
            </g>
        </g>
    </g>
</svg>