<?xml version="1.0" encoding="UTF-8"?>
<svg width="901px" height="285px" viewBox="0 0 901 285" version="1.1" xmlns="http://www.w3.org/2000/svg" xmlns:xlink="http://www.w3.org/1999/xlink">
    <!-- Generator: Sketch 52.4 (67378) - http://www.bohemiancoding.com/sketch -->
    <title>Pattern</title>
    <desc>Created with Sketch.</desc>
    <defs>
        <rect id="path-1" x="0" y="0" width="901" height="285"></rect>
        <rect id="path-3" x="0" y="0" width="320" height="318.881119"></rect>
        <rect id="path-5" x="0" y="0" width="320" height="318.881119"></rect>
        <rect id="path-7" x="0" y="0" width="320" height="318.881119"></rect>
    </defs>
    <g id="Page-1" stroke="none" stroke-width="1" fill="none" fill-rule="evenodd">
        <g id="Pattern">
            <mask id="mask-2" fill="white">
                <use xlink:href="#path-1"></use>
            </mask>
            <g id="path-1"></g>
            <g id="Combined-Shape-Clipped" opacity="0.200000003" mask="url(#mask-2)">
                <g transform="translate(581.000000, -4.982517)">
                    <mask id="mask-4" fill="white">
                        <use xlink:href="#path-3"></use>
                    </mask>
                    <g id="path-3" stroke="none" fill="none"></g>
                    <path d="M-1.32629395,43.1748034 L50.109375,-8.08102054 L-1.32629395,43.1748034 Z M-2.58532715,14.5343295 L13.9897461,-1.98278894 L-2.58532715,14.5343295 Z M-1.90136719,33.782831 L32.9362488,-0.932975182 L-1.90136719,33.782831 Z M-0.760559082,2.75090678 L2.77453613,-0.771827965 L-0.760559082,2.75090678 Z M-2.58532715,24.4993644 L24.4500732,-2.44150655 L-2.58532715,24.4993644 Z M-2.26818848,103.903614 L107.807861,-5.78755412 L-2.26818848,103.903614 Z M-0.9921875,113.170537 L118.383301,-5.78755412 L-0.9921875,113.170537 Z M-4.80541992,126.362044 L121.650879,0.347900391 L-4.80541992,126.362044 Z M-1.87988281,53.6914916 L54.963623,-2.95326073 L-1.87988281,53.6914916 Z M-3.08630371,64.8587292 L64.092041,-2.08472619 L-3.08630371,64.8587292 Z M-2.26818848,163.693824 L167.807861,-5.78755412 L-2.26818848,163.693824 Z M-2.26818848,173.658859 L172.552246,-0.550315164 L-2.26818848,173.658859 Z M-1.90136719,183.258355 L184.092041,-2.08472619 L-1.90136719,183.258355 Z M-1.32629395,192.650328 L193.120605,-1.11668727 L-1.32629395,192.650328 Z M-0.9921875,202.282425 L204.092041,-2.08472619 L-0.9921875,202.282425 Z M-4.12756348,215.371872 L214.450073,-2.44150655 L-4.12756348,215.371872 Z M-4.12756348,225.336907 L222.552246,-0.550315164 L-4.12756348,225.336907 Z M-3.08630371,234.264324 L232.552246,-0.550315164 L-3.08630371,234.264324 Z M-3.08630371,244.229359 L243.120605,-1.11668727 L-3.08630371,244.229359 Z M-2.26818848,253.379138 L254.092041,-2.08472619 L-2.26818848,253.379138 Z M-7.21948242,268.278155 L262.552246,-0.550315164 L-7.21948242,268.278155 Z M-3.08630371,274.124464 L274.092041,-2.08472619 L-3.08630371,274.124464 Z M-4.12756348,285.127117 L283.120605,-1.11668727 L-4.12756348,285.127117 Z M-6.24267578,297.199869 L293.120605,-1.11668727 L-6.24267578,297.199869 Z M-4.80541992,305.732674 L304.450073,-2.44150655 L-4.80541992,305.732674 Z M-3.08630371,313.984604 L314.963623,-2.95326073 L-3.08630371,313.984604 Z M-0.109008789,320.982754 L322,-1.42108547e-14 L-0.109008789,320.982754 Z M9.89099121,320.982754 L328.400146,3.58726662 L9.89099121,320.982754 Z M20.5,320.375874 L338.400146,3.58726662 L20.5,320.375874 Z M30.5,320.375874 L348.400146,3.58726662 L30.5,320.375874 Z M40.5,320.375874 L358.400146,3.58726662 L40.5,320.375874 Z M49.8909912,320.982754 L368.400146,3.58726662 L49.8909912,320.982754 Z M59.8909912,320.982754 L378.400146,3.58726662 L59.8909912,320.982754 Z M67.8081055,323.058357 L388.400146,3.58726662 L67.8081055,323.058357 Z M76.381958,324.479517 L398.400146,3.58726662 L76.381958,324.479517 Z M89.8909912,320.982754 L408.400146,3.58726662 L89.8909912,320.982754 Z M100.5,320.375874 L418.400146,3.58726662 L100.5,320.375874 Z M109.890991,320.982754 L428.400146,3.58726662 L109.890991,320.982754 Z M119.890991,320.982754 L438.400146,3.58726662 L119.890991,320.982754 Z M130.834595,320.042449 L448.400146,3.58726662 L130.834595,320.042449 Z M140.5,320.375874 L458.400146,3.58726662 L140.5,320.375874 Z M148.370239,322.498188 L468.400146,3.58726662 L148.370239,322.498188 Z M159.576294,321.29635 L478.400146,3.58726662 L159.576294,321.29635 Z M170.5,320.375874 L488.400146,3.58726662 L170.5,320.375874 Z M179.576294,321.29635 L498.400146,3.58726662 L179.576294,321.29635 Z M189.576294,321.29635 L508.400146,3.58726662 L189.576294,321.29635 Z M200.5,320.375874 L518.400146,3.58726662 L200.5,320.375874 Z M211.182983,319.695279 L528.400146,3.58726662 L211.182983,319.695279 Z M219.890991,320.982754 L538.400146,3.58726662 L219.890991,320.982754 Z M231.182983,319.695279 L548.400146,3.58726662 L231.182983,319.695279 Z M238.370239,322.498188 L558.400146,3.58726662 L238.370239,322.498188 Z M248.370239,322.498188 L568.400146,3.58726662 L248.370239,322.498188 Z M258.370239,322.498188 L578.400146,3.58726662 L258.370239,322.498188 Z M268.370239,322.498188 L588.400146,3.58726662 L268.370239,322.498188 Z M278.370239,322.498188 L598.400146,3.58726662 L278.370239,322.498188 Z M288.370239,322.498188 L608.400146,3.58726662 L288.370239,322.498188 Z M298.370239,322.498188 L618.400146,3.58726662 L298.370239,322.498188 Z M308.370239,322.498188 L628.400146,3.58726662 L308.370239,322.498188 Z M-2.26818848,153.728789 L152.552246,-0.550315164 L-2.26818848,153.728789 Z M-6.24267578,147.724345 L143.120605,-1.11668727 L-6.24267578,147.724345 Z M-4.80541992,136.327079 L132.552246,-0.550315164 L-4.80541992,136.327079 Z M-1.56103516,73.3038288 L72.5522461,-0.550315164 L-1.56103516,73.3038288 Z M-1.32629395,83.0349432 L82.5522461,-0.550315164 L-1.32629395,83.0349432 Z M-3.08630371,94.7538341 L93.1206055,-1.11668727 L-3.08630371,94.7538341 Z" id="Combined-Shape" stroke="#DEDEDE" stroke-width="1" fill="none" stroke-linecap="square" mask="url(#mask-4)"></path>
                </g>
            </g>
            <g id="Combined-Shape-Clipped" opacity="0.200000003" mask="url(#mask-2)">
                <g transform="translate(261.000000, -4.982517)">
                    <mask id="mask-6" fill="white">
                        <use xlink:href="#path-5"></use>
                    </mask>
                    <g id="path-5" stroke="none" fill="none"></g>
                    <path d="M-1.32629395,43.1748034 L50.109375,-8.08102054 L-1.32629395,43.1748034 Z M-2.58532715,14.5343295 L13.9897461,-1.98278894 L-2.58532715,14.5343295 Z M-1.90136719,33.782831 L32.9362488,-0.932975182 L-1.90136719,33.782831 Z M-0.760559082,2.75090678 L2.77453613,-0.771827965 L-0.760559082,2.75090678 Z M-2.58532715,24.4993644 L24.4500732,-2.44150655 L-2.58532715,24.4993644 Z M-2.26818848,103.903614 L107.807861,-5.78755412 L-2.26818848,103.903614 Z M-0.9921875,113.170537 L118.383301,-5.78755412 L-0.9921875,113.170537 Z M-4.80541992,126.362044 L121.650879,0.347900391 L-4.80541992,126.362044 Z M-1.87988281,53.6914916 L54.963623,-2.95326073 L-1.87988281,53.6914916 Z M-3.08630371,64.8587292 L64.092041,-2.08472619 L-3.08630371,64.8587292 Z M-2.26818848,163.693824 L167.807861,-5.78755412 L-2.26818848,163.693824 Z M-2.26818848,173.658859 L172.552246,-0.550315164 L-2.26818848,173.658859 Z M-1.90136719,183.258355 L184.092041,-2.08472619 L-1.90136719,183.258355 Z M-1.32629395,192.650328 L193.120605,-1.11668727 L-1.32629395,192.650328 Z M-0.9921875,202.282425 L204.092041,-2.08472619 L-0.9921875,202.282425 Z M-4.12756348,215.371872 L214.450073,-2.44150655 L-4.12756348,215.371872 Z M-4.12756348,225.336907 L222.552246,-0.550315164 L-4.12756348,225.336907 Z M-3.08630371,234.264324 L232.552246,-0.550315164 L-3.08630371,234.264324 Z M-3.08630371,244.229359 L243.120605,-1.11668727 L-3.08630371,244.229359 Z M-2.26818848,253.379138 L254.092041,-2.08472619 L-2.26818848,253.379138 Z M-7.21948242,268.278155 L262.552246,-0.550315164 L-7.21948242,268.278155 Z M-3.08630371,274.124464 L274.092041,-2.08472619 L-3.08630371,274.124464 Z M-4.12756348,285.127117 L283.120605,-1.11668727 L-4.12756348,285.127117 Z M-6.24267578,297.199869 L293.120605,-1.11668727 L-6.24267578,297.199869 Z M-4.80541992,305.732674 L304.450073,-2.44150655 L-4.80541992,305.732674 Z M-3.08630371,313.984604 L314.963623,-2.95326073 L-3.08630371,313.984604 Z M-0.109008789,320.982754 L322,-1.42108547e-14 L-0.109008789,320.982754 Z M9.89099121,320.982754 L328.400146,3.58726662 L9.89099121,320.982754 Z M20.5,320.375874 L338.400146,3.58726662 L20.5,320.375874 Z M30.5,320.375874 L348.400146,3.58726662 L30.5,320.375874 Z M40.5,320.375874 L358.400146,3.58726662 L40.5,320.375874 Z M49.8909912,320.982754 L368.400146,3.58726662 L49.8909912,320.982754 Z M59.8909912,320.982754 L378.400146,3.58726662 L59.8909912,320.982754 Z M67.8081055,323.058357 L388.400146,3.58726662 L67.8081055,323.058357 Z M76.381958,324.479517 L398.400146,3.58726662 L76.381958,324.479517 Z M89.8909912,320.982754 L408.400146,3.58726662 L89.8909912,320.982754 Z M100.5,320.375874 L418.400146,3.58726662 L100.5,320.375874 Z M109.890991,320.982754 L428.400146,3.58726662 L109.890991,320.982754 Z M119.890991,320.982754 L438.400146,3.58726662 L119.890991,320.982754 Z M130.834595,320.042449 L448.400146,3.58726662 L130.834595,320.042449 Z M140.5,320.375874 L458.400146,3.58726662 L140.5,320.375874 Z M148.370239,322.498188 L468.400146,3.58726662 L148.370239,322.498188 Z M159.576294,321.29635 L478.400146,3.58726662 L159.576294,321.29635 Z M170.5,320.375874 L488.400146,3.58726662 L170.5,320.375874 Z M179.576294,321.29635 L498.400146,3.58726662 L179.576294,321.29635 Z M189.576294,321.29635 L508.400146,3.58726662 L189.576294,321.29635 Z M200.5,320.375874 L518.400146,3.58726662 L200.5,320.375874 Z M211.182983,319.695279 L528.400146,3.58726662 L211.182983,319.695279 Z M219.890991,320.982754 L538.400146,3.58726662 L219.890991,320.982754 Z M231.182983,319.695279 L548.400146,3.58726662 L231.182983,319.695279 Z M238.370239,322.498188 L558.400146,3.58726662 L238.370239,322.498188 Z M248.370239,322.498188 L568.400146,3.58726662 L248.370239,322.498188 Z M258.370239,322.498188 L578.400146,3.58726662 L258.370239,322.498188 Z M268.370239,322.498188 L588.400146,3.58726662 L268.370239,322.498188 Z M278.370239,322.498188 L598.400146,3.58726662 L278.370239,322.498188 Z M288.370239,322.498188 L608.400146,3.58726662 L288.370239,322.498188 Z M298.370239,322.498188 L618.400146,3.58726662 L298.370239,322.498188 Z M308.370239,322.498188 L628.400146,3.58726662 L308.370239,322.498188 Z M-2.26818848,153.728789 L152.552246,-0.550315164 L-2.26818848,153.728789 Z M-6.24267578,147.724345 L143.120605,-1.11668727 L-6.24267578,147.724345 Z M-4.80541992,136.327079 L132.552246,-0.550315164 L-4.80541992,136.327079 Z M-1.56103516,73.3038288 L72.5522461,-0.550315164 L-1.56103516,73.3038288 Z M-1.32629395,83.0349432 L82.5522461,-0.550315164 L-1.32629395,83.0349432 Z M-3.08630371,94.7538341 L93.1206055,-1.11668727 L-3.08630371,94.7538341 Z" id="Combined-Shape" stroke="#DEDEDE" stroke-width="1" fill="none" stroke-linecap="square" mask="url(#mask-6)"></path>
                </g>
            </g>
            <g id="Combined-Shape-Clipped" opacity="0.200000003" mask="url(#mask-2)">
                <g transform="translate(-59.000000, -4.982517)">
                    <mask id="mask-8" fill="white">
                        <use xlink:href="#path-7"></use>
                    </mask>
                    <g id="path-7" stroke="none" fill="none"></g>
                    <path d="M-1.32629395,43.1748034 L50.109375,-8.08102054 L-1.32629395,43.1748034 Z M-2.58532715,14.5343295 L13.9897461,-1.98278894 L-2.58532715,14.5343295 Z M-1.90136719,33.782831 L32.9362488,-0.932975182 L-1.90136719,33.782831 Z M-0.760559082,2.75090678 L2.77453613,-0.771827965 L-0.760559082,2.75090678 Z M-2.58532715,24.4993644 L24.4500732,-2.44150655 L-2.58532715,24.4993644 Z M-2.26818848,103.903614 L107.807861,-5.78755412 L-2.26818848,103.903614 Z M-0.9921875,113.170537 L118.383301,-5.78755412 L-0.9921875,113.170537 Z M-4.80541992,126.362044 L121.650879,0.347900391 L-4.80541992,126.362044 Z M-1.87988281,53.6914916 L54.963623,-2.95326073 L-1.87988281,53.6914916 Z M-3.08630371,64.8587292 L64.092041,-2.08472619 L-3.08630371,64.8587292 Z M-2.26818848,163.693824 L167.807861,-5.78755412 L-2.26818848,163.693824 Z M-2.26818848,173.658859 L172.552246,-0.550315164 L-2.26818848,173.658859 Z M-1.90136719,183.258355 L184.092041,-2.08472619 L-1.90136719,183.258355 Z M-1.32629395,192.650328 L193.120605,-1.11668727 L-1.32629395,192.650328 Z M-0.9921875,202.282425 L204.092041,-2.08472619 L-0.9921875,202.282425 Z M-4.12756348,215.371872 L214.450073,-2.44150655 L-4.12756348,215.371872 Z M-4.12756348,225.336907 L222.552246,-0.550315164 L-4.12756348,225.336907 Z M-3.08630371,234.264324 L232.552246,-0.550315164 L-3.08630371,234.264324 Z M-3.08630371,244.229359 L243.120605,-1.11668727 L-3.08630371,244.229359 Z M-2.26818848,253.379138 L254.092041,-2.08472619 L-2.26818848,253.379138 Z M-7.21948242,268.278155 L262.552246,-0.550315164 L-7.21948242,268.278155 Z M-3.08630371,274.124464 L274.092041,-2.08472619 L-3.08630371,274.124464 Z M-4.12756348,285.127117 L283.120605,-1.11668727 L-4.12756348,285.127117 Z M-6.24267578,297.199869 L293.120605,-1.11668727 L-6.24267578,297.199869 Z M-4.80541992,305.732674 L304.450073,-2.44150655 L-4.80541992,305.732674 Z M-3.08630371,313.984604 L314.963623,-2.95326073 L-3.08630371,313.984604 Z M-0.109008789,320.982754 L322,-1.42108547e-14 L-0.109008789,320.982754 Z M9.89099121,320.982754 L328.400146,3.58726662 L9.89099121,320.982754 Z M20.5,320.375874 L338.400146,3.58726662 L20.5,320.375874 Z M30.5,320.375874 L348.400146,3.58726662 L30.5,320.375874 Z M40.5,320.375874 L358.400146,3.58726662 L40.5,320.375874 Z M49.8909912,320.982754 L368.400146,3.58726662 L49.8909912,320.982754 Z M59.8909912,320.982754 L378.400146,3.58726662 L59.8909912,320.982754 Z M67.8081055,323.058357 L388.400146,3.58726662 L67.8081055,323.058357 Z M76.381958,324.479517 L398.400146,3.58726662 L76.381958,324.479517 Z M89.8909912,320.982754 L408.400146,3.58726662 L89.8909912,320.982754 Z M100.5,320.375874 L418.400146,3.58726662 L100.5,320.375874 Z M109.890991,320.982754 L428.400146,3.58726662 L109.890991,320.982754 Z M119.890991,320.982754 L438.400146,3.58726662 L119.890991,320.982754 Z M130.834595,320.042449 L448.400146,3.58726662 L130.834595,320.042449 Z M140.5,320.375874 L458.400146,3.58726662 L140.5,320.375874 Z M148.370239,322.498188 L468.400146,3.58726662 L148.370239,322.498188 Z M159.576294,321.29635 L478.400146,3.58726662 L159.576294,321.29635 Z M170.5,320.375874 L488.400146,3.58726662 L170.5,320.375874 Z M179.576294,321.29635 L498.400146,3.58726662 L179.576294,321.29635 Z M189.576294,321.29635 L508.400146,3.58726662 L189.576294,321.29635 Z M200.5,320.375874 L518.400146,3.58726662 L200.5,320.375874 Z M211.182983,319.695279 L528.400146,3.58726662 L211.182983,319.695279 Z M219.890991,320.982754 L538.400146,3.58726662 L219.890991,320.982754 Z M231.182983,319.695279 L548.400146,3.58726662 L231.182983,319.695279 Z M238.370239,322.498188 L558.400146,3.58726662 L238.370239,322.498188 Z M248.370239,322.498188 L568.400146,3.58726662 L248.370239,322.498188 Z M258.370239,322.498188 L578.400146,3.58726662 L258.370239,322.498188 Z M268.370239,322.498188 L588.400146,3.58726662 L268.370239,322.498188 Z M278.370239,322.498188 L598.400146,3.58726662 L278.370239,322.498188 Z M288.370239,322.498188 L608.400146,3.58726662 L288.370239,322.498188 Z M298.370239,322.498188 L618.400146,3.58726662 L298.370239,322.498188 Z M308.370239,322.498188 L628.400146,3.58726662 L308.370239,322.498188 Z M-2.26818848,153.728789 L152.552246,-0.550315164 L-2.26818848,153.728789 Z M-6.24267578,147.724345 L143.120605,-1.11668727 L-6.24267578,147.724345 Z M-4.80541992,136.327079 L132.552246,-0.550315164 L-4.80541992,136.327079 Z M-1.56103516,73.3038288 L72.5522461,-0.550315164 L-1.56103516,73.3038288 Z M-1.32629395,83.0349432 L82.5522461,-0.550315164 L-1.32629395,83.0349432 Z M-3.08630371,94.7538341 L93.1206055,-1.11668727 L-3.08630371,94.7538341 Z" id="Combined-Shape" stroke="#DEDEDE" stroke-width="1" fill="none" stroke-linecap="square" mask="url(#mask-8)"></path>
                </g>
            </g>
        </g>
    </g>
</svg>