<?xml version="1.0" encoding="UTF-8"?>
<svg width="298px" height="630px" viewBox="0 0 298 630" version="1.1" xmlns="http://www.w3.org/2000/svg" xmlns:xlink="http://www.w3.org/1999/xlink">
    <!-- Generator: sketchtool 52.4 (67378) - http://www.bohemiancoding.com/sketch -->
    <title>64C141B9-70C1-426B-8EE7-BC54C699D185</title>
    <desc>Created with sketchtool.</desc>
    <defs>
        <rect id="path-1" x="0" y="0" width="298" height="628.949402"></rect>
    </defs>
    <g id="Page-1" stroke="none" stroke-width="1" fill="none" fill-rule="evenodd">
        <g id="Page-Strategy" transform="translate(-142.000000, -229.000000)">
            <g id="Color-bckgr">
                <g id="Elements-/-Pattern-1" transform="translate(142.000000, 229.117273)">
                    <g id="Pattern-2">
                        <mask id="mask-2" fill="white">
                            <use xlink:href="#path-1"></use>
                        </mask>
                        <g id="Rectangle"></g>
                        <path d="M-1.32629395,38.9286381 L50.109375,-7.28626651 L-1.32629395,38.9286381 Z M-2.58532715,13.104904 L13.9897461,-1.78778517 L-2.58532715,13.104904 Z M-1.90136719,30.4603494 L32.9362488,-0.841218728 L-1.90136719,30.4603494 Z M-0.760559082,2.48035998 L2.77453613,-0.695920053 L-0.760559082,2.48035998 Z M-2.58532715,22.0898954 L24.4500732,-2.20138871 L-2.58532715,22.0898954 Z M-2.26818848,93.6848782 L107.807861,-5.21835844 L-2.26818848,93.6848782 Z M-0.9921875,102.040416 L118.383301,-5.21835844 L-0.9921875,102.040416 Z M-4.80541992,113.934561 L121.650879,0.313685004 L-4.80541992,113.934561 Z M-1.87988281,48.4110287 L54.963623,-2.66281278 L-1.87988281,48.4110287 Z M-3.08630371,58.4799883 L64.092041,-1.87969706 L-3.08630371,58.4799883 Z M-2.26818848,147.594827 L167.807861,-5.21835844 L-2.26818848,147.594827 Z M-2.26818848,156.579818 L172.552246,-0.496192643 L-2.26818848,156.579818 Z M-1.90136719,165.235221 L184.092041,-1.87969706 L-1.90136719,165.235221 Z M-1.32629395,173.70351 L193.120605,-1.00686306 L-1.32629395,173.70351 Z M-0.9921875,182.388307 L204.092041,-1.87969706 L-0.9921875,182.388307 Z M-4.12756348,194.190431 L214.450073,-2.20138871 L-4.12756348,194.190431 Z M-4.12756348,203.175423 L222.552246,-0.496192643 L-4.12756348,203.175423 Z M-3.08630371,211.224843 L232.552246,-0.496192643 L-3.08630371,211.224843 Z M-3.08630371,220.209834 L243.120605,-1.00686306 L-3.08630371,220.209834 Z M-2.26818848,228.45975 L254.092041,-1.87969706 L-2.26818848,228.45975 Z M-7.21948242,241.893475 L262.552246,-0.496192643 L-7.21948242,241.893475 Z M-3.08630371,247.164809 L274.092041,-1.87969706 L-3.08630371,247.164809 Z M-4.12756348,257.085371 L283.120605,-1.00686306 L-4.12756348,257.085371 Z M-6.24267578,267.970789 L293.120605,-1.00686306 L-6.24267578,267.970789 Z M-4.80541992,275.664408 L304.450073,-2.20138871 L-4.80541992,275.664408 Z M-3.08630371,283.104775 L314.963623,-2.66281278 L-3.08630371,283.104775 Z M-0.109008789,289.414669 L322,-8.8817842e-15 L-0.109008789,289.414669 Z M-3.08630371,301.074758 L328.400146,3.23446531 L-3.08630371,301.074758 Z M-6.24267578,312.895747 L338.400146,3.23446531 L-6.24267578,312.895747 Z M-19.9775391,334.221501 L348.400146,3.23446531 L-19.9775391,334.221501 Z M-9.97753906,334.221501 L358.400146,3.23446531 L-9.97753906,334.221501 Z M-4.80541992,338.559348 L368.400146,3.23446531 L-4.80541992,338.559348 Z M-4.12756348,346.935286 L378.400146,3.23446531 L-4.12756348,346.935286 Z M-13.1708984,364.045706 L388.400146,3.23446531 L-13.1708984,364.045706 Z M-9.97753906,370.161467 L398.400146,3.23446531 L-9.97753906,370.161467 Z M-9.97753906,379.146458 L408.400146,3.23446531 L-9.97753906,379.146458 Z M-2.58532715,381.489554 L418.400146,3.23446531 L-2.58532715,381.489554 Z M-7.21948242,394.63833 L428.400146,3.23446531 L-7.21948242,394.63833 Z M-9.97753906,406.101433 L438.400146,3.23446531 L-9.97753906,406.101433 Z M-7.21948242,412.608313 L448.400146,3.23446531 L-7.21948242,412.608313 Z M-9.97753906,424.071416 L458.400146,3.23446531 L-9.97753906,424.071416 Z M-6.24267578,429.700636 L468.400146,3.23446531 L-6.24267578,429.700636 Z M-7.21948242,439.563287 L478.400146,3.23446531 L-7.21948242,439.563287 Z M-9.97753906,451.02639 L488.400146,3.23446531 L-9.97753906,451.02639 Z M-9.97753906,460.011381 L498.400146,3.23446531 L-9.97753906,460.011381 Z M-4.12756348,463.740175 L508.400146,3.23446531 L-4.12756348,463.740175 Z M-7.21948242,475.503253 L518.400146,3.23446531 L-7.21948242,475.503253 Z M-9.97753906,486.966356 L528.400146,3.23446531 L-9.97753906,486.966356 Z M-9.97753906,495.951347 L538.400146,3.23446531 L-9.97753906,495.951347 Z M-13.1708984,507.805569 L548.400146,3.23446531 L-13.1708984,507.805569 Z M-13.1708984,516.790561 L558.400146,3.23446531 L-13.1708984,516.790561 Z M-13.1708984,525.775552 L369.007812,182.388307 L-13.1708984,525.775552 Z M-16.703125,537.934246 L346.913696,211.224843 L-16.703125,537.934246 Z M-9.97753906,540.876304 L588.400146,3.23446531 L-9.97753906,540.876304 Z M-9.97753906,549.861296 L598.400146,3.23446531 L-9.97753906,549.861296 Z M-13.1708984,561.715518 L608.400146,3.23446531 L-13.1708984,561.715518 Z M-13.1708984,570.700509 L618.400146,3.23446531 L-13.1708984,570.700509 Z M-2.26818848,138.609836 L152.552246,-0.496192643 L-2.26818848,138.609836 Z M-6.24267578,133.195918 L143.120605,-1.00686306 L-6.24267578,133.195918 Z M-4.80541992,122.919553 L132.552246,-0.496192643 L-4.80541992,122.919553 Z M-1.56103516,66.0945272 L72.5522461,-0.496192643 L-1.56103516,66.0945272 Z M-1.32629395,74.8686039 L82.5522461,-0.496192643 L-1.32629395,74.8686039 Z M-3.08630371,85.4349626 L93.1206055,-1.00686306 L-3.08630371,85.4349626 Z M-9.97753906,576.81627 L628.400146,3.23446531 L-9.97753906,576.81627 Z M-9.97753906,585.801262 L628.400146,12.2194568 L-9.97753906,585.801262 Z M-9.97753906,594.786253 L628.400146,21.2044482 L-9.97753906,594.786253 Z M-9.97753906,603.771245 L628.400146,30.1894397 L-9.97753906,603.771245 Z M-9.97753906,612.756236 L628.400146,39.1744311 L-9.97753906,612.756236 Z M-9.97753906,621.741228 L628.400146,48.1594226 L-9.97753906,621.741228 Z M-9.97753906,630.726219 L628.400146,57.144414 L-9.97753906,630.726219 Z M-9.97753906,639.71121 L628.400146,66.1294055 L-9.97753906,639.71121 Z M-9.97753906,648.696202 L628.400146,75.1143969 L-9.97753906,648.696202 Z M-9.97753906,657.681193 L628.400146,84.0993884 L-9.97753906,657.681193 Z M-9.97753906,666.666185 L628.400146,93.0843799 L-9.97753906,666.666185 Z M-9.97753906,675.651176 L628.400146,102.069371 L-9.97753906,675.651176 Z M-9.97753906,684.636168 L628.400146,111.054363 L-9.97753906,684.636168 Z M-9.97753906,693.621159 L628.400146,120.039354 L-9.97753906,693.621159 Z M-9.97753906,702.606151 L628.400146,129.024346 L-9.97753906,702.606151 Z M-9.97753906,711.591142 L628.400146,138.009337 L-9.97753906,711.591142 Z M-9.97753906,720.576134 L628.400146,146.994329 L-9.97753906,720.576134 Z M-9.97753906,729.561125 L628.400146,155.97932 L-9.97753906,729.561125 Z M-9.97753906,738.546116 L628.400146,164.964311 L-9.97753906,738.546116 Z M-9.97753906,747.531108 L628.400146,173.949303 L-9.97753906,747.531108 Z M-9.97753906,756.516099 L628.400146,182.934294 L-9.97753906,756.516099 Z M-9.97753906,765.501091 L628.400146,191.919286 L-9.97753906,765.501091 Z M-9.97753906,774.486082 L628.400146,200.904277 L-9.97753906,774.486082 Z M-9.97753906,783.471074 L628.400146,209.889269 L-9.97753906,783.471074 Z M-9.97753906,792.456065 L628.400146,218.87426 L-9.97753906,792.456065 Z M-9.97753906,801.441057 L628.400146,227.859252 L-9.97753906,801.441057 Z M-9.97753906,810.426048 L628.400146,236.844243 L-9.97753906,810.426048 Z M-9.97753906,819.41104 L628.400146,245.829235 L-9.97753906,819.41104 Z M-9.97753906,828.396031 L628.400146,254.814226 L-9.97753906,828.396031 Z M-9.97753906,837.381022 L628.400146,263.799218 L-9.97753906,837.381022 Z M-9.97753906,846.366014 L628.400146,272.784209 L-9.97753906,846.366014 Z M-9.97753906,855.351005 L628.400146,281.7692 L-9.97753906,855.351005 Z M-9.97753906,864.335997 L628.400146,290.754192 L-9.97753906,864.335997 Z M-9.97753906,873.320988 L628.400146,299.739183 L-9.97753906,873.320988 Z M-9.97753906,882.30598 L628.400146,308.724175 L-9.97753906,882.30598 Z M-9.97753906,891.290971 L628.400146,317.709166 L-9.97753906,891.290971 Z M-9.97753906,900.275963 L628.400146,326.694158 L-9.97753906,900.275963 Z M-9.97753906,909.260954 L628.400146,335.679149 L-9.97753906,909.260954 Z M294.211304,644.93253 L332.100586,610.889043 L294.211304,644.93253 Z" id="Combined-Shape" stroke="#FFFFFF" opacity="0.25" stroke-linecap="square" mask="url(#mask-2)"></path>
                    </g>
                </g>
            </g>
        </g>
    </g>
</svg>