<?xml version="1.0" encoding="UTF-8"?>
<svg width="1278px" height="1080px" viewBox="0 0 1278 1080" version="1.1" xmlns="http://www.w3.org/2000/svg" xmlns:xlink="http://www.w3.org/1999/xlink">
    <!-- Generator: sketchtool 52.4 (67378) - http://www.bohemiancoding.com/sketch -->
    <title>228E723C-5E47-4B1D-A7F3-4C8BEB822EE9</title>
    <desc>Created with sketchtool.</desc>
    <g id="Page-1" stroke="none" stroke-width="1" fill="none" fill-rule="evenodd">
        <g id="Main-page_1920-90_Final-(I-hope)" transform="translate(0.000000, -6454.000000)" fill="#303030">
            <g id="Blue-section" transform="translate(-10.000000, 6454.000000)">
                <g id="Blue-bg">
                    <g id="C" transform="translate(-204.000000, -75.000000)">
                        <path d="M1047.97856,443.625147 C980.093759,405.64379 914.105009,386.637845 850.012312,386.637845 C779.89656,386.637845 716.532232,404.521677 659.873489,440.275347 C603.182911,476.044284 558.448035,525.590273 525.66504,588.898047 C492.837477,652.251622 476.454256,723.379836 476.454256,802.329761 C476.454256,881.324215 492.837477,952.452428 525.66504,1015.76147 C558.448035,1079.11378 603.182911,1129.00836 659.873489,1165.50502 C716.532232,1202.03221 779.89656,1220.24936 850.012312,1220.24936 C909.644382,1220.24936 973.388175,1203.88077 1041.2577,1171.0825 C1109.09793,1138.33004 1169.88368,1093.63382 1223.56909,1036.99511 L1492,1323.055 C1406.98833,1415.46265 1304.45504,1489.21421 1184.43197,1544.32242 C1064.36178,1599.41536 945.429991,1627 827.636597,1627 C671.053706,1627 529.746201,1591.62546 403.744643,1520.84456 C277.713797,1450.09548 178.943326,1352.11034 107.372107,1226.96423 C35.785609,1101.80285 0,961.774107 0,806.800401 C0,654.827902 36.5139785,517.37544 109.601784,394.458284 C182.645022,271.539856 283.311545,175.100492 411.588622,105.048591 C539.818584,35.0259507 683.71995,0 843.306728,0 C961.086116,0 1078.91007,25.3569512 1196.73403,75.9932471 C1314.51341,126.661349 1412.93498,194.439763 1492,279.361568 L1223.56909,598.962713 C1174.35831,533.410713 1115.8188,481.62177 1047.97856,443.625147" id="Fill-1"></path>
                    </g>
                </g>
            </g>
        </g>
    </g>
</svg>