<?xml version="1.0" encoding="UTF-8"?>
<svg width="1288px" height="1259px" viewBox="0 0 1288 1259" version="1.1" xmlns="http://www.w3.org/2000/svg" xmlns:xlink="http://www.w3.org/1999/xlink">
    <!-- Generator: sketchtool 52.4 (67378) - http://www.bohemiancoding.com/sketch -->
    <title>AF80E062-70E4-4C7B-A604-6E66405ADFEC</title>
    <desc>Created with sketchtool.</desc>
    <defs>
        <path d="M947.842723,1261.21568 C985.247718,1232.5156 1004,1193.45161 1004,1144.0237 C1004,1097.78469 985.247718,1061.51098 947.842723,1035.20257 C910.404538,1008.89417 859.823161,996.57041 796.098592,998.131641 L495,998.131641 L495,1301.87412 L796.098592,1301.87412 C859.823161,1303.46857 910.404538,1289.91576 947.842723,1261.21568 M914.005181,617.621849 C942.668394,591.369748 957,555.969188 957,511.420168 C957,468.462185 942.668394,434.685808 914.005181,409.991597 C885.341969,385.363679 846.294977,373 796.963731,373 L496,373 L496,657 L796.963731,657 C846.294977,657 885.341969,643.87395 914.005181,617.621849 M1161.80787,51.3730385 C1258.99042,85.6217309 1333.92756,134.638512 1386.51969,198.323823 C1439.11181,262.075507 1465.40787,336.911555 1465.40787,422.964713 C1465.40787,507.358535 1439.87546,582.22777 1388.91024,647.53923 C1337.87861,712.883876 1268.55262,758.283306 1180.96549,783.737518 C1282.92913,804.479216 1364.6063,853.429624 1425.96378,930.688302 C1487.28806,1007.94698 1518,1099.97375 1518,1206.66904 C1518,1300.68701 1490.87388,1383.12282 1436.72126,1453.97646 C1382.53543,1524.89648 1305.60617,1579.42225 1206.03307,1617.68654 C1106.39357,1655.88445 990.485039,1675 858.207874,1675 L0,1675 L0,0 L822.349606,0 C951.43937,0 1064.59213,17.1243462 1161.80787,51.3730385" id="path-1"></path>
    </defs>
    <g id="Page-1" stroke="none" stroke-width="1" fill="none" fill-rule="evenodd">
        <g id="Main-page_1920-90_Final-(I-hope)" transform="translate(0.000000, -5195.000000)">
            <g id="Red-section" transform="translate(-10.000000, 5017.000000)">
                <g id="Red-bckgr">
                    <g id="B" transform="translate(-220.000000, 178.000000)">
                        <mask id="mask-2" fill="white">
                            <use xlink:href="#path-1"></use>
                        </mask>
                        <use id="Fill-1" fill="#303030" xlink:href="#path-1"></use>
                    </g>
                </g>
            </g>
        </g>
    </g>
</svg>