<?xml version="1.0" encoding="UTF-8"?>
<svg width="1234px" height="1630px" viewBox="0 0 1234 1630" version="1.1" xmlns="http://www.w3.org/2000/svg" xmlns:xlink="http://www.w3.org/1999/xlink">
    <!-- Generator: sketchtool 52.4 (67378) - http://www.bohemiancoding.com/sketch -->
    <title>157D7088-2439-4BC6-97FA-D282CBBEE40E</title>
    <desc>Created with sketchtool.</desc>
    <g id="Page-1" stroke="none" stroke-width="1" fill="none" fill-rule="evenodd">
        <g id="Main-page_1920-90_Final-(I-hope)" transform="translate(0.000000, -7718.000000)" fill="#303030">
            <g id="Purple-section" transform="translate(-10.000000, 7534.000000)">
                <g id="Purple-bckgr">
                    <g id="P" transform="translate(-185.000000, 184.000000)">
                        <path d="M901.600577,774.761855 C941.873887,735.291553 962,678.400998 962,604.121826 C962,531.481538 941.873887,475.778488 901.600577,437.048531 C861.329376,398.381852 804.075581,379 729.862383,379 L493,379 L493,834 L729.862383,834 C804.075581,834 861.329376,814.263795 901.600577,774.761855 M1252.44054,154.006495 C1370.13138,256.719671 1429,402.01594 1429,589.992316 C1429,787.482451 1370.13138,940.685412 1252.44054,1049.66658 C1134.73493,1158.67938 968.443573,1213.15309 753.602315,1213.15309 L492.925838,1215.53205 L492.925838,1661 L0,1661 L0,0 L753.602315,0 C968.443573,0 1134.73493,51.3228441 1252.44054,154.006495" id="Fill-1"></path>
                    </g>
                </g>
            </g>
        </g>
    </g>
</svg>