<?xml version="1.0" encoding="UTF-8"?>
<svg width="145px" height="47px" viewBox="0 0 145 47" version="1.1" xmlns="http://www.w3.org/2000/svg" xmlns:xlink="http://www.w3.org/1999/xlink">
    <!-- Generator: sketchtool 52.4 (67378) - http://www.bohemiancoding.com/sketch -->
    <title>AC3B03B4-C13E-494B-8B4B-5B057327242F</title>
    <desc>Created with sketchtool.</desc>
    <defs>
        <polygon id="path-1" points="0.352457294 0.454333333 42.9965811 0.454333333 42.9965811 47 0.352457294 47"></polygon>
        <polygon id="path-3" points="0 48 145 48 145 1 0 1"></polygon>
    </defs>
    <g id="Page-1" stroke="none" stroke-width="1" fill="none" fill-rule="evenodd">
        <g id="Logos-b&amp;w" transform="translate(-869.000000, -96.000000)">
            <g id="Platforms-logos" transform="translate(87.000000, 96.000000)">
                <g id="Baidu" transform="translate(782.000000, 0.000000)">
                    <g id="Group-3" transform="translate(50.000000, 0.000000)">
                        <mask id="mask-2" fill="white">
                            <use xlink:href="#path-1"></use>
                        </mask>
                        <g id="Clip-2"></g>
                        <path d="M37.3348803,33.0740306 C37.3348803,33.0740306 31.5676682,28.6044611 28.2012894,23.7706417 C23.6322136,16.6436139 17.1457288,19.5465167 14.9774864,23.1655167 C12.8151076,26.7936556 9.45524394,29.0849056 8.97442576,29.6926417 C8.48904697,30.2886278 2.00777424,33.7973083 3.44566818,40.2030167 C4.8868197,46.6041556 9.94062273,46.4840444 9.94062273,46.4840444 C9.94062273,46.4840444 13.6653348,46.8476417 17.9848803,45.8808778 C22.3128955,44.9160722 26.0376076,46.1184889 26.0376076,46.1184889 C26.0376076,46.1184889 36.1347894,49.5116278 38.8946076,42.98385 C41.6576833,36.4612944 37.3348803,33.0740306 37.3348803,33.0740306 M42.9770015,20.3866417 C42.9770015,18.9413917 41.7827742,14.5854056 37.3348803,14.5854056 C32.8791682,14.5854056 32.2888955,18.6966 32.2888955,21.6014611 C32.2888955,24.3744611 32.5201833,28.2408639 38.0535015,28.1207528 C43.5829106,27.9980306 42.9770015,21.8423361 42.9770015,20.3866417 M28.2012894,15.3099889 C31.9312136,15.7995722 34.3229258,11.8124056 34.8011379,8.79069722 C35.2897742,5.77290556 32.8791682,2.26291944 30.2437894,1.65975278 C27.5966833,1.05005833 24.2921985,5.29637778 23.9944561,8.06546111 C23.6322136,11.4540306 24.4752742,14.8315028 28.2012894,15.3099889 M16.1847439,14.8373778 C18.9719258,14.8373778 21.2248652,11.6185306 21.2248652,7.64311389 C21.2248652,3.66769722 18.9719258,0.454072222 16.1847439,0.454072222 C13.3962591,0.454072222 11.1374561,3.66769722 11.1374561,7.64311389 C11.1374561,11.6185306 13.3962591,14.8373778 16.1847439,14.8373778 M6.80813788,24.98285 C11.8573803,23.895975 11.1687288,17.8434194 11.0201833,16.5208917 C10.7719561,14.4809611 8.37894091,10.9194056 5.13113788,11.2033639 C1.0428803,11.5682667 0.446092424,17.4856972 0.446092424,17.4856972 C-0.107695455,20.2254056 1.76736515,26.0723361 6.80813788,24.98285" id="Fill-1" fill="#424242" mask="url(#mask-2)"></path>
                    </g>
                    <path d="M67.0594819,40.3824613 L64.4883501,40.3824613 C64.4883501,40.3824613 62.6971748,40.2855154 62.1522824,38.1540162 C61.8709659,37.2081389 62.1940997,36.1174977 62.3360252,35.6891018 C62.4659123,35.2593957 63.0671947,34.2663555 64.3071417,33.8844674 L67.0594819,33.8844674 L67.0594819,40.3824613 Z M67.1108031,27 L67.1108031,31.3154016 L63.7096609,31.3154016 C63.7096609,31.3154016 60.3104194,31.6075493 59.1205265,35.5908458 C58.7048877,38.248997 59.4867449,39.816507 59.622968,40.1505773 C59.7598247,40.4846475 60.8591134,42.4307705 63.6171559,43 L70,43 L70,27.0471629 L67.1108031,27 Z" id="Fill-4" fill="#FFFFFF"></path>
                    <path d="M71,32.047815 L71,40.2235424 C71,40.2235424 71.1417004,42.2598238 74.1781377,43 L82,43 L82,32.047815 L78.6241565,32.047815 L78.6241565,40.2700823 L75.4014845,40.2700823 C75.4014845,40.2700823 74.3711201,40.129825 74.1781377,39.3462965 L74.1781377,32 L71,32.047815 Z" id="Fill-6" fill="#FFFFFF"></path>
                    <mask id="mask-4" fill="white">
                        <use xlink:href="#path-3"></use>
                    </mask>
                    <g id="Clip-9"></g>
                    <path d="M99.715716,36.0038722 L113.51649,36.0038722 L113.51649,32.0371897 L99.715716,32.0371897 L99.715716,36.0038722 Z M113.539066,43.1262501 C113.539066,43.1262501 113.297184,43.7286403 112.955326,43.7286403 L99.717006,43.7286403 L99.717006,39.4978689 L113.539066,39.4978689 L113.539066,43.1262501 Z M118,26.614341 L118,23 L95.0296708,23 L95,26.6678274 L104.873913,26.6678274 L103.94896,28.8614369 L95.5521342,28.8614369 L95.5521342,47 L115.500561,47 C117.587189,47 117.402715,44.8170878 117.402715,44.8170878 L117.402715,28.8614369 L108.991699,28.8614369 L109.730888,26.614341 L118,26.614341 Z" id="Fill-8" fill="#5B5B5B" mask="url(#mask-4)"></path>
                    <path d="M137.957356,38.7737882 L134.620374,40.5339942 L131.561691,38.7737882 L137.957356,38.7737882 Z M125.817556,38.81672 L131.651422,42.2024822 C131.189759,42.7111597 129.196153,43.355788 129.196153,43.355788 L125.305825,43.355788 L125.305825,45.9583691 L130.586995,45.9583691 C132.163154,45.6350792 135.080087,44.1519788 135.080087,44.1519788 C136.288215,45.2610517 138.607586,45.7228944 138.607586,45.7228944 L144.627418,45.7228944 L144.627418,43.1268181 L140.088811,43.1268181 C138.866378,42.9440325 137.767488,42.2473655 137.767488,42.2473655 L144.627418,38.3067416 L144.627418,36.172508 L125.817556,36.172508 L125.817556,38.81672 Z M138.655053,32.047147 C138.655053,32.047147 138.328637,32.648193 137.91184,32.648193 L131.07987,32.648193 L131.07987,30.1919704 L138.655053,30.1919704 L138.655053,32.047147 Z M142.3178,27.6036999 L142.3178,26.2552494 L138.655053,26.2552494 L138.655053,27.6036999 L131.120834,27.6036999 L131.120834,26.3027346 L127.650555,26.3027346 L127.650555,27.6036999 L125.305825,27.6036999 L125.351991,30.2433586 L127.650555,30.2433586 L127.650555,35.2019879 L140.325494,35.2019879 C142.084367,35.2019879 142.3178,33.3461609 142.3178,33.3461609 L142.3178,30.2433586 L145,30.2433586 L145,27.6036999 L142.3178,27.6036999 Z M144.767218,22.780371 L135.68285,22.780371 L135.68285,21 L131.421891,21 L131.421891,22.6925559 L121,22.6925559 L121,46 L124.748578,46 L124.748578,25.6990867 L144.767218,25.6990867 L144.767218,22.780371 Z" id="Fill-10" fill="#5B5B5B" mask="url(#mask-4)"></path>
                    <path d="M43,46 L48,46 L48,28.4305219 L43,28.4305219 L43,46 Z M43,26.4788663 L48,26.4788663 L48,22 L43,22 L43,26.4788663 Z" id="Fill-11" fill="#5B5B5B" mask="url(#mask-4)"></path>
                    <path d="M36.1260841,43.4523015 L29.2099956,43.4523015 C28.2806666,43.0693796 27.9711079,42.436958 27.9058002,42.2781855 C27.8417986,42.1220814 27.6262831,41.5550367 27.8770648,40.9806538 C28.4374051,39.8739159 29.3641218,39.6190794 29.3641218,39.6190794 L36.1260841,39.6190794 L36.1260841,43.4523015 Z M35.1993675,29.0286858 L24.3687336,29 L24.3687336,32.7671781 L33.8657836,32.7671781 C33.8657836,32.7671781 36.1260841,33.3368913 36.1260841,34.8018679 L36.1260841,36.1294196 L27.53224,36.1294196 C27.53224,36.1294196 24.152565,36.4469646 23.0671505,40.5723816 C22.8803704,42.503002 23.1291929,43.4523015 23.2565429,43.8038692 C23.3780153,44.1541027 24.3687336,46.4302869 27.3160714,47 L41,47 L41,34.1627752 C41,34.1627752 40.3482289,29.7585057 35.1993675,29.0286858 Z" id="Fill-12" fill="#5B5B5B" mask="url(#mask-4)"></path>
                    <path d="M15.755719,30.7632324 C15.755719,30.7632324 15.1826869,31.8214536 13.6621527,32.0490281 L5.42048441,32.0490281 L5.42048441,26.8757254 L13.6268379,26.8757254 C13.6268379,26.8757254 15.4092345,26.7927276 15.9995908,28.2157373 C15.9995908,28.2157373 16.3540712,29.7277687 15.755719,30.7632324 M13.9473362,42.3527959 L13.9473362,42.3641746 L5.42048441,42.3641746 L5.42048441,36.9706602 L13.9060245,36.9706602 L14.1925406,37.0288925 C14.1925406,37.0288925 15.8070254,37.3260779 16.3920512,38.7838931 C16.3920512,38.7838931 16.73054,40.1540251 15.9995908,41.1734248 C15.9995908,41.1734248 15.4625398,42.1151814 13.9473362,42.3527959 M21.9904421,40.4097117 C22.1436949,36.0315809 18.2337499,34.5182108 18.2337499,34.5182108 C21.5433438,32.7799436 21.1228981,28.3971275 21.1228981,28.3971275 C20.7644199,21.689036 12.6060411,22.0022855 12.6060411,22.0022855 L0,22.0022855 L0,47 L14.2338522,47 C22.5927922,46.9665332 21.9904421,40.4097117 21.9904421,40.4097117" id="Fill-13" fill="#5B5B5B" mask="url(#mask-4)"></path>
                </g>
            </g>
        </g>
    </g>
</svg>