<?xml version="1.0" encoding="UTF-8"?>
<svg width="156px" height="40px" viewBox="0 0 156 40" version="1.1" xmlns="http://www.w3.org/2000/svg" xmlns:xlink="http://www.w3.org/1999/xlink">
    <!-- Generator: sketchtool 52.4 (67378) - http://www.bohemiancoding.com/sketch -->
    <title>96A80647-E914-4103-B7B0-47C74C2AAF9A</title>
    <desc>Created with sketchtool.</desc>
    <defs>
        <polygon id="path-1" points="0 0.07905 27.94425 0.07905 27.94425 40 0 40"></polygon>
        <polygon id="path-3" points="0.00735 0.0198739726 9.9055 0.0198739726 9.9055 17.7604767 0.00735 17.7604767"></polygon>
    </defs>
    <g id="Page-1" stroke="none" stroke-width="1" fill="none" fill-rule="evenodd">
        <g id="Logos-b&amp;w" transform="translate(-496.000000, -109.000000)">
            <g id="Platforms-logos" transform="translate(87.000000, 96.000000)">
                <g id="Bing" transform="translate(409.000000, 13.000000)">
                    <path d="M96.2748887,24.551469 L96.2748887,22.0807103 C96.2748887,20.7274409 95.803047,19.5845485 94.8621184,18.6515399 C93.9201881,17.7192712 92.7954317,17.2528902 91.48835,17.2528902 C89.7938271,17.2528902 88.4722195,17.8578783 87.5255307,19.0693344 C86.5775897,20.2800506 86.1042453,21.9665197 86.1042453,24.1260289 C86.1042453,25.9585042 86.5590566,27.436816 87.4676775,28.5609643 C88.3752966,29.684866 89.5884608,30.246447 91.1061682,30.246447 C92.6243765,30.246447 93.8645889,29.7144619 94.828809,28.6507384 C95.7930291,27.5870148 96.2748887,26.2201807 96.2748887,24.551469 Z M99,30.7865709 C99,36.9284459 96.0086638,40 90.0269931,40 C87.9437768,40 86.1042453,39.6125412 84.5091498,38.838117 L85.2224222,36.5207633 C86.8954066,37.37263 88.2365491,37.7253137 89.9766533,37.7253137 C94.1746421,37.7253137 96.2748887,35.5381817 96.2748887,31.1631779 L96.2748887,29.3134384 L96.2077689,29.3134384 C94.9114565,31.4630823 92.9617283,32.5376576 90.358835,32.5376576 C88.9853849,32.5376576 87.7599489,32.1992786 86.686534,31.5225206 C85.6111156,30.8469957 84.7803837,29.8814317 84.1935869,28.6263218 C83.6052874,27.3719518 83.3125151,25.9259488 83.3125151,24.2890526 C83.3125151,21.4310818 84.018775,19.162068 85.4317957,17.481518 C86.8438146,15.8012147 88.7354391,14.9611863 91.1061682,14.9611863 C93.4000102,14.9611863 95.1002933,15.8675587 96.2077689,17.6775904 L96.2748887,17.6775904 L96.2748887,15.370102 L99,15.370102 L99,30.7865709 Z M79.7609295,21.8678669 C79.7609295,19.6642106 79.2700538,17.9622037 78.2908069,16.761846 C77.309306,15.5619817 75.8832621,14.9616796 74.0111725,14.9616796 C71.5625544,14.9616796 69.7007331,16.0249098 68.4272113,18.1526035 L68.3605924,18.1526035 L68.3605924,15.370102 L65.6349802,15.370102 L65.6349802,32.1284952 L68.3605924,32.1284952 L68.3605924,22.5705213 C68.3605924,21.022166 68.8123984,19.7488054 69.7147581,18.7496994 C70.6181196,17.7520732 71.7401211,17.2528902 73.0802618,17.2528902 C75.7169654,17.2528902 77.0358181,19.0259272 77.0358181,22.5705213 L77.0358181,32.1284952 L79.7609295,32.1284952 L79.7609295,21.8678669 Z M58.3657627,32.120603 L61.0911244,32.120603 L61.0911244,15.3631963 L58.3657627,15.3631963 L58.3657627,32.120603 Z M61.556705,9.73505565 C61.556705,9.25535654 61.384648,8.84644079 61.0420369,8.50806178 C60.6981734,8.16918951 60.271913,8 59.7625043,8 C59.2520938,8 58.8280874,8.17214909 58.4912365,8.51546074 C58.1518811,8.85951229 57.9838313,9.26620834 57.9838313,9.73505565 C57.9838313,10.2586552 58.1553874,10.6821223 58.4990003,11.003237 C58.8423629,11.3250917 59.2631134,11.4856491 59.7625043,11.4856491 C60.2486215,11.4856491 60.6701234,11.3199124 61.0255074,10.987206 C61.3791382,10.6540062 61.556705,10.236705 61.556705,9.73505565 Z M42.8102632,21.1237784 L42.8102632,29.6246879 L46.624818,29.6246879 C48.2750118,29.6246879 49.5552957,29.2394488 50.4634157,28.4711903 C51.3727879,27.7021919 51.8270983,26.6478404 51.8270983,25.3081358 C51.8270983,22.5192219 49.8979069,21.1237784 46.0392734,21.1237784 L42.8102632,21.1237784 Z M42.8102632,11.0094028 L42.8102632,18.6360021 L45.6871453,18.6360021 C47.226892,18.6360021 48.4365499,18.2709868 49.3181226,17.5404631 C50.1986934,16.8104325 50.6397302,15.7804976 50.6397302,14.452138 C50.6397302,12.1567346 49.1062446,11.0094028 46.0392734,11.0094028 L42.8102632,11.0094028 Z M40,32.1282486 L40,8.50534883 L46.8251754,8.50534883 C48.8998765,8.50534883 50.5445604,9.00453186 51.7607299,10.0041311 C52.9756472,11.003237 53.5839824,12.3049604 53.5839824,13.9088078 C53.5839824,15.2485125 53.2153248,16.4123686 52.4795122,17.4006227 C51.7434491,18.3893702 50.7286388,19.0927644 49.4355821,19.5093258 L49.4355821,19.5746832 C51.052216,19.7618769 52.3460241,20.3631655 53.3165053,21.3787958 C54.2867361,22.3946728 54.7713506,23.7161266 54.7713506,25.3409378 C54.7713506,27.3620865 54.0352875,28.9979961 52.5636623,30.2496532 C51.0910353,31.5025434 49.2344734,32.1282486 46.9924739,32.1282486 L40,32.1282486 Z" id="Fill-1" fill="#5D5D5D"></path>
                    <g id="Group-5">
                        <mask id="mask-2" fill="white">
                            <use xlink:href="#path-1"></use>
                        </mask>
                        <g id="Clip-4"></g>
                        <polygon id="Fill-3" fill="#5D5D5D" mask="url(#mask-2)" points="10.23875 13.24405 13.7025 21.8828 19.23 24.45805 7.98325 30.93205 7.98325 2.8738 0 0.07905 0 35.52705 7.98475 40.00005 27.94425 28.51755 27.94425 19.4408"></polygon>
                    </g>
                    <path d="M111.65505,27.0894535 C111.65505,28.1617279 112.007248,29.0143437 112.712663,29.6452994 C113.417822,30.2765053 114.367713,30.5922333 115.562079,30.5922333 C117.256602,30.5922333 118.658517,29.9745372 119.767317,28.7403958 C120.876371,27.5057542 121.430516,25.932618 121.430516,24.0219881 L121.430516,22.3462779 L116.619437,23.033274 C114.67509,23.3237338 113.361287,23.7623006 112.679047,24.3489743 C111.996298,24.9358981 111.65505,25.8490577 111.65505,27.0894535 Z M121.430516,31.5809474 L121.430516,28.145216 L121.362267,28.145216 C120.80532,29.318063 119.989128,30.2542392 118.913944,30.9524935 C117.839524,31.6502474 116.664766,32 115.3912,32 C113.787847,32 112.48856,31.5529271 111.493085,30.6590315 C110.497865,29.7653861 110,28.5975427 110,27.1565019 C110,24.1510813 112.018963,22.3407739 116.056378,21.7258298 L121.430516,20.9385111 C121.430516,17.251098 120.019942,15.4077667 117.200067,15.4077667 C115.277621,15.4077667 113.406617,16.1673153 111.586801,17.6869128 L111.586801,15.8265692 C112.223711,15.334714 113.114265,14.9074053 114.256935,14.5443932 C115.399859,14.1816312 116.43226,14 117.353373,14 C119.161475,14 120.554987,14.5443932 121.532891,15.6336799 C122.511303,16.7232168 123,18.3181186 123,20.4186357 L123,31.5809474 L121.430516,31.5809474 Z" id="Fill-6" fill="#5D5D5D"></path>
                    <path d="M140.454691,22.0668682 C140.454691,20.4023423 139.930896,19.0241783 138.883807,17.9333837 C137.836718,16.8418335 136.490246,16.2965621 134.84414,16.2965621 C133.018755,16.2965621 131.523845,17.0047853 130.35941,18.422239 C129.194724,19.8394409 128.612256,21.7351719 128.612256,24.1079209 C128.612256,26.3920161 129.121759,28.208412 130.141016,29.5578642 C131.160022,30.908072 132.543102,31.5827981 134.290006,31.5827981 C136.137706,31.5827981 137.626849,31.0007556 138.758187,29.8366704 C139.889023,28.6720816 140.454691,27.1566553 140.454691,25.2891324 L140.454691,22.0668682 Z M140.454691,32.5781388 L140.454691,29.439995 L140.387242,29.439995 C139.816308,30.5307896 138.978838,31.3969273 137.876084,32.0381564 C136.773331,32.6793855 135.543955,33 134.188957,33 C132.039115,33 130.303245,32.2124418 128.982097,30.637829 C127.660448,29.0634681 127,26.9319985 127,24.2436721 C127,22.4549805 127.327215,20.846367 127.982398,19.4175796 C128.637581,17.9897998 129.566571,16.8758343 130.771376,16.0771943 C131.974425,15.2788062 133.343714,14.8791084 134.877489,14.8791084 C137.453087,14.8791084 139.290006,15.9424506 140.387242,18.0681274 L140.454691,18.0681274 L140.454691,7 L142,7 L142,32.5781388 L140.454691,32.5781388 Z" id="Fill-8" fill="#5D5D5D"></path>
                    <g id="Group-12" transform="translate(146.000000, 15.000000)">
                        <mask id="mask-4" fill="white">
                            <use xlink:href="#path-3"></use>
                        </mask>
                        <g id="Clip-11"></g>
                        <path d="M0.00735,16.6040384 L0.00735,14.7705041 C0.5211,15.2108877 1.19935,15.5883945 2.04235,15.9017918 C2.8851,16.2156822 3.6251,16.3729973 4.26135,16.3729973 C6.95235,16.3729973 8.29785,15.2880658 8.29785,13.1186959 C8.29785,12.4139836 8.0266,11.7997644 7.48535,11.2767781 C6.9436,10.7540384 5.9586,10.1837096 4.52935,9.56702466 C2.97735,8.91729863 1.84685,8.22121644 1.1381,7.47779178 C0.4291,6.73436712 0.0746,5.7845589 0.0746,4.62812055 C0.0746,3.28477808 0.6021,2.18086027 1.6571,1.31612055 C2.7121,0.452120548 4.0321,0.0198739726 5.61785,0.0198739726 C7.08035,0.0198739726 8.3421,0.316750685 9.4031,0.911490411 L9.4031,2.62938082 C8.1191,1.81494247 6.80135,1.40735342 5.45035,1.40735342 C4.33385,1.40735342 3.42635,1.69929863 2.7286,2.28269589 C2.03135,2.8665863 1.68235,3.61518904 1.68235,4.52899726 C1.68235,5.17872329 1.7851,5.68543562 1.9921,6.04839452 C2.19835,6.41233973 2.54985,6.76198356 3.04685,7.09781918 C3.5436,7.43365479 4.2666,7.80524384 5.2156,8.21233973 C7.0471,9.01642192 8.2861,9.75984658 8.9341,10.4423671 C9.5816,11.1256274 9.9056,12.0172438 9.9056,13.1186959 C9.9056,14.5061753 9.38035,15.6266137 8.3311,16.480011 C7.28135,17.3339014 5.88585,17.7604767 4.1441,17.7604767 C2.4806,17.7604767 1.1016,17.3745863 0.00735,16.6040384" id="Fill-10" fill="#5D5D5D" mask="url(#mask-4)"></path>
                    </g>
                </g>
            </g>
        </g>
    </g>
</svg>