<?xml version="1.0" encoding="UTF-8"?>
<svg width="187px" height="23px" viewBox="0 0 187 23" version="1.1" xmlns="http://www.w3.org/2000/svg" xmlns:xlink="http://www.w3.org/1999/xlink">
    <!-- Generator: sketchtool 52.4 (67378) - http://www.bohemiancoding.com/sketch -->
    <title>F13BFF67-CA25-4416-A0EF-343CC20AD6FF</title>
    <desc>Created with sketchtool.</desc>
    <defs>
        <polygon id="path-1" points="3.25e-05 0.0600555556 25.93227 0.0600555556 25.93227 22.4786028 3.25e-05 22.4786028"></polygon>
        <polygon id="path-3" points="0.5588017 0.484533333 28.6467273 0.484533333 28.6467273 23 0.5588017 23"></polygon>
    </defs>
    <g id="Page-1" stroke="none" stroke-width="1" fill="none" fill-rule="evenodd">
        <g id="Logos-b&amp;w" transform="translate(-100.000000, -320.000000)">
            <g id="Clients" transform="translate(100.000000, 296.000000)">
                <g id="Daimler" transform="translate(0.000000, 24.000000)">
                    <g id="Group-3">
                        <mask id="mask-2" fill="white">
                            <use xlink:href="#path-1"></use>
                        </mask>
                        <g id="Clip-2"></g>
                        <path d="M21.49017,11.8883806 C21.49017,5.63174167 18.17452,1.98240833 11.80972,1.98240833 L8.39527,1.98240833 L8.39527,18.3731028 C8.39527,20.3606861 9.12457,20.6852417 12.20752,20.6852417 C17.87617,20.6852417 21.49017,18.8944361 21.49017,11.8883806 M2.42827,1.754325 L0.83707,1.754325 C0.60502,0.353241667 0.73762,0.0599916667 5.51057,0.0599916667 L12.24067,0.0599916667 C21.78852,0.0599916667 25.93227,4.29646389 25.93227,11.2686583 C25.93227,17.9814639 22.02057,22.4786028 12.53902,22.4786028 L0.07462,22.4786028 C-0.02483,22.1527694 -0.02483,21.6314361 0.07462,21.2078528 C3.62167,21.0123528 4.25152,20.7836306 4.25152,18.5999083 L4.25152,3.220575 C4.25152,1.95046389 3.92002,1.754325 2.42827,1.754325" id="Fill-1" fill="#292929" mask="url(#mask-2)"></path>
                    </g>
                    <path d="M42.8966473,12.8574554 L39.2191338,4.45852647 L35.7116061,12.8574554 L42.8966473,12.8574554 Z M42.0196,0 C42.1207978,0.711312009 42.3569259,1.26047275 42.8966473,2.3904644 L50.6895365,19.4157142 C51.060595,20.2556071 51.4316534,20.5463392 53.151354,20.5463392 L53.9278649,20.5463392 C54.1302605,21.4825094 53.9278649,22 53.0508176,22 L42.1207978,22 C42.0196,21.6769643 42.0196,21.1594737 42.1207978,20.7401607 C45.7976499,20.6426165 46.1693698,20.3518844 45.7976499,19.5119915 L43.6724968,14.634152 L34.9694892,14.634152 L33.5864531,18.154608 C32.8106036,20.0611522 32.8106036,20.5463392 34.6658959,20.5463392 L37.566237,20.5463392 C37.8030266,21.4825094 37.566237,22 36.7235838,22 L27.0754023,22 C26.9748659,21.6769643 26.9748659,21.1594737 27.0754023,20.7401607 C29.6734729,20.4164915 29.9764048,20.2220367 30.8878461,18.154608 L37.566237,3.00486569 C38.6800739,0.516857168 39.1185975,0 40.7040291,0 L42.0196,0 Z" id="Fill-4" fill="#292929"></path>
                    <path d="M67.6760664,0 C67.7822156,0.296398485 67.7822156,0.955061786 67.6760664,1.28374769 C64.597739,1.48199243 64.1370653,2.10772256 64.1370653,3.49026975 L64.1370653,19.1341689 C64.1370653,20.2868297 64.4915898,20.5180076 65.9776788,20.5180076 L67.8883648,20.5180076 C68.1360463,21.4724236 68.0298971,22 66.9684049,22 L56.2119506,22 C56.0697246,21.6706683 56.0697246,21.1437377 56.2119506,20.7162523 C59.0419027,20.2868297 59.7141811,19.9581438 59.7141811,18.6072383 L59.7141811,2.86453961 C59.7141811,1.67894567 59.3957334,1.48199243 57.7681121,1.48199243 L56.0697246,1.48199243 C55.8574261,0.625730136 56.0697246,0 57.5558136,0 L67.6760664,0 Z" id="Fill-6" fill="#292929"></path>
                    <path d="M106.361092,0 C106.495675,0.425586628 106.495675,0.852459016 106.361092,1.27804564 C103.247965,1.47540984 103.04642,1.99935712 103.147521,2.95081967 L104.754635,18.9514626 C104.854423,20 105.390128,20.0977178 107.968863,20.4268724 C108.069308,21.3770492 107.968863,21.9022822 107.03138,21.9022822 L95.2123944,21.9022822 C95.0784682,21.4754098 95.0784682,21.0498232 95.2123944,20.6242366 L97.0210543,20.5245902 C99.8335041,20.3612986 100.301589,20 100.133525,18.3940855 L98.6281685,4.09836066 L90.5919411,20.6242366 C89.9886168,21.8039216 89.7207644,22 88.9506889,22 L79.7097823,4.09836066 L78.6383729,18.8196721 C78.5379282,20.0977178 78.5379282,20.4268724 82.0869721,20.4268724 L83.8949755,20.4268724 C84.1293463,21.3770492 83.9954202,21.9022822 83.0572804,21.9022822 L72.0753335,21.9022822 C71.9748888,21.4754098 71.9748888,21.0498232 72.0753335,20.6242366 C75.7583035,20.4268724 76.0602939,19.7711347 76.160082,18.3940855 L77.5334819,2.98360656 C77.63327,1.93442623 77.4330372,1.57312761 74.1177077,1.47540984 C73.9168185,0.721311475 74.1177077,0 75.5239327,0 L82.2878613,0 L90.6917292,15.7711347 L98.4266227,0 L106.361092,0 Z" id="Fill-8" fill="#292929"></path>
                    <path d="M124.918578,0 C125.022382,0.296398485 125.022382,0.955061786 124.918578,1.28374769 C121.261519,1.48199243 120.564936,1.77839091 120.564936,3.91840089 L120.564936,18.4761513 C120.564936,19.5616543 121.157031,19.8593443 122.132247,19.8593443 L124.361312,19.8593443 C126.93935,19.8593443 127.286276,19.6946784 128.749099,16.7306936 L129.724315,14.6888374 C130.735726,14.6559042 131.256797,15.0504564 130.874359,16.0720303 C130.142947,18.0473744 129.516023,19.9581438 129.062561,22 L112.065945,22 C111.996287,21.5712231 111.961458,21.1437377 112.065945,20.7162523 C115.444371,20.5180076 116.211295,20.0892307 116.211295,17.948575 L116.211295,2.86453961 C116.211295,1.67894567 115.757833,1.48199243 114.294327,1.48199243 L112.623211,1.48199243 C112.414919,0.625730136 112.623211,0 114.086718,0 L124.918578,0 Z" id="Fill-10" fill="#292929"></path>
                    <path d="M151.896132,0 C151.993816,1.48199243 152.189825,3.02920544 152.419252,4.44597728 C152.583772,5.46755115 152.189825,6.0267692 151.141657,5.92796971 L150.714935,4.44597728 C150.157755,2.43640847 149.470116,1.90947782 147.667473,1.90947782 L142.42342,1.90947782 L142.42342,10.373947 L145.864829,10.373947 C146.848089,10.373947 147.044741,10.0446153 147.143067,9.18835305 L147.372495,7.50876163 L147.765156,7.50876163 C148.420662,7.50876163 148.781834,7.73929379 148.71564,8.75957615 C148.617314,10.8350113 148.617314,13.1080454 148.71564,15.2487012 C148.420662,15.3797881 147.929675,15.4127212 147.569147,15.2487012 C147.143067,12.6792685 146.716988,12.3828701 145.864829,12.3828701 L142.42342,12.3828701 L142.42342,18.1797529 C142.42342,19.3653468 142.718398,19.8593443 144.94712,19.8593443 L147.765156,19.8593443 C150.191815,19.8593443 150.518926,19.6946784 151.896132,16.7306936 L152.813842,14.6888374 C153.763684,14.6559042 154.223181,15.0833896 153.894142,16.0720303 C153.239278,17.948575 152.616547,19.9581438 152.189825,22 L134.097844,22 C133.967385,21.5712231 133.967385,21.1437377 134.097844,20.7162523 C137.572029,20.5180076 138.19476,20.2868297 138.19476,18.0803076 L138.19476,2.86453961 C138.19476,1.67894567 137.899782,1.48199243 136.424892,1.48199243 L134.852319,1.48199243 C134.721218,0.625730136 134.852319,0 136.294434,0 L151.896132,0 Z" id="Fill-12" fill="#292929"></path>
                    <g id="Group-16" transform="translate(158.000000, 0.000000)">
                        <mask id="mask-4" fill="white">
                            <use xlink:href="#path-3"></use>
                        </mask>
                        <g id="Clip-15"></g>
                        <path d="M10.0349227,13.0610611 C13.3626727,13.0610611 16.0517636,12.5397278 16.0517636,8.14097778 C16.0517636,3.74222778 13.3626727,2.37308889 9.56499091,2.37308889 L8.42080909,2.37308889 L8.42080909,13.0610611 L10.0349227,13.0610611 Z M2.37035455,2.17822778 L0.757559091,2.17822778 C0.521604545,1.33106111 0.757559091,0.711977778 2.13505909,0.614227778 C3.74917273,0.484533333 5.76599091,0.484533333 10.4725591,0.484533333 C16.9257182,0.484533333 20.4887636,3.44961667 20.4887636,7.91289444 C20.4887636,10.6498944 18.7408545,12.8662 15.9515818,14.0059778 C15.9515818,14.0059778 18.4719455,16.2542278 19.7499227,17.26495 C24.1875818,20.7187833 25.6665818,21.0120333 28.58965,21.0120333 C28.8934909,22.15245 28.05315,23.0002556 24.4901045,23.0002556 C21.3627182,23.0002556 19.3122864,22.3473111 16.8255364,20.2619778 C15.7156273,19.3177 14.5055364,18.0150056 13.6315818,16.5148944 C12.7912409,15.0486444 12.7240136,14.9515333 10.6735818,14.9515333 L8.42080909,14.9515333 L8.42080909,19.7406444 C8.42080909,20.6855611 8.72465,21.0120333 10.4725591,21.0120333 L12.1861955,21.0120333 C12.2863773,21.95695 12.1861955,22.4782833 11.2114,22.4782833 L0.622445455,22.4782833 C0.555218182,22.1205056 0.521604545,21.6311167 0.622445455,21.2081722 C3.54683182,21.0120333 4.22042273,20.6855611 4.22042273,18.6986167 L4.22042273,3.64447778 C4.22042273,2.37308889 3.74917273,2.17822778 2.37035455,2.17822778 Z" id="Fill-14" fill="#292929" mask="url(#mask-4)"></path>
                    </g>
                </g>
            </g>
        </g>
    </g>
</svg>