<?xml version="1.0" encoding="UTF-8"?>
<svg width="142px" height="37px" viewBox="0 0 142 37" version="1.1" xmlns="http://www.w3.org/2000/svg" xmlns:xlink="http://www.w3.org/1999/xlink">
    <!-- Generator: sketchtool 52.4 (67378) - http://www.bohemiancoding.com/sketch -->
    <title>D5A2F5F0-BF9F-49F3-A751-0C9641A71B1F</title>
    <desc>Created with sketchtool.</desc>
    <g id="Page-1" stroke="none" stroke-width="1" fill="none" fill-rule="evenodd">
        <g id="Main-page_1920-90_Final-(I-hope)" transform="translate(-1384.000000, -3651.000000)" fill="#991A81">
            <g id="Clients" transform="translate(359.000000, 3632.000000)">
                <g id="evonik" transform="translate(1025.000000, 19.000000)">
                    <g id="Group" transform="translate(56.000000, 30.000000)">
                        <path d="M0.533333333,0.7 L0.666666667,0.7 C1.53333333,0.636363636 1.86666667,0.636363636 2.26666667,0.636363636 C3.13333333,0.636363636 3.66666667,0.763636364 4.06666667,1.01818182 C4.6,1.33636364 4.93333333,1.90909091 4.93333333,2.60909091 C4.93333333,3.81818182 4,4.51818182 2.4,4.51818182 C2.26666667,4.51818182 2.13333333,4.51818182 1.93333333,4.51818182 L1.93333333,6.61818182 L0.533333333,6.61818182 L0.533333333,0.7 Z M1.93333333,3.37272727 C2,3.37272727 2.13333333,3.37272727 2.2,3.37272727 L2.26666667,3.37272727 C3.2,3.37272727 3.53333333,3.11818182 3.53333333,2.54545455 C3.53333333,1.97272727 3.2,1.71818182 2.46666667,1.71818182 L2.4,1.71818182 C2.26666667,1.71818182 2.06666667,1.71818182 1.93333333,1.71818182 C1.93333333,1.71818182 1.93333333,3.37272727 1.93333333,3.37272727 Z" id="Shape" fill-rule="nonzero"></path>
                        <path d="M11.8,3.56363636 C11.8,5.47272727 10.6,6.68181818 8.73333333,6.68181818 C6.86666667,6.68181818 5.73333333,5.53636364 5.73333333,3.69090909 C5.73333333,1.71818182 6.93333333,0.509090909 8.8,0.509090909 C10.6,0.509090909 11.8,1.71818182 11.8,3.56363636 Z M7.2,3.62727273 C7.2,4.83636364 7.73333333,5.6 8.73333333,5.6 C9.66666667,5.6 10.2666667,4.9 10.2666667,3.62727273 C10.2666667,2.41818182 9.73333333,1.65454545 8.73333333,1.65454545 C7.8,1.65454545 7.2,2.41818182 7.2,3.62727273 Z" id="Shape" fill-rule="nonzero"></path>
                        <path d="M13.8666667,0.636363636 C14.2,2.1 14.2,2.35454545 14.6,3.94545455 C14.8,4.64545455 14.8666667,4.96363636 14.8666667,5.21818182 L14.8666667,5.85454545 L14.9333333,5.21818182 C14.9333333,5.02727273 15.0666667,4.45454545 15.2,3.94545455 C15.3333333,3.56363636 15.4,3.30909091 15.4,3.24545455 L15.7333333,1.90909091 L16,0.7 L17.6666667,0.7 L17.8,1.4 L18.2,3.24545455 L18.5333333,4.58181818 C18.6666667,5.02727273 18.6666667,5.28181818 18.7333333,5.85454545 C18.8,5.21818182 18.8,4.9 18.9333333,4.58181818 L19.2666667,3.24545455 L19.7333333,1.27272727 L19.8666667,0.636363636 L21.2666667,0.636363636 C20.7333333,2.8 20.3333333,4.2 19.5333333,6.55454545 L17.7333333,6.55454545 L17.3333333,4.96363636 C16.8666667,2.99090909 16.8,2.67272727 16.7333333,1.52727273 C16.6,2.86363636 16.6,3.11818182 16.0666667,4.96363636 L15.6666667,6.49090909 L13.8666667,6.49090909 L13.6,5.6 C13.3333333,4.64545455 12.9333333,3.18181818 12.6666667,2.16363636 L12.2666667,0.572727273 L13.8666667,0.636363636 Z" id="Path"></path>
                        <polygon id="Path" points="22.6 0.636363636 26.4666667 0.636363636 26.4666667 1.78181818 24 1.78181818 24 2.92727273 26.4 2.92727273 26.4 4.07272727 24 4.07272727 24 5.34545455 26.5333333 5.34545455 26.5333333 6.49090909 22.6 6.49090909 22.6 0.636363636"></polygon>
                        <path d="M27.8666667,0.7 L28,0.7 C28.7333333,0.636363636 29.1333333,0.636363636 29.6,0.636363636 C30.5333333,0.636363636 31,0.7 31.4666667,0.954545455 C32,1.27272727 32.3333333,1.84545455 32.3333333,2.54545455 C32.3333333,3.30909091 32,3.75454545 31.2666667,4.13636364 C31.6666667,4.70909091 32.6,5.91818182 33.1333333,6.49090909 L33.2,6.55454545 L31.4666667,6.55454545 C31.1333333,6.10909091 30.2666667,4.96363636 29.9333333,4.45454545 L29.8666667,4.32727273 C29.5333333,4.32727273 29.5333333,4.32727273 29.2666667,4.32727273 L29.2666667,6.55454545 L27.8666667,6.55454545 L27.8666667,0.7 Z M29.2666667,3.30909091 C29.4,3.30909091 29.6,3.30909091 29.6666667,3.30909091 C30.5333333,3.30909091 30.9333333,3.05454545 30.9333333,2.48181818 C30.9333333,1.90909091 30.5333333,1.65454545 29.7333333,1.65454545 C29.6,1.65454545 29.5333333,1.65454545 29.4,1.65454545 L29.2666667,1.65454545 C29.2666667,1.65454545 29.2666667,3.30909091 29.2666667,3.30909091 Z" id="Shape" fill-rule="nonzero"></path>
                        <polygon id="Path" points="38.2666667 1.84545455 36.3333333 1.84545455 36.3333333 0.636363636 41.5333333 0.636363636 41.5333333 1.84545455 39.6 1.84545455 39.6 6.61818182 38.2 6.61818182"></polygon>
                        <path d="M48.2,3.56363636 C48.2,5.47272727 47,6.68181818 45.1333333,6.68181818 C43.2666667,6.68181818 42.1333333,5.53636364 42.1333333,3.69090909 C42.1333333,1.71818182 43.3333333,0.509090909 45.2,0.509090909 C47,0.509090909 48.2,1.71818182 48.2,3.56363636 Z M43.6,3.62727273 C43.6,4.83636364 44.1333333,5.6 45.1333333,5.6 C46.0666667,5.6 46.6666667,4.9 46.6666667,3.62727273 C46.6666667,2.41818182 46.1333333,1.65454545 45.1333333,1.65454545 C44.2,1.65454545 43.6,2.41818182 43.6,3.62727273 Z" id="Shape" fill-rule="nonzero"></path>
                        <path d="M57.2,6.3 C56.5333333,6.55454545 56,6.68181818 55.2666667,6.68181818 C53.2,6.68181818 51.9333333,5.53636364 51.9333333,3.69090909 C51.9333333,1.78181818 53.3333333,0.572727273 55.4,0.572727273 C56.0666667,0.572727273 56.5333333,0.7 57.2,0.954545455 L57.2,2.29090909 C56.6,1.97272727 56.2,1.84545455 55.6,1.84545455 C54.2666667,1.84545455 53.4666667,2.54545455 53.4666667,3.75454545 C53.4666667,4.9 54.2666667,5.6 55.5333333,5.6 C56.1333333,5.6 56.6,5.47272727 57.2,5.15454545 L57.2,6.3 Z" id="Path"></path>
                        <path d="M58.5333333,0.7 L58.6666667,0.7 C59.4,0.636363636 59.8,0.636363636 60.2666667,0.636363636 C61.2,0.636363636 61.6666667,0.7 62.1333333,0.954545455 C62.6666667,1.27272727 63,1.84545455 63,2.54545455 C63,3.30909091 62.6666667,3.75454545 61.9333333,4.13636364 C62.3333333,4.70909091 63.2666667,5.91818182 63.8,6.49090909 L63.8666667,6.55454545 L62.1333333,6.55454545 C61.8,6.10909091 60.9333333,4.96363636 60.6,4.45454545 L60.5333333,4.32727273 C60.2,4.32727273 60.2,4.32727273 59.9333333,4.32727273 L59.9333333,6.55454545 L58.5333333,6.55454545 L58.5333333,0.7 Z M59.8666667,3.30909091 C60,3.30909091 60.2,3.30909091 60.2666667,3.30909091 C61.1333333,3.30909091 61.5333333,3.05454545 61.5333333,2.48181818 C61.5333333,1.90909091 61.1333333,1.65454545 60.3333333,1.65454545 C60.2,1.65454545 60.1333333,1.65454545 60,1.65454545 L59.8666667,1.65454545 L59.8666667,3.30909091 Z" id="Shape" fill-rule="nonzero"></path>
                        <polygon id="Path" points="64.5333333 0.636363636 68.4 0.636363636 68.4 1.78181818 65.9333333 1.78181818 65.9333333 2.92727273 68.3333333 2.92727273 68.3333333 4.07272727 65.9333333 4.07272727 65.9333333 5.34545455 68.4666667 5.34545455 68.4666667 6.49090909 64.5333333 6.49090909"></polygon>
                        <path d="M69.3333333,6.61818182 C69.8666667,5.09090909 70.8,2.86363636 71.8,0.7 L73.2,0.7 C74.0666667,2.67272727 74.6666667,4.26363636 75.4666667,6.61818182 L74,6.61818182 L73.4666667,5.02727273 L71.3333333,5.02727273 L70.8,6.61818182 L69.3333333,6.61818182 Z M73.1333333,3.88181818 L72.8,2.86363636 C72.6666667,2.41818182 72.6,2.22727273 72.5333333,1.84545455 C72.4666667,2.1 72.4666667,2.1 72.4666667,2.22727273 C72.4,2.35454545 72.3333333,2.48181818 72.2,2.92727273 L71.8666667,3.88181818 L73.1333333,3.88181818 Z" id="Shape" fill-rule="nonzero"></path>
                        <polygon id="Path" points="77.1333333 1.84545455 75.2 1.84545455 75.2 0.636363636 80.4 0.636363636 80.4 1.84545455 78.4666667 1.84545455 78.4666667 6.61818182 77.0666667 6.61818182"></polygon>
                        <polygon id="Path" points="81.6 0.636363636 85.4666667 0.636363636 85.4666667 1.78181818 83 1.78181818 83 2.92727273 85.4 2.92727273 85.4 4.07272727 83 4.07272727 83 5.34545455 85.5333333 5.34545455 85.5333333 6.49090909 81.6 6.49090909"></polygon>
                    </g>
                    <g id="Group">
                        <g transform="translate(41.333333, 6.666667)">
                            <path d="M100,17.7333333 L97.4,17.7333333 C97.1333333,17.7333333 96.9333333,17.5333333 96.9333333,17.2666667 C96.8666667,15.6666667 96.2666667,14.2 95.3333333,13 C95.2,12.8 95,12.6 94.8,12.4 C93.8,11.2666667 92.4,10.6 90.8,10.6 L89.1333333,10.6 L89.1333333,17.2666667 C89.1333333,17.5333333 88.8666667,17.8 88.6,17.8 L85.8666667,17.8 C85.6,17.8 85.3333333,17.5333333 85.3333333,17.2666667 L85.3333333,1.6 C85.3333333,1.33333333 85.6,1.06666667 85.8666667,1.06666667 L88.6,1.06666667 C88.8666667,1.06666667 89.1333333,1.26666667 89.1333333,1.6 L89.1333333,6.86666667 L90.8,6.86666667 C93.7333333,6.86666667 96.1333333,4.53333333 96.2,1.53333333 C96.2,1.26666667 96.4,1.06666667 96.6666667,1.06666667 L99.4666667,1.06666667 C99.7333333,1.06666667 100,1.26666667 100,1.53333333 C99.9333333,4.46666667 98.5333333,7.06666667 96.4,8.66666667 C97,9.13333333 97.5333333,9.6 97.9333333,10.2 C99.5333333,12.1333333 100.6,14.5333333 100.666667,17.2 C100.666667,17.4666667 100.466667,17.6666667 100.2,17.7333333 L100,17.7333333 Z" id="Path"></path>
                            <path d="M70.6,5 C69.2,4.46666667 67.6,4.13333333 66,4.13333333 C64.4,4.13333333 62.8,4.46666667 61.4,5 L61.4,17.2666667 C61.4,17.5333333 61.1333333,17.8 60.8666667,17.8 L58.1333333,17.8 C57.8666667,17.8 57.6,17.5333333 57.6,17.2666667 L57.6,2.86666667 C57.6,2.73333333 57.6666667,2.53333333 57.8,2.46666667 C60.2,1.13333333 63,0.333333333 65.9333333,0.333333333 C68.8666667,0.333333333 71.6666667,1.13333333 74.0666667,2.46666667 C74.2,2.53333333 74.2666667,2.73333333 74.2666667,2.86666667 L74.2666667,17.2 C74.2666667,17.4666667 74,17.7333333 73.7333333,17.7333333 L71,17.7333333 C70.7333333,17.7333333 70.4666667,17.4666667 70.4666667,17.2 L70.4666667,5 L70.6,5 Z" id="Path"></path>
                            <path d="M78,17.2 L78,1.6 C78,1.33333333 78.2666667,1.06666667 78.5333333,1.06666667 L81.2666667,1.06666667 C81.5333333,1.06666667 81.8,1.33333333 81.8,1.6 L81.8,17.2666667 C81.8,17.5333333 81.5333333,17.8 81.2666667,17.8 L78.5333333,17.8 C78.2,17.7333333 78,17.5333333 78,17.2 Z" id="Path"></path>
                            <path d="M31.1333333,1.06666667 L34.7333333,1.06666667 C35,1.06666667 35.2,1.33333333 35.2,1.6 C35.2,1.66666667 35.2,1.73333333 35.2,1.8 L29.2,17.4 C29.1333333,17.6 28.9333333,17.7333333 28.7333333,17.7333333 L24.2,17.7333333 C24,17.7333333 23.8,17.6 23.7333333,17.4 L18,1.73333333 C18,1.66666667 18,1.66666667 18,1.6 C18,1.33333333 18.2,1.13333333 18.4666667,1.06666667 L22.1333333,1.06666667 C22.3333333,1.06666667 22.5333333,1.2 22.6,1.4 L26.4666667,14 L30.6666667,1.4 C30.7333333,1.2 30.9333333,1.06666667 31.1333333,1.06666667 Z" id="Path"></path>
                            <path d="M15.9333333,17.7333333 L2.73333333,17.7333333 C2.53333333,17.7333333 2.33333333,17.6 2.26666667,17.4666667 C0.866666667,15.0666667 0.133333333,12.3333333 0.133333333,9.4 C0.133333333,6.46666667 0.933333333,3.73333333 2.26666667,1.33333333 C2.33333333,1.13333333 2.53333333,1.06666667 2.73333333,1.06666667 L15.2666667,1.06666667 C15.5333333,1.06666667 15.7333333,1.26666667 15.7333333,1.53333333 L15.7333333,4.33333333 C15.7333333,4.6 15.5333333,4.8 15.2666667,4.8 L4.73333333,4.8 C4.4,5.66666667 4.13333333,6.6 4,7.53333333 L14.5333333,7.53333333 C14.8,7.53333333 15,7.73333333 15,8 L15,10.7333333 C15,11 14.8,11.2666667 14.5333333,11.2666667 L4.06666667,11.2666667 C4.2,12.2 4.46666667,13.1333333 4.8,14 L16,14 C16.2666667,14 16.4666667,14.2 16.4666667,14.4666667 L16.4666667,17.2 C16.4,17.5333333 16.2,17.7333333 15.9333333,17.7333333 Z" id="Path"></path>
                            <path d="M50.3333333,5 C48.9333333,4.46666667 47.3333333,4.13333333 45.7333333,4.13333333 C44.1333333,4.13333333 42.5333333,4.46666667 41.1333333,5 L41.1333333,13.8666667 C42.5333333,14.4 44.1333333,14.7333333 45.7333333,14.7333333 C47.3333333,14.7333333 48.8666667,14.4 50.3333333,13.8666667 L50.3333333,5 Z M45.7333333,18.4666667 C42.8,18.4666667 40.0666667,17.7333333 37.6666667,16.3333333 C37.5333333,16.2666667 37.4,16.0666667 37.4,15.9333333 L37.4,2.86666667 C37.4,2.66666667 37.5333333,2.53333333 37.6666667,2.46666667 C40.0666667,1.13333333 42.8,0.333333333 45.8,0.333333333 C48.7333333,0.333333333 51.5333333,1.13333333 53.9333333,2.46666667 C54.0666667,2.53333333 54.1333333,2.73333333 54.2,2.86666667 L54.2,15.8666667 C54.2,16.0666667 54.0666667,16.2 53.9333333,16.2666667 C51.4,17.6666667 48.6666667,18.4666667 45.7333333,18.4666667 Z" id="Shape" fill-rule="nonzero"></path>
                        </g>
                        <g id="KNull_14_">
                            <path d="M15.6666667,3.86666667 C9,3.86666667 3.6,9.26666667 3.6,15.9333333 C3.6,22.6 9,28 15.6666667,28 C19.3333333,28 22.6,26.4 24.8,23.8666667 C24.8,23.8666667 12.3333333,23.8666667 12.1333333,23.8666667 C12,23.8666667 11.8666667,23.8 11.7333333,23.8 C8.86666667,22.3333333 6.93333333,19.4 6.93333333,16 C6.93333333,12.6 8.86666667,9.6 11.7333333,8.2 C11.8666667,8.13333333 12,8.13333333 12.1333333,8.13333333 C13.2666667,8.13333333 18.4666667,8.13333333 19.2,8.13333333 C19.4,8.13333333 19.5333333,8.2 19.6,8.2 C20.8666667,8.8 21.9333333,9.73333333 22.7333333,10.8666667 C23,11.2 22.7333333,11.6666667 22.3333333,11.6666667 C22,11.6666667 12.8,11.6666667 12.8,11.6666667 C11.4,12.6 10.4666667,14.2 10.4666667,16 C10.4666667,17.8 11.4,19.4 12.8,20.3333333 C12.8,20.3333333 29.6666667,20.3333333 30,20.3333333 C30.3333333,20.3333333 30.6,20.6666667 30.4666667,21 C28.4,27.2 22.5333333,31.6666667 15.6666667,31.6666667 C7,31.6 0,24.6 0,15.9333333 C0,7.33333333 7,0.266666667 15.6666667,0.266666667 C24.3333333,0.266666667 31.3333333,7.26666667 31.3333333,15.9333333 C31.3333333,16.4 31.3333333,16.8 31.2666667,17.2666667 C31.2666667,17.5333333 31,17.7333333 30.8,17.7333333 C28.1333333,17.7333333 14.2,17.7333333 14,17.7333333 C13.8,17.7333333 13.6,17.6 13.5333333,17.4666667 C13.3333333,17 13.2,16.5333333 13.2,16 C13.2,15.4666667 13.3333333,14.9333333 13.5333333,14.5333333 C13.6,14.3333333 13.8,14.2666667 14,14.2666667 C14.2666667,14.2666667 27.6,14.2666667 27.6,14.2666667 C26.7333333,8.33333333 21.7333333,3.86666667 15.6666667,3.86666667 Z" id="Path"></path>
                        </g>
                    </g>
                </g>
            </g>
        </g>
    </g>
</svg>