<?xml version="1.0" encoding="UTF-8"?>
<svg width="42px" height="42px" viewBox="0 0 42 42" version="1.1" xmlns="http://www.w3.org/2000/svg" xmlns:xlink="http://www.w3.org/1999/xlink">
    <!-- Generator: sketchtool 52.4 (67378) - http://www.bohemiancoding.com/sketch -->
    <title>39CA6806-A800-4458-AF70-DD9696C6CD8D</title>
    <desc>Created with sketchtool.</desc>
    <g id="Page-1" stroke="none" stroke-width="1" fill="none" fill-rule="evenodd">
        <g id="Main-page" transform="translate(-1035.000000, -2853.000000)">
            <g id="Platforms-logos" transform="translate(383.000000, 2841.000000)">
                <g id="facebook" transform="translate(652.000000, 12.000000)">
                    <path d="M39.6666667,0 L2.33333333,0 C1.04475,0 0,1.04475 0,2.33333333 L0,39.6666667 C0,40.95525 1.04475,42 2.33333333,42 L22.435,42 L22.435,25.76 L16.9808333,25.76 L16.9808333,19.4016667 L22.435,19.4016667 L22.435,14.735 C22.435,9.31 25.7483333,6.3525 30.6016667,6.3525 C32.2344167,6.34783333 33.866,6.43125 35.49,6.60333333 L35.49,12.25 L32.1416667,12.25 C29.5108333,12.25 28.9975,13.5041667 28.9975,15.3416667 L28.9975,19.39 L35.2916667,19.39 L34.475,25.7483333 L28.9975,25.7483333 L28.9975,42 L39.6666667,42 C40.95525,42 42,40.95525 42,39.6666667 L42,2.33333333 C42,1.04475 40.95525,0 39.6666667,0" id="Fill-1" fill="#3B5998"></path>
                    <path d="M28.6934721,42 L28.6934721,25.604862 L34.0236518,25.604862 L34.8183538,19.1857885 L28.6934721,19.1857885 L28.6934721,15.0987821 C28.6934721,13.2437288 29.1929991,11.9775813 31.7530747,11.9775813 L35,11.9775813 L35,6.25341669 C33.4196783,6.07968948 31.8319773,5.99547594 30.243141,6.00018719 C25.5316935,6.00018719 22.2961211,8.9859397 22.2961211,14.4627638 L22.2961211,19.1740104 L17,19.1740104 L17,25.5930838 L22.307474,25.5930838 L22.307474,42 L28.6934721,42 Z" id="Fill-3" fill="#FFFFFF"></path>
                </g>
            </g>
        </g>
    </g>
</svg>