<?xml version="1.0" encoding="UTF-8"?>
<svg width="116px" height="56px" viewBox="0 0 116 56" version="1.1" xmlns="http://www.w3.org/2000/svg" xmlns:xlink="http://www.w3.org/1999/xlink">
    <!-- Generator: sketchtool 52.4 (67378) - http://www.bohemiancoding.com/sketch -->
    <title>A31F6CE7-8334-40CD-8A4B-A60FAD614D0C</title>
    <desc>Created with sketchtool.</desc>
    <g id="Page-1" stroke="none" stroke-width="1" fill="none" fill-rule="evenodd">
        <g id="Main-page_1920-90_Final-(I-hope)" transform="translate(-1011.000000, -3641.000000)" fill="#EE3E33">
            <g id="Clients" transform="translate(359.000000, 3632.000000)">
                <g id="Fujitsu" transform="translate(652.000000, 9.000000)">
                    <path d="M7.16322477,45 L0,45 C0,45 1.34710094,44.3023543 1.34710094,42.9707192 L1.34710094,20.9026115 C1.34710094,19.3806509 0,19 0,19 L15,19 L15,23.3755564 C15,23.3755564 14.632496,21.917252 13.469147,21.917252 L5.81612383,21.917252 L5.81612383,29.082748 L13.5920622,29.082748 L13.5920622,33.0782966 C13.5920622,33.0782966 13.3468526,32.1266693 12.2449613,32.1266693 L5.81612383,32.1266693 L5.81612383,42.907706 C5.81612383,44.3660105 7.16322477,45 7.16322477,45" id="Fill-2"></path>
                    <path d="M105.197693,45.9999362 C99.5233758,45.9816384 95.5808743,42.7113768 95.5808743,39.3527809 L95.5808743,21.8663773 C95.5808743,20.6221258 94,20 94,20 L101.772799,20 C101.772799,20 100.191925,20.6221258 100.191925,21.8045433 L100.191925,39.3527809 C100.191925,41.0292395 102.672435,43.1801795 105.06612,43.1650364 C107.41439,43.1492625 109.808743,41.0475373 109.808743,39.3527809 L109.808743,21.8360913 C109.808743,20.5293748 108.227869,20.030917 108.227869,20.030917 L116,20.030917 C116,20.030917 114.419126,20.5293748 114.419126,21.8360913 L114.419126,39.3527809 C114.419126,42.6205186 110.48731,46.0169721 105.197693,45.9999362" id="Fill-4"></path>
                    <path d="M27.1976928,45.9999362 C21.5233758,45.9816384 17.5808743,42.7113768 17.5808743,39.3527809 L17.5808743,21.8663773 C17.5808743,20.6221258 16,20 16,20 L23.772799,20 C23.772799,20 22.1919247,20.6221258 22.1919247,21.8045433 L22.1919247,39.3527809 C22.1919247,41.0292395 24.6724347,43.1801795 27.0661202,43.1650364 C29.4143898,43.1492625 31.8087432,41.0475373 31.8087432,39.3527809 L31.8087432,21.8045433 C31.8087432,20.4978268 30.2278689,20 30.2278689,20 L38,20 C38,20 36.4191257,20.4978268 36.4191257,21.8045433 L36.4191257,39.3527809 C36.4191257,42.6205186 32.4873103,46.0169721 27.1976928,45.9999362" id="Fill-6"></path>
                    <path d="M48,19 C48,19 46.4219145,19.6478257 46.4219145,21.0085224 L46.4219145,49.0016878 C46.4219145,49.0016878 46.3412434,53.8616945 38.0054583,55.9996507 C37.8341157,56.0436713 41.7536615,51.9175604 41.7536615,49.0016878 C41.7536615,47.0575538 41.8009974,22.0446493 41.7536615,21.0085224 C41.6876579,19.5834373 40.1755759,19 40.1755759,19 L48,19 Z" id="Fill-8"></path>
                    <path d="M55.5881902,43.029551 C55.6472393,44.4282669 57,45 57,45 L50,45 C50,45 51.4118098,44.3644545 51.4118098,43.029551 L51.4183708,43.029551 C51.4285106,35.1490443 51.442229,21.7065473 51.4118098,20.970449 C51.3527607,19.5723777 50,19 50,19 L57,19 C57,19 55.5881902,19.6355455 55.5881902,20.970449 L55.5881902,42.9657387 L55.5881902,43.029551 Z" id="Fill-10"></path>
                    <path d="M68.8515544,21.9244118 L68.8515544,42.9663832 L68.8515544,43.029551 C68.9144999,44.4282669 70.3565238,45 70.3565238,45 L62.8946224,45 C62.8946224,45 64.3995917,44.3644545 64.3995917,43.029551 L64.4072215,43.029551 C64.4161229,36.2602821 64.4282033,25.3212931 64.4104006,21.9244118 L59.4459726,21.9244118 C57.8780578,21.9244118 57,23.7047128 57,23.7047128 L58.5049694,19 L76,19 L74.9343774,23.3231276 C74.9343774,23.3231276 74.8714319,21.9244118 73.3664625,21.9244118 L68.8515544,21.9244118 Z" id="Fill-12"></path>
                    <path d="M46.905049,10.9013906 C47.8548941,12.8618621 50.555723,14.3541328 53.4333919,14.3541328 C57.6125764,14.3541328 61,11.1402555 61,7.17674878 C61,3.21260676 57.6125764,0 53.4333919,0 C51.1552374,0 49.1128695,0.954189313 47.7256133,2.4642479 L47.7771917,6.26575845 C48.0176673,3.65857274 51.0025119,2.18408979 53.4333919,2.24698242 C56.3063719,2.32067481 58.6367747,4.45648338 58.6367747,7.18246629 C58.6367747,9.90781393 56.3070418,12.1179502 53.4333919,12.1179502 C51.5852801,12.1179502 49.9957297,11.17329 49.0726786,9.79727536 L48.832203,9.35829745 C47.7946077,7.53377568 45.6886042,6.12726759 43.2590639,6.12726759 C39.8019761,6.12726759 37,8.78527564 37,12.0639514 C37,15.3426272 39.8019761,18 43.2590639,18 C45.2404756,18 47.0061961,17.1277617 48.1536465,15.7650879 L48.1536465,13.0975506 L45.8942477,14.880144 C45.2190404,15.321663 44.2316838,15.6964777 43.2590639,15.6964777 C41.1436825,15.6964777 39.4288705,14.0701631 39.4288705,12.0639514 C39.4288705,10.0577398 41.1436825,8.43142514 43.2590639,8.43142514 C44.8244997,8.43142514 46.1072595,9.3538505 46.8601691,10.8219807 L46.905049,10.9013906 Z" id="Fill-14"></path>
                    <path d="M89.669829,23.343831 L89.669829,20.1302815 C89.669829,19.6850307 86.8281418,19.018445 85.0258657,19.0003768 C83.7212471,18.9868257 76.1574832,19.3017278 76.1574832,26.0805103 C76.1574832,31.6493722 81.872985,33.8446523 82.6188413,34.2260194 C83.3640677,34.6080317 87.5576195,36.5174479 87.5576195,38.8088764 C87.5576195,41.7998005 85.0724817,43.2955852 82.0903165,43.2955852 C79.1081512,43.2955852 76.6822284,41.3158322 76.0018865,40.7176474 C75.948971,40.6711864 77.026809,45.2998592 77.026809,45.2998592 C77.026809,45.2998592 79.7223487,46 81.9970844,46 C83.0535042,46 92,46 92,38.7449926 C92,33.2400146 86.5011997,31.2673599 85.4145425,30.7259607 C84.414188,30.2290865 80.5368691,28.6900674 80.5368691,25.8256204 C80.5368691,23.5348371 83.2084709,21.6254209 85.1965811,21.6254209 C87.996692,21.6254209 88.9863374,22.5481871 89.669829,23.343831" id="Fill-16"></path>
                </g>
            </g>
        </g>
    </g>
</svg>