<?xml version="1.0" encoding="UTF-8"?>
<svg width="280px" height="23px" viewBox="0 0 280 23" version="1.1" xmlns="http://www.w3.org/2000/svg" xmlns:xlink="http://www.w3.org/1999/xlink">
    <!-- Generator: sketchtool 52.4 (67378) - http://www.bohemiancoding.com/sketch -->
    <title>2B544D8E-5784-4F60-B413-4C19045D0E7D</title>
    <desc>Created with sketchtool.</desc>
    <defs>
        <polygon id="path-1" points="0.3802 0.878 17.2432 0.878 17.2432 23 0.3802 23"></polygon>
        <polygon id="path-3" points="0.7405 0.8782 17.7255 0.8782 17.7255 23 0.7405 23"></polygon>
        <polygon id="path-5" points="0.4504 0.878 23.6604 0.878 23.6604 22.4859 0.4504 22.4859"></polygon>
        <polygon id="path-7" points="0.7311 0.8782 17.7151 0.8782 17.7151 23 0.7311 23"></polygon>
        <polygon id="path-9" points="0 23 279.313 23 279.313 0.878 0 0.878"></polygon>
    </defs>
    <g id="Page-1" stroke="none" stroke-width="1" fill="none" fill-rule="evenodd">
        <g id="Logos-b&amp;w" transform="translate(-373.000000, -320.000000)">
            <g id="Clients" transform="translate(100.000000, 296.000000)">
                <g id="Huberd-burda" transform="translate(273.000000, 23.000000)">
                    <polygon id="Fill-1" fill="#231F20" points="12.9654 1.0001 12.9654 8.9181 6.3174 8.9181 6.3174 1.0001 0.0004 1.0001 0.0004 22.6081 6.3174 22.6081 6.3174 14.1461 12.9654 14.1461 12.9654 22.6081 19.2814 22.6081 19.2814 1.0001"></polygon>
                    <g id="Group-35" transform="translate(0.000000, 0.122100)">
                        <path d="M31.8841,22.4861 L31.8841,20.4921 L31.7931,20.4921 C30.6151,22.0931 29.1031,22.9691 26.9881,22.9691 C23.3011,22.9691 21.4881,20.5521 21.4881,17.0161 L21.4881,7.0731 L27.1991,7.0731 L27.1991,15.6561 C27.1991,17.2581 27.8951,18.1041 29.2541,18.1041 C30.7361,18.1041 31.6121,17.0461 31.6121,15.3841 L31.6121,7.0731 L37.3241,7.0731 L37.3241,22.4861 L31.8841,22.4861" id="Fill-2" fill="#231F20"></path>
                        <g id="Group-6" transform="translate(39.000000, 0.000000)">
                            <mask id="mask-2" fill="white">
                                <use xlink:href="#path-1"></use>
                            </mask>
                            <g id="Clip-5"></g>
                            <path d="M5.8802,20.4915 L5.8202,20.4915 L5.8202,22.4865 L0.3802,22.4865 L0.3802,0.8775 L6.0922,0.8775 L6.0922,8.6745 L6.1822,8.6745 C7.2702,7.3145 8.6302,6.5895 10.7152,6.5895 C14.8562,6.5895 17.2432,10.2765 17.2432,14.7495 C17.2432,20.0075 14.7352,23.0005 10.6552,23.0005 C8.7212,23.0005 6.9072,22.2435 5.8802,20.4915 M11.4402,14.6885 C11.4402,12.2715 10.5032,10.7295 8.7812,10.7295 C7.0282,10.7295 5.8802,12.4535 5.8802,14.6885 C5.8802,16.9555 7.0282,18.6475 8.7812,18.6475 C10.5342,18.6475 11.4402,17.1065 11.4402,14.6885" id="Fill-4" fill="#231F20" mask="url(#mask-2)"></path>
                        </g>
                        <path d="M57.0296,14.7492 C57.0296,10.0952 60.3846,6.5592 65.2506,6.5592 C67.6676,6.5592 69.5106,7.3452 70.9316,8.6452 C72.8056,10.3672 73.6816,13.1172 73.6216,16.1702 L62.6206,16.1702 C62.9526,17.9532 63.9206,19.0412 65.6426,19.0412 C66.6406,19.0412 67.3656,18.6482 67.7886,17.8932 L73.3196,17.8932 C72.9866,19.2832 71.8986,20.6432 70.3876,21.6102 C68.9666,22.5162 67.4256,22.9092 65.4616,22.9092 C60.4146,22.9092 57.0296,19.4642 57.0296,14.7492 M62.6206,13.1482 L67.9396,13.1482 C67.6976,11.4252 66.7306,10.3972 65.3706,10.3972 C63.7996,10.3972 62.9236,11.4552 62.6206,13.1482" id="Fill-7" fill="#231F20"></path>
                        <path d="M80.4821,9.4004 L80.5731,9.4004 C81.8121,7.4654 83.2931,6.7404 85.2571,6.7404 C85.7101,6.7404 86.0121,6.8014 86.1941,6.8924 L86.1941,11.7584 L86.0731,11.7584 C82.7181,11.1834 80.7541,12.6944 80.7541,16.1704 L80.7541,22.4864 L75.0421,22.4864 L75.0421,7.0734 L80.4821,7.0734 L80.4821,9.4004" id="Fill-9" fill="#231F20"></path>
                        <path d="M87.0399,7.0737 L89.0349,7.0737 L89.0349,2.0867 L94.6259,2.0867 L94.6259,7.0737 L97.5569,7.0737 L97.5569,10.5187 L94.6259,10.5187 L94.6259,16.7737 C94.6259,18.3157 95.7139,18.3457 97.4969,18.2247 L97.4969,22.4257 C96.6209,22.6377 95.7139,22.7887 94.6859,22.7887 C90.9389,22.7887 89.0349,21.7307 89.0349,18.0437 L89.0349,10.5187 L87.0399,10.5187 L87.0399,7.0737" id="Fill-11" fill="#231F20"></path>
                        <path d="M103.8128,0.8782 L114.9948,0.8782 C117.1108,0.8782 118.6818,1.3922 119.8308,2.2682 C121.1298,3.2652 121.8848,4.7462 121.8848,6.5292 C121.8848,8.5842 121.0088,9.8842 119.1958,10.6702 L119.1958,10.7602 C121.5528,11.5162 122.9138,13.5102 122.9138,15.9582 C122.9138,18.2852 121.9758,20.0382 120.4348,21.1262 C119.1348,22.0322 117.4428,22.4862 115.2068,22.4862 L103.8128,22.4862 L103.8128,0.8782 Z M113.9368,9.2792 C115.1468,9.2792 115.9618,8.7052 115.9618,7.5572 C115.9618,6.4382 115.1158,5.7732 113.9068,5.7732 L110.0088,5.7732 L110.0088,9.2792 L113.9368,9.2792 Z M114.5118,17.5302 C115.8718,17.5302 116.8078,16.7142 116.8078,15.4152 C116.8078,14.0252 115.7808,13.3292 114.4808,13.3292 L110.0088,13.3292 L110.0088,17.5302 L114.5118,17.5302 Z" id="Fill-13" fill="#231F20"></path>
                        <path d="M134.5185,22.4861 L134.5185,20.4921 L134.4285,20.4921 C133.2495,22.0931 131.7385,22.9691 129.6235,22.9691 C125.9355,22.9691 124.1225,20.5521 124.1225,17.0161 L124.1225,7.0731 L129.8345,7.0731 L129.8345,15.6561 C129.8345,17.2581 130.5295,18.1041 131.8895,18.1041 C133.3705,18.1041 134.2465,17.0461 134.2465,15.3841 L134.2465,7.0731 L139.9585,7.0731 L139.9585,22.4861 L134.5185,22.4861" id="Fill-15" fill="#231F20"></path>
                        <path d="M147.4538,9.4004 L147.5438,9.4004 C148.7838,7.4654 150.2648,6.7404 152.2288,6.7404 C152.6818,6.7404 152.9848,6.8014 153.1658,6.8924 L153.1658,11.7584 L153.0448,11.7584 C149.6898,11.1834 147.7258,12.6944 147.7258,16.1704 L147.7258,22.4864 L142.0148,22.4864 L142.0148,7.0734 L147.4538,7.0734 L147.4538,9.4004" id="Fill-17" fill="#231F20"></path>
                        <g id="Group-21" transform="translate(153.000000, 0.000000)">
                            <mask id="mask-4" fill="white">
                                <use xlink:href="#path-3"></use>
                            </mask>
                            <g id="Clip-20"></g>
                            <path d="M0.7405,14.7492 C0.7405,9.9142 3.5205,6.5892 7.6315,6.5892 C9.8375,6.5892 10.9255,7.4062 11.9225,8.7052 L12.0125,8.7052 L12.0125,0.8782 L17.7255,0.8782 L17.7255,22.4862 L12.2845,22.4862 L12.2845,20.3412 L12.2255,20.3412 C11.2275,22.0632 9.5955,23.0002 7.6915,23.0002 C3.7015,23.0002 0.7405,20.0682 0.7405,14.7492 M12.1645,14.6582 C12.1645,12.4532 11.0165,10.6992 9.3235,10.6992 C7.6615,10.6992 6.5435,12.3012 6.5435,14.6582 C6.5435,17.0162 7.6315,18.6782 9.3235,18.6782 C11.0165,18.6782 12.1645,16.8952 12.1645,14.6582" id="Fill-19" fill="#231F20" mask="url(#mask-4)"></path>
                        </g>
                        <path d="M182.2097,20.7035 L182.1497,20.7035 C181.1517,22.0635 179.5797,22.8795 177.2227,22.8795 C174.2617,22.8795 172.0857,21.2775 172.0857,18.2555 C172.0857,14.8405 174.7147,13.8435 177.6767,13.5105 C180.9397,13.1485 181.8177,12.7555 181.8177,11.7875 C181.8177,10.9415 181.4227,10.3075 180.1847,10.3075 C178.9457,10.3075 178.3107,11.0325 178.1597,12.1505 L172.7507,12.1505 C172.8717,9.0985 175.2287,6.5895 180.0637,6.5895 C182.4217,6.5895 184.3857,7.0735 185.6547,8.0095 C186.9237,9.0075 187.4987,10.1865 187.4987,12.2415 L187.4987,18.0745 C187.4987,19.0715 187.8917,19.1625 188.4657,19.0715 L188.5557,19.0715 L188.5557,22.3045 C188.1337,22.4865 187.1057,22.7585 186.0477,22.7585 C183.7517,22.7585 182.5717,22.1245 182.2097,20.7035 M181.9677,16.8955 L181.9677,15.5355 C181.4227,15.8075 180.7277,16.0495 179.7617,16.2605 C178.1007,16.6235 177.5857,17.1065 177.5857,18.0135 C177.5857,19.0405 178.4327,19.4945 179.3697,19.4945 C180.6987,19.4945 181.9677,18.7385 181.9677,16.8955" id="Fill-22" fill="#231F20"></path>
                        <g id="Group-26" transform="translate(194.000000, 0.000000)">
                            <mask id="mask-6" fill="white">
                                <use xlink:href="#path-5"></use>
                            </mask>
                            <g id="Clip-25"></g>
                            <polygon id="Fill-24" fill="#231F20" mask="url(#mask-6)" points="0.4504 0.8779 8.6694 0.8779 11.9944 12.9659 12.0554 12.9659 15.3794 0.8779 23.6604 0.8779 23.6604 22.4859 17.9484 22.4859 17.9484 8.9469 17.8874 8.9469 14.2914 22.4859 9.6674 22.4859 6.0714 8.9469 6.0094 8.9469 6.0094 22.4859 0.4504 22.4859"></polygon>
                        </g>
                        <path d="M219.3524,14.7492 C219.3524,10.0952 222.7074,6.5592 227.5734,6.5592 C229.9914,6.5592 231.8354,7.3452 233.2544,8.6452 C235.1284,10.3672 236.0054,13.1172 235.9444,16.1702 L224.9454,16.1702 C225.2764,17.9532 226.2444,19.0412 227.9664,19.0412 C228.9634,19.0412 229.6884,18.6482 230.1124,17.8932 L235.6424,17.8932 C235.3094,19.2832 234.2234,20.6432 232.7104,21.6102 C231.2904,22.5162 229.7494,22.9092 227.7854,22.9092 C222.7374,22.9092 219.3524,19.4642 219.3524,14.7492 M224.9454,13.1482 L230.2634,13.1482 C230.0214,11.4252 229.0544,10.3972 227.6954,10.3972 C226.1224,10.3972 225.2454,11.4552 224.9454,13.1482" id="Fill-27" fill="#231F20"></path>
                        <g id="Group-31" transform="translate(236.000000, 0.000000)">
                            <mask id="mask-8" fill="white">
                                <use xlink:href="#path-7"></use>
                            </mask>
                            <g id="Clip-30"></g>
                            <path d="M0.7311,14.7492 C0.7311,9.9142 3.5111,6.5892 7.6211,6.5892 C9.8281,6.5892 10.9161,7.4062 11.9131,8.7052 L12.0041,8.7052 L12.0041,0.8782 L17.7151,0.8782 L17.7151,22.4862 L12.2761,22.4862 L12.2761,20.3412 L12.2151,20.3412 C11.2171,22.0632 9.5861,23.0002 7.6821,23.0002 C3.6931,23.0002 0.7311,20.0682 0.7311,14.7492 M12.1561,14.6582 C12.1561,12.4532 11.0071,10.6992 9.3141,10.6992 C7.6521,10.6992 6.5331,12.3012 6.5331,14.6582 C6.5331,17.0162 7.6211,18.6782 9.3141,18.6782 C11.0071,18.6782 12.1561,16.8952 12.1561,14.6582" id="Fill-29" fill="#231F20" mask="url(#mask-8)"></path>
                        </g>
                        <mask id="mask-10" fill="white">
                            <use xlink:href="#path-9"></use>
                        </mask>
                        <g id="Clip-33"></g>
                        <path d="M255.77,5.199 L261.482,5.199 L261.482,0.878 L255.77,0.878 L255.77,5.199 Z M255.77,22.487 L261.482,22.487 L261.482,7.074 L255.77,7.074 L255.77,22.487 Z" id="Fill-32" fill="#231F20" mask="url(#mask-10)"></path>
                        <path d="M272.9677,20.7035 L272.9067,20.7035 C271.9087,22.0635 270.3377,22.8795 267.9807,22.8795 C265.0197,22.8795 262.8427,21.2775 262.8427,18.2555 C262.8427,14.8405 265.4717,13.8435 268.4347,13.5105 C271.6977,13.1485 272.5737,12.7555 272.5737,11.7875 C272.5737,10.9415 272.1817,10.3075 270.9437,10.3075 C269.7037,10.3075 269.0677,11.0325 268.9177,12.1505 L263.5077,12.1505 C263.6287,9.0985 265.9867,6.5895 270.8217,6.5895 C273.1777,6.5895 275.1417,7.0735 276.4127,8.0095 C277.6817,9.0075 278.2547,10.1865 278.2547,12.2415 L278.2547,18.0745 C278.2547,19.0715 278.6477,19.1625 279.2237,19.0715 L279.3137,19.0715 L279.3137,22.3045 C278.8897,22.4865 277.8627,22.7585 276.8057,22.7585 C274.5077,22.7585 273.3297,22.1245 272.9677,20.7035 M272.7247,16.8955 L272.7247,15.5355 C272.1817,15.8075 271.4857,16.0495 270.5187,16.2605 C268.8567,16.6235 268.3427,17.1065 268.3427,18.0135 C268.3427,19.0405 269.1897,19.4945 270.1267,19.4945 C271.4557,19.4945 272.7247,18.7385 272.7247,16.8955" id="Fill-34" fill="#231F20" mask="url(#mask-10)"></path>
                    </g>
                </g>
            </g>
        </g>
    </g>
</svg>