<?xml version="1.0" encoding="UTF-8"?>
<svg width="817px" height="244px" viewBox="0 0 817 244" version="1.1" xmlns="http://www.w3.org/2000/svg" xmlns:xlink="http://www.w3.org/1999/xlink">
    <!-- Generator: sketchtool 52.4 (67378) - http://www.bohemiancoding.com/sketch -->
    <title>ED1814C0-A9B5-4B47-B38B-514F4A234DAD</title>
    <desc>Created with sketchtool.</desc>
    <defs>
        <rect id="path-1" x="0" y="0" width="817" height="244"></rect>
        <rect id="path-3" x="0" y="0" width="320" height="320"></rect>
        <rect id="path-5" x="0" y="0" width="320" height="320"></rect>
        <rect id="path-7" x="0" y="0" width="320" height="320"></rect>
    </defs>
    <g id="Page-1" stroke="none" stroke-width="1" fill="none" fill-rule="evenodd">
        <g id="Main-page_1920-90_Final-(I-hope)" transform="translate(-715.000000, -8671.000000)">
            <g id="Purple-section" transform="translate(-10.000000, 7534.000000)">
                <g id="Fact" transform="translate(725.000000, 1137.000000)">
                    <g id="Pattern-Copy">
                        <mask id="mask-2" fill="white">
                            <use xlink:href="#path-1"></use>
                        </mask>
                        <g id="Rectangle-Copy-2"></g>
                        <g id="Elements-/-Pattern-1" opacity="0.200000003" mask="url(#mask-2)">
                            <g transform="translate(497.000000, -38.000000)" id="Pattern-1">
                                <g>
                                    <mask id="mask-4" fill="white">
                                        <use xlink:href="#path-3"></use>
                                    </mask>
                                    <g id="Rectangle"></g>
                                    <path d="M-1.32629395,43.3262939 L50.109375,-8.109375 L-1.32629395,43.3262939 Z M-2.58532715,14.5853271 L13.9897461,-1.98974609 L-2.58532715,14.5853271 Z M-1.90136719,33.9013672 L32.9362488,-0.936248779 L-1.90136719,33.9013672 Z M-0.760559082,2.76055908 L2.77453613,-0.774536133 L-0.760559082,2.76055908 Z M-2.58532715,24.5853271 L24.4500732,-2.45007324 L-2.58532715,24.5853271 Z M-2.26818848,104.268188 L107.807861,-5.80786133 L-2.26818848,104.268188 Z M-0.9921875,113.567627 L118.383301,-5.80786133 L-0.9921875,113.567627 Z M-4.80541992,126.80542 L121.650879,0.349121094 L-4.80541992,126.80542 Z M-1.87988281,53.8798828 L54.963623,-2.96362305 L-1.87988281,53.8798828 Z M-3.08630371,65.0863037 L64.092041,-2.09204102 L-3.08630371,65.0863037 Z M-2.26818848,164.268188 L167.807861,-5.80786133 L-2.26818848,164.268188 Z M-2.26818848,174.268188 L172.552246,-0.552246094 L-2.26818848,174.268188 Z M-1.90136719,183.901367 L184.092041,-2.09204102 L-1.90136719,183.901367 Z M-1.32629395,193.326294 L193.120605,-1.12060547 L-1.32629395,193.326294 Z M-0.9921875,202.992188 L204.092041,-2.09204102 L-0.9921875,202.992188 Z M-4.12756348,216.127563 L214.450073,-2.45007324 L-4.12756348,216.127563 Z M-4.12756348,226.127563 L222.552246,-0.552246094 L-4.12756348,226.127563 Z M-3.08630371,235.086304 L232.552246,-0.552246094 L-3.08630371,235.086304 Z M-3.08630371,245.086304 L243.120605,-1.12060547 L-3.08630371,245.086304 Z M-2.26818848,254.268188 L254.092041,-2.09204102 L-2.26818848,254.268188 Z M-7.21948242,269.219482 L262.552246,-0.552246094 L-7.21948242,269.219482 Z M-3.08630371,275.086304 L274.092041,-2.09204102 L-3.08630371,275.086304 Z M-4.12756348,286.127563 L283.120605,-1.12060547 L-4.12756348,286.127563 Z M-6.24267578,298.242676 L293.120605,-1.12060547 L-6.24267578,298.242676 Z M-4.80541992,306.80542 L304.450073,-2.45007324 L-4.80541992,306.80542 Z M-3.08630371,315.086304 L314.963623,-2.96362305 L-3.08630371,315.086304 Z M-0.109008789,322.109009 L322,0 L-0.109008789,322.109009 Z M9.89099121,322.109009 L328.400146,3.59985352 L9.89099121,322.109009 Z M20.5,321.5 L338.400146,3.59985352 L20.5,321.5 Z M30.5,321.5 L348.400146,3.59985352 L30.5,321.5 Z M40.5,321.5 L358.400146,3.59985352 L40.5,321.5 Z M49.8909912,322.109009 L368.400146,3.59985352 L49.8909912,322.109009 Z M59.8909912,322.109009 L378.400146,3.59985352 L59.8909912,322.109009 Z M67.8081055,324.191895 L388.400146,3.59985352 L67.8081055,324.191895 Z M76.381958,325.618042 L398.400146,3.59985352 L76.381958,325.618042 Z M89.8909912,322.109009 L408.400146,3.59985352 L89.8909912,322.109009 Z M100.5,321.5 L418.400146,3.59985352 L100.5,321.5 Z M109.890991,322.109009 L428.400146,3.59985352 L109.890991,322.109009 Z M119.890991,322.109009 L438.400146,3.59985352 L119.890991,322.109009 Z M130.834595,321.165405 L448.400146,3.59985352 L130.834595,321.165405 Z M140.5,321.5 L458.400146,3.59985352 L140.5,321.5 Z M148.370239,323.629761 L468.400146,3.59985352 L148.370239,323.629761 Z M159.576294,322.423706 L478.400146,3.59985352 L159.576294,322.423706 Z M170.5,321.5 L488.400146,3.59985352 L170.5,321.5 Z M179.576294,322.423706 L498.400146,3.59985352 L179.576294,322.423706 Z M189.576294,322.423706 L508.400146,3.59985352 L189.576294,322.423706 Z M200.5,321.5 L518.400146,3.59985352 L200.5,321.5 Z M211.182983,320.817017 L528.400146,3.59985352 L211.182983,320.817017 Z M219.890991,322.109009 L538.400146,3.59985352 L219.890991,322.109009 Z M231.182983,320.817017 L548.400146,3.59985352 L231.182983,320.817017 Z M238.370239,323.629761 L558.400146,3.59985352 L238.370239,323.629761 Z M248.370239,323.629761 L568.400146,3.59985352 L248.370239,323.629761 Z M258.370239,323.629761 L578.400146,3.59985352 L258.370239,323.629761 Z M268.370239,323.629761 L588.400146,3.59985352 L268.370239,323.629761 Z M278.370239,323.629761 L598.400146,3.59985352 L278.370239,323.629761 Z M288.370239,323.629761 L608.400146,3.59985352 L288.370239,323.629761 Z M298.370239,323.629761 L618.400146,3.59985352 L298.370239,323.629761 Z M308.370239,323.629761 L628.400146,3.59985352 L308.370239,323.629761 Z M-2.26818848,154.268188 L152.552246,-0.552246094 L-2.26818848,154.268188 Z M-6.24267578,148.242676 L143.120605,-1.12060547 L-6.24267578,148.242676 Z M-4.80541992,136.80542 L132.552246,-0.552246094 L-4.80541992,136.80542 Z M-1.56103516,73.5610352 L72.5522461,-0.552246094 L-1.56103516,73.5610352 Z M-1.32629395,83.3262939 L82.5522461,-0.552246094 L-1.32629395,83.3262939 Z M-3.08630371,95.0863037 L93.1206055,-1.12060547 L-3.08630371,95.0863037 Z" id="Combined-Shape" stroke="#DEDEDE" stroke-linecap="square" mask="url(#mask-4)"></path>
                                </g>
                            </g>
                        </g>
                        <g id="Elements-/-Pattern-1" opacity="0.200000003" mask="url(#mask-2)">
                            <g transform="translate(177.000000, -38.000000)" id="Pattern-1">
                                <g>
                                    <mask id="mask-6" fill="white">
                                        <use xlink:href="#path-5"></use>
                                    </mask>
                                    <g id="Rectangle"></g>
                                    <path d="M-1.32629395,43.3262939 L50.109375,-8.109375 L-1.32629395,43.3262939 Z M-2.58532715,14.5853271 L13.9897461,-1.98974609 L-2.58532715,14.5853271 Z M-1.90136719,33.9013672 L32.9362488,-0.936248779 L-1.90136719,33.9013672 Z M-0.760559082,2.76055908 L2.77453613,-0.774536133 L-0.760559082,2.76055908 Z M-2.58532715,24.5853271 L24.4500732,-2.45007324 L-2.58532715,24.5853271 Z M-2.26818848,104.268188 L107.807861,-5.80786133 L-2.26818848,104.268188 Z M-0.9921875,113.567627 L118.383301,-5.80786133 L-0.9921875,113.567627 Z M-4.80541992,126.80542 L121.650879,0.349121094 L-4.80541992,126.80542 Z M-1.87988281,53.8798828 L54.963623,-2.96362305 L-1.87988281,53.8798828 Z M-3.08630371,65.0863037 L64.092041,-2.09204102 L-3.08630371,65.0863037 Z M-2.26818848,164.268188 L167.807861,-5.80786133 L-2.26818848,164.268188 Z M-2.26818848,174.268188 L172.552246,-0.552246094 L-2.26818848,174.268188 Z M-1.90136719,183.901367 L184.092041,-2.09204102 L-1.90136719,183.901367 Z M-1.32629395,193.326294 L193.120605,-1.12060547 L-1.32629395,193.326294 Z M-0.9921875,202.992188 L204.092041,-2.09204102 L-0.9921875,202.992188 Z M-4.12756348,216.127563 L214.450073,-2.45007324 L-4.12756348,216.127563 Z M-4.12756348,226.127563 L222.552246,-0.552246094 L-4.12756348,226.127563 Z M-3.08630371,235.086304 L232.552246,-0.552246094 L-3.08630371,235.086304 Z M-3.08630371,245.086304 L243.120605,-1.12060547 L-3.08630371,245.086304 Z M-2.26818848,254.268188 L254.092041,-2.09204102 L-2.26818848,254.268188 Z M-7.21948242,269.219482 L262.552246,-0.552246094 L-7.21948242,269.219482 Z M-3.08630371,275.086304 L274.092041,-2.09204102 L-3.08630371,275.086304 Z M-4.12756348,286.127563 L283.120605,-1.12060547 L-4.12756348,286.127563 Z M-6.24267578,298.242676 L293.120605,-1.12060547 L-6.24267578,298.242676 Z M-4.80541992,306.80542 L304.450073,-2.45007324 L-4.80541992,306.80542 Z M-3.08630371,315.086304 L314.963623,-2.96362305 L-3.08630371,315.086304 Z M-0.109008789,322.109009 L322,0 L-0.109008789,322.109009 Z M9.89099121,322.109009 L328.400146,3.59985352 L9.89099121,322.109009 Z M20.5,321.5 L338.400146,3.59985352 L20.5,321.5 Z M30.5,321.5 L348.400146,3.59985352 L30.5,321.5 Z M40.5,321.5 L358.400146,3.59985352 L40.5,321.5 Z M49.8909912,322.109009 L368.400146,3.59985352 L49.8909912,322.109009 Z M59.8909912,322.109009 L378.400146,3.59985352 L59.8909912,322.109009 Z M67.8081055,324.191895 L388.400146,3.59985352 L67.8081055,324.191895 Z M76.381958,325.618042 L398.400146,3.59985352 L76.381958,325.618042 Z M89.8909912,322.109009 L408.400146,3.59985352 L89.8909912,322.109009 Z M100.5,321.5 L418.400146,3.59985352 L100.5,321.5 Z M109.890991,322.109009 L428.400146,3.59985352 L109.890991,322.109009 Z M119.890991,322.109009 L438.400146,3.59985352 L119.890991,322.109009 Z M130.834595,321.165405 L448.400146,3.59985352 L130.834595,321.165405 Z M140.5,321.5 L458.400146,3.59985352 L140.5,321.5 Z M148.370239,323.629761 L468.400146,3.59985352 L148.370239,323.629761 Z M159.576294,322.423706 L478.400146,3.59985352 L159.576294,322.423706 Z M170.5,321.5 L488.400146,3.59985352 L170.5,321.5 Z M179.576294,322.423706 L498.400146,3.59985352 L179.576294,322.423706 Z M189.576294,322.423706 L508.400146,3.59985352 L189.576294,322.423706 Z M200.5,321.5 L518.400146,3.59985352 L200.5,321.5 Z M211.182983,320.817017 L528.400146,3.59985352 L211.182983,320.817017 Z M219.890991,322.109009 L538.400146,3.59985352 L219.890991,322.109009 Z M231.182983,320.817017 L548.400146,3.59985352 L231.182983,320.817017 Z M238.370239,323.629761 L558.400146,3.59985352 L238.370239,323.629761 Z M248.370239,323.629761 L568.400146,3.59985352 L248.370239,323.629761 Z M258.370239,323.629761 L578.400146,3.59985352 L258.370239,323.629761 Z M268.370239,323.629761 L588.400146,3.59985352 L268.370239,323.629761 Z M278.370239,323.629761 L598.400146,3.59985352 L278.370239,323.629761 Z M288.370239,323.629761 L608.400146,3.59985352 L288.370239,323.629761 Z M298.370239,323.629761 L618.400146,3.59985352 L298.370239,323.629761 Z M308.370239,323.629761 L628.400146,3.59985352 L308.370239,323.629761 Z M-2.26818848,154.268188 L152.552246,-0.552246094 L-2.26818848,154.268188 Z M-6.24267578,148.242676 L143.120605,-1.12060547 L-6.24267578,148.242676 Z M-4.80541992,136.80542 L132.552246,-0.552246094 L-4.80541992,136.80542 Z M-1.56103516,73.5610352 L72.5522461,-0.552246094 L-1.56103516,73.5610352 Z M-1.32629395,83.3262939 L82.5522461,-0.552246094 L-1.32629395,83.3262939 Z M-3.08630371,95.0863037 L93.1206055,-1.12060547 L-3.08630371,95.0863037 Z" id="Combined-Shape" stroke="#DEDEDE" stroke-linecap="square" mask="url(#mask-6)"></path>
                                </g>
                            </g>
                        </g>
                        <g id="Elements-/-Pattern-1" opacity="0.200000003" mask="url(#mask-2)">
                            <g transform="translate(-143.000000, -38.000000)" id="Pattern-1">
                                <g>
                                    <mask id="mask-8" fill="white">
                                        <use xlink:href="#path-7"></use>
                                    </mask>
                                    <g id="Rectangle"></g>
                                    <path d="M-1.32629395,43.3262939 L50.109375,-8.109375 L-1.32629395,43.3262939 Z M-2.58532715,14.5853271 L13.9897461,-1.98974609 L-2.58532715,14.5853271 Z M-1.90136719,33.9013672 L32.9362488,-0.936248779 L-1.90136719,33.9013672 Z M-0.760559082,2.76055908 L2.77453613,-0.774536133 L-0.760559082,2.76055908 Z M-2.58532715,24.5853271 L24.4500732,-2.45007324 L-2.58532715,24.5853271 Z M-2.26818848,104.268188 L107.807861,-5.80786133 L-2.26818848,104.268188 Z M-0.9921875,113.567627 L118.383301,-5.80786133 L-0.9921875,113.567627 Z M-4.80541992,126.80542 L121.650879,0.349121094 L-4.80541992,126.80542 Z M-1.87988281,53.8798828 L54.963623,-2.96362305 L-1.87988281,53.8798828 Z M-3.08630371,65.0863037 L64.092041,-2.09204102 L-3.08630371,65.0863037 Z M-2.26818848,164.268188 L167.807861,-5.80786133 L-2.26818848,164.268188 Z M-2.26818848,174.268188 L172.552246,-0.552246094 L-2.26818848,174.268188 Z M-1.90136719,183.901367 L184.092041,-2.09204102 L-1.90136719,183.901367 Z M-1.32629395,193.326294 L193.120605,-1.12060547 L-1.32629395,193.326294 Z M-0.9921875,202.992188 L204.092041,-2.09204102 L-0.9921875,202.992188 Z M-4.12756348,216.127563 L214.450073,-2.45007324 L-4.12756348,216.127563 Z M-4.12756348,226.127563 L222.552246,-0.552246094 L-4.12756348,226.127563 Z M-3.08630371,235.086304 L232.552246,-0.552246094 L-3.08630371,235.086304 Z M-3.08630371,245.086304 L243.120605,-1.12060547 L-3.08630371,245.086304 Z M-2.26818848,254.268188 L254.092041,-2.09204102 L-2.26818848,254.268188 Z M-7.21948242,269.219482 L262.552246,-0.552246094 L-7.21948242,269.219482 Z M-3.08630371,275.086304 L274.092041,-2.09204102 L-3.08630371,275.086304 Z M-4.12756348,286.127563 L283.120605,-1.12060547 L-4.12756348,286.127563 Z M-6.24267578,298.242676 L293.120605,-1.12060547 L-6.24267578,298.242676 Z M-4.80541992,306.80542 L304.450073,-2.45007324 L-4.80541992,306.80542 Z M-3.08630371,315.086304 L314.963623,-2.96362305 L-3.08630371,315.086304 Z M-0.109008789,322.109009 L322,0 L-0.109008789,322.109009 Z M9.89099121,322.109009 L328.400146,3.59985352 L9.89099121,322.109009 Z M20.5,321.5 L338.400146,3.59985352 L20.5,321.5 Z M30.5,321.5 L348.400146,3.59985352 L30.5,321.5 Z M40.5,321.5 L358.400146,3.59985352 L40.5,321.5 Z M49.8909912,322.109009 L368.400146,3.59985352 L49.8909912,322.109009 Z M59.8909912,322.109009 L378.400146,3.59985352 L59.8909912,322.109009 Z M67.8081055,324.191895 L388.400146,3.59985352 L67.8081055,324.191895 Z M76.381958,325.618042 L398.400146,3.59985352 L76.381958,325.618042 Z M89.8909912,322.109009 L408.400146,3.59985352 L89.8909912,322.109009 Z M100.5,321.5 L418.400146,3.59985352 L100.5,321.5 Z M109.890991,322.109009 L428.400146,3.59985352 L109.890991,322.109009 Z M119.890991,322.109009 L438.400146,3.59985352 L119.890991,322.109009 Z M130.834595,321.165405 L448.400146,3.59985352 L130.834595,321.165405 Z M140.5,321.5 L458.400146,3.59985352 L140.5,321.5 Z M148.370239,323.629761 L468.400146,3.59985352 L148.370239,323.629761 Z M159.576294,322.423706 L478.400146,3.59985352 L159.576294,322.423706 Z M170.5,321.5 L488.400146,3.59985352 L170.5,321.5 Z M179.576294,322.423706 L498.400146,3.59985352 L179.576294,322.423706 Z M189.576294,322.423706 L508.400146,3.59985352 L189.576294,322.423706 Z M200.5,321.5 L518.400146,3.59985352 L200.5,321.5 Z M211.182983,320.817017 L528.400146,3.59985352 L211.182983,320.817017 Z M219.890991,322.109009 L538.400146,3.59985352 L219.890991,322.109009 Z M231.182983,320.817017 L548.400146,3.59985352 L231.182983,320.817017 Z M238.370239,323.629761 L558.400146,3.59985352 L238.370239,323.629761 Z M248.370239,323.629761 L568.400146,3.59985352 L248.370239,323.629761 Z M258.370239,323.629761 L578.400146,3.59985352 L258.370239,323.629761 Z M268.370239,323.629761 L588.400146,3.59985352 L268.370239,323.629761 Z M278.370239,323.629761 L598.400146,3.59985352 L278.370239,323.629761 Z M288.370239,323.629761 L608.400146,3.59985352 L288.370239,323.629761 Z M298.370239,323.629761 L618.400146,3.59985352 L298.370239,323.629761 Z M308.370239,323.629761 L628.400146,3.59985352 L308.370239,323.629761 Z M-2.26818848,154.268188 L152.552246,-0.552246094 L-2.26818848,154.268188 Z M-6.24267578,148.242676 L143.120605,-1.12060547 L-6.24267578,148.242676 Z M-4.80541992,136.80542 L132.552246,-0.552246094 L-4.80541992,136.80542 Z M-1.56103516,73.5610352 L72.5522461,-0.552246094 L-1.56103516,73.5610352 Z M-1.32629395,83.3262939 L82.5522461,-0.552246094 L-1.32629395,83.3262939 Z M-3.08630371,95.0863037 L93.1206055,-1.12060547 L-3.08630371,95.0863037 Z" id="Combined-Shape" stroke="#DEDEDE" stroke-linecap="square" mask="url(#mask-8)"></path>
                                </g>
                            </g>
                        </g>
                    </g>
                </g>
            </g>
        </g>
    </g>
</svg>