<?xml version="1.0" encoding="UTF-8"?>
<svg width="84px" height="64px" viewBox="0 0 84 64" version="1.1" xmlns="http://www.w3.org/2000/svg" xmlns:xlink="http://www.w3.org/1999/xlink">
    <!-- Generator: sketchtool 52.4 (67378) - http://www.bohemiancoding.com/sketch -->
    <title>A3E4B949-4923-45FA-884A-399869FBDE9A</title>
    <desc>Created with sketchtool.</desc>
    <defs>
        <polygon id="path-1" points="0 0 84 0 84 64 0 64"></polygon>
    </defs>
    <g id="Page-1" stroke="none" stroke-width="1" fill="none" fill-rule="evenodd">
        <g id="Logos-b&amp;w" transform="translate(-941.000000, -296.000000)">
            <g id="Clients" transform="translate(100.000000, 296.000000)">
                <g id="thyssenkrupp" transform="translate(841.000000, 0.000000)">
                    <mask id="mask-2" fill="white">
                        <use xlink:href="#path-1"></use>
                    </mask>
                    <g id="Clip-2"></g>
                    <path d="M43.80213,0 L41.1292033,0 C41.110746,0.00996532195 41.08179,-0.000675615047 41.0709527,0.0236465267 C41.0408113,0.0903635126 39.7257687,0.24558607 39.6053727,0.270414923 C39.1525754,0.363311992 38.6479621,0.48086901 38.1987207,0.614134078 C35.6861528,1.35967528 33.2738301,2.86680355 31.6062355,4.66427738 C29.2213449,7.23499264 27.8084276,10.0278163 27.5114169,14.7228342 C24.0597263,16.0271091 21.0088477,19.4225814 19.588141,22.8756499 C17.7698397,27.294679 18.4002677,32.226331 20.5921183,35.9479565 C22.4353116,39.0775743 25.6951476,41.8668511 29.7400129,42.8740242 C37.4443407,44.792602 42.2322407,40.3739107 42.5035127,40.3713771 L45.0641713,41.8749584 C52.0132725,45.317386 60.7574764,42.533852 64.537843,35.9241411 C67.8718469,30.0947656 67.0893576,22.7435671 62.338203,18.0309833 C60.797947,16.5030799 59.6605351,15.7489246 57.5271044,14.6985121 C57.3648831,12.3330149 57.1179951,10.7948083 56.2645551,8.92065218 C54.4093391,4.84736906 51.1356179,1.93850847 46.8115219,0.613458463 C45.3323953,0.160120766 44.914142,0.25639591 44.0447846,0.0765134041 C44.0222633,0.0719530025 44.0031286,0.0675615047 43.9817926,0.0621565843 L43.80213,0 Z M29.0528582,14.0923165 C29.6446782,14.0276263 30.6093702,13.6459038 31.9347422,13.5177059 C33.1783261,13.3974464 34.0808728,13.5128077 35.2545221,13.5036869 C37.8146727,8.76694976 42.4181687,4.87186011 46.9837339,9.67615871 C47.8759512,10.6150947 49.1334206,12.1316816 49.8209139,13.5102741 C51.9682298,13.4898367 52.3030018,13.3217775 54.4936671,13.7464016 C54.9865965,13.8420011 55.5330351,14.0462057 55.9587391,14.089614 C55.9602631,12.3414601 55.2529578,10.2718823 54.5971298,8.96845194 C50.6657179,1.15462612 40.30963,-1.24431401 33.2059275,5.23483429 C31.3073622,6.96643566 29.1256715,10.5105433 29.0528582,14.0923165 Z M58.5879777,39.8491267 C59.2058751,39.6129993 60.6518124,38.3477412 61.1968964,37.7927234 C65.6618776,33.2453274 66.3903496,25.9833102 62.573407,20.6555788 C61.9360364,19.7661316 61.1381377,18.8937437 60.3226284,18.2085011 C59.988195,17.9272764 58.0097044,16.3752197 57.4561538,16.3860295 C57.1889458,19.0994685 56.2701431,21.3190328 54.8802551,23.3514518 C54.4735165,23.9463308 54.2772591,23.8088432 54.5368471,24.6337691 C55.5724898,27.9270547 56.2056271,30.2346179 57.1149471,33.6491763 C57.3181471,34.4127902 58.4906111,39.7102878 58.5879777,39.8491267 Z M26.4923689,39.845073 L27.9501596,33.6321171 C28.4156569,31.5753759 29.7621955,26.7421948 30.5023515,24.6788664 C30.8200208,23.793304 30.3633289,23.8517447 29.4277622,22.2127026 C28.9675142,21.406525 28.5540022,20.4893775 28.2574996,19.5735813 C28.1049302,19.1026777 27.9545622,18.5917438 27.8478822,18.0693244 C27.7347676,17.5156579 27.6868462,16.8940921 27.5732236,16.3689703 C26.8737076,16.5331447 25.2394716,17.7742496 24.7428169,18.1943132 C22.1430423,20.3925957 20.263273,23.8628924 20.063121,27.566783 C19.8414637,31.670131 21.345313,35.1667766 23.8758303,37.8003241 C24.2039983,38.1416786 25.9310289,39.701167 26.4923689,39.845073 Z M48.5148459,28.6643196 C48.2806579,32.2080894 47.5589592,34.6222309 45.5738646,37.2998622 C45.3061486,37.6611474 44.9869553,38.0457412 44.7060313,38.3411539 C44.554986,38.5000924 43.8400606,39.2029009 43.7714806,39.367751 C44.1321606,39.7876457 45.7555593,40.5656165 46.4569379,40.8441388 C47.5071432,41.2609933 48.6271139,41.5717762 49.8527485,41.714331 C51.1820152,41.8688779 52.5735965,41.8325636 53.8789871,41.6192381 C54.6944965,41.4859731 56.5619044,41.0127047 57.0995378,40.6140919 C57.0925951,40.0511356 56.4667391,37.3986709 56.2982524,36.6679933 C56.0081844,35.4108426 55.6754444,34.0773474 55.3491391,32.8443499 C55.0187698,31.59632 54.7017778,30.3464322 54.3246725,29.1132658 C53.9917631,28.0245122 53.6287125,26.489177 53.1835352,25.4838618 C52.5664845,26.2537251 50.8345432,27.414094 49.8305659,27.9883668 C49.4341565,28.2150356 48.8606246,28.4290367 48.5148459,28.6643196 Z M27.9645529,40.6140919 C28.4749235,40.9931119 30.3177782,41.4675626 31.1647835,41.6065704 C33.7647275,42.0335591 36.0659674,41.787973 38.5072461,40.8757238 C39.2848247,40.5850404 40.776482,39.8367967 41.2506153,39.367751 C41.199646,39.2549233 39.9777367,38.0099337 39.479558,37.3290826 C37.5462794,34.6875967 36.7216261,32.2401811 36.5153781,28.6643196 C36.3082834,28.5008208 35.5855688,28.1930781 35.2826314,28.0263701 C33.5401915,27.0673345 32.0424382,25.6156067 31.8497368,25.5140955 C31.0714808,27.1881007 27.9535462,39.25543 27.9645529,40.6140919 Z M38.0605447,27.6780905 C38.7289034,27.8169294 39.3364714,28.0542392 40.123702,28.1920647 C42.084074,28.5352771 45.3960646,28.4626485 46.9613819,27.6380604 C47.1132739,25.3882622 45.5946926,21.9657653 44.1873633,20.1657579 C43.8957713,19.7931562 42.9082193,18.6022158 42.5035127,18.412368 C42.1010073,18.6376856 41.1816967,19.7200209 40.8579314,20.1311327 C40.3666954,20.7545564 39.8741047,21.5176636 39.5134247,22.2353357 C38.8007007,23.6537895 38.0622381,25.7286033 38.0605447,27.6780905 Z M71.2205829,54.1500393 L71.1496322,53.3114321 L69.6996309,53.3058583 L69.6771096,63.838528 L71.2541109,63.8425817 L71.2679962,60.6796899 C71.9615855,60.8730847 71.7756575,61.386721 73.0551402,61.4625588 C73.8408468,61.5090073 74.6233361,61.3730398 75.0834148,60.9658128 C76.0948428,60.0706229 76.2167628,58.7619565 76.2147308,57.1088954 C76.2128681,55.4904596 76.0034028,54.0644051 74.8941001,53.439799 C74.1385348,53.0144993 72.6925975,52.9447421 71.8521962,53.5619164 C71.5885442,53.7554801 71.5749975,53.8218593 71.4058335,53.9975192 C71.2783255,54.1299398 71.3711202,54.0718369 71.2205829,54.1500393 Z M84,58.1160686 L84,56.3162301 C83.8611467,56.0275735 83.778004,54.9146667 83.5527907,54.4039017 C83.0143107,53.1822208 81.3942987,52.8969423 80.2724654,53.2376212 C79.5128361,53.4685126 79.2295414,54.0762284 78.9636881,54.1667608 L78.8978174,53.3078852 L77.4642414,53.3161615 L77.4725388,63.8503513 L78.9790974,63.8182596 L78.9909507,60.6146619 C79.5316321,60.9109191 79.7104481,61.342806 80.5251107,61.4436416 C81.8462494,61.6074782 83.0681587,61.2627456 83.557532,59.9674227 C83.9815427,58.845395 83.837948,58.4498224 84,58.1160686 Z M42.5035127,38.3406472 C43.379474,37.8722771 44.9204073,35.7114913 45.4949553,34.5876056 C46.1819406,33.2436384 47.0011753,31.0747452 46.9652766,29.2629145 C46.5553206,29.2826763 45.4378899,29.6179502 44.87147,29.7189547 C43.31191,29.9968014 41.697994,29.9704524 40.128782,29.718448 C39.493274,29.6164301 38.5451767,29.2923038 38.0453047,29.2634213 C38.0117767,30.9046591 38.8625074,33.319814 39.4929354,34.5347388 C39.994162,35.5010372 41.6356793,37.9256507 42.5035127,38.3406472 Z M36.5924248,26.9502842 C37.0037354,23.8870456 37.7570994,21.7105517 39.5757394,19.363634 C39.832618,19.0322448 40.0964394,18.6888634 40.3719447,18.3995313 C40.5866594,18.1738759 41.1515553,17.6680091 41.2521393,17.4479275 C40.5253607,16.652053 37.4285927,15.2895063 35.9443861,15.2190735 L34.4158141,18.5307695 C34.2132915,19.0028555 32.4005782,23.4507672 32.4578128,23.8137414 C32.5318115,24.2814359 35.7142621,26.8774867 36.5924248,26.9502842 Z M43.77419,17.4479275 C43.8451406,17.6045013 45.0155726,18.7630122 45.4216339,19.2975926 C47.2446766,21.6975461 48.0557832,23.770502 48.4731899,26.959405 C49.3191792,26.8469151 52.4701338,24.3017043 52.5929005,23.8591765 C52.6418378,23.6830099 52.1346845,22.3520482 52.0103938,22.0380561 C51.5430338,20.8580944 51.1051379,19.6956988 50.6337139,18.5746845 C50.3592245,17.9220404 49.3845419,15.6524805 49.0401179,15.2471115 C47.7142379,15.2067435 44.3880233,16.753733 43.77419,17.4479275 Z M36.8765661,13.7823781 C37.9787567,14.2868936 38.7893554,14.1436632 41.225554,15.5720823 C42.9986433,16.611685 41.976378,16.6616805 43.794002,15.5806964 C45.1642473,14.7659047 46.6299966,14.1860581 48.1856619,13.8041666 C47.9961779,13.09798 46.3585553,11.1606539 45.9699353,10.7623788 C43.605534,8.33894762 41.376938,8.43268921 39.0734967,10.7981864 C38.6667581,11.2158854 37.0299821,13.1648659 36.8765661,13.7823781 Z M40.008894,59.8947941 C39.8277074,59.745821 39.1100727,59.3534575 38.8311807,59.3257573 C37.5762514,60.9911484 35.0223661,60.2250009 35.3844008,57.7848483 L40.1370794,57.7723494 C40.331474,55.5987269 39.9477647,53.4693572 38.0124541,53.1651615 C35.6468674,52.7934043 34.2483435,53.8051378 33.9423581,55.8122212 C33.6417915,57.7838349 33.8385568,60.2221296 35.2379274,61.0634392 C36.6962261,61.9402186 39.6499074,61.469146 40.008894,59.8947941 Z M5.47403858,61.2100477 L6.96586522,61.2264313 C7.04629855,59.930095 6.98076656,58.4184063 6.97856522,57.1085576 C6.97348522,53.9846825 9.46336252,54.0971724 9.94765584,55.0778277 C10.1958985,55.5806542 10.1122478,56.411154 10.1122478,57.0355912 C10.1122478,58.378545 10.0495945,59.8794238 10.1257945,61.2031226 L11.6250718,61.2178172 C11.6719771,59.9961363 11.7469918,55.3224003 11.4740265,54.5072708 C10.8918585,52.7690822 8.76875719,52.9719356 7.92598521,53.3867632 C7.45439188,53.6186681 7.20716522,54.0429543 6.99431322,54.1392295 L6.97822656,50.5534026 L5.47556258,50.5476599 L5.47403858,61.2100477 Z M49.6375259,61.2043049 L51.1476405,61.2205197 C51.1877725,60.3734673 51.1682992,59.4738859 51.1589859,58.6469331 C51.1510272,57.9382129 51.1564459,58.0466491 51.5357525,57.6943159 C51.7672312,57.4793014 52.0046365,57.2169938 52.2594832,57.1203809 C52.8590925,58.125865 53.8662871,60.5489583 54.3280591,61.1982244 L55.9497644,61.2272758 C55.7806004,60.4859572 53.4378738,56.4952681 53.3643832,55.8625546 L55.7926231,53.3541648 C55.3896098,53.2757935 54.3124805,53.2136369 54.0251218,53.3637923 C53.8678111,53.4460484 51.5443885,56.0047715 51.1669445,56.1719863 L51.1584779,50.5461398 L49.6585232,50.5277292 L49.6375259,61.2043049 Z M66.7210576,60.3457671 L66.7471349,61.2051495 L68.1796949,61.2189996 L68.1883309,53.3293359 L66.6914243,53.3065339 C66.5524016,54.3300907 66.6643309,56.2937659 66.6665323,57.4022813 C66.6690723,58.6729443 66.2953536,59.9189473 65.1239056,60.05103 C62.4394643,60.3535367 64.015111,56.7080868 63.5115137,53.3031559 L61.9925937,53.3124456 C61.8488297,54.364716 61.898783,59.3711924 62.1592177,60.1348063 C62.7017617,61.725373 64.8074216,61.7029088 65.7406176,61.1700175 C66.2672443,60.8693688 66.3734163,60.5722671 66.7210576,60.3457671 Z M43.2038753,54.2284107 L43.1700086,53.3127834 L41.7266113,53.3185261 L41.702566,61.1948463 L43.2142046,61.2205197 L43.223518,56.8156785 C43.229614,54.715698 44.9368326,54.0346781 45.9104993,54.7359665 C46.3511046,55.0535055 46.3475486,55.6573365 46.3482259,56.3025489 L46.3487339,61.1892725 L47.8527526,61.22356 C47.9231952,60.0665692 47.9660366,55.2872684 47.7011992,54.4902115 C47.1234339,52.7516851 45.0453753,52.9324121 44.1367326,53.4585473 C43.58623,53.7774376 43.4329833,54.0934566 43.2038753,54.2284107 Z M13.2173131,64 L14.2223064,64 C14.5232118,63.8381902 14.9958211,63.8294072 15.4818078,63.1977071 C15.7568051,62.8403068 15.9891304,62.3319064 16.1647291,61.8995128 C16.5535184,60.9416596 19.4237184,53.6830204 19.443869,53.3031559 L18.0461917,53.3097431 C17.8636504,53.5021245 16.1466104,58.1297498 16.0025077,58.6731132 C15.7927037,58.5033649 15.7767864,58.331083 15.6628251,58.0262118 L14.9135251,55.9836586 C14.6007664,55.1345794 14.2746304,54.0708235 13.9198771,53.3067028 L12.4295745,53.3296738 C12.4488785,53.6147833 14.0131798,57.8887241 14.2389011,58.4937374 C14.8876171,60.2341217 15.4914598,60.9176753 14.4415931,62.2363069 C14.0969998,62.6688695 13.8773744,62.6359332 13.1868331,62.6703896 L13.2173131,64 Z M21.1478703,59.1489151 C20.8679623,59.1789799 20.1115503,59.5515816 19.9008997,59.7480167 C20.305945,61.1009358 22.1725063,61.7507086 23.8341743,61.4221908 C25.6697476,61.0592166 26.3140609,59.3885895 25.5860969,57.9393952 C24.9409369,56.6552199 22.5905903,56.7721013 21.8692303,55.9311295 C21.6198023,55.6401083 21.5107517,55.2749384 21.7214023,54.8405179 C21.888873,54.4949408 22.180973,54.3375225 22.6694996,54.312018 C24.3362476,54.224357 24.0756436,54.7189072 24.6562876,55.2197068 C24.9668449,55.1296811 25.5603583,54.8361264 25.7637276,54.6163826 C25.3864529,53.3038315 23.335149,52.7476314 21.7528983,53.2595787 C20.027053,53.8181434 19.7589984,55.8910993 20.655449,56.8489525 C21.6990503,57.9640552 23.9987663,58.0084769 24.2935756,58.8614409 C24.6352903,59.851048 23.8052183,60.2131777 22.967357,60.2214539 C21.9637183,60.2317571 21.4751917,59.7567997 21.1478703,59.1489151 Z M27.8878449,59.1575291 C27.5901569,59.2193479 26.9026636,59.5735391 26.7082689,59.7480167 C27.2403142,61.7012198 31.2105035,62.2336045 32.3347075,60.2974606 C33.0657195,59.038452 32.7233275,57.3907958 30.6874328,56.8001393 C30.0908715,56.6271819 29.0951915,56.3712927 28.6854049,55.9473443 C28.0625969,55.3028075 28.4930422,54.4037328 29.3563035,54.3182675 C31.0941715,54.1463234 31.0371062,54.8422069 31.4131955,55.2112617 C31.7345902,55.1403221 32.2801822,54.8188982 32.5643235,54.6677294 C32.3678968,53.2428572 29.9110395,52.8319144 28.5755075,53.246742 C26.9253542,53.7595338 26.5018516,55.7546251 27.3986409,56.7908496 C28.4317435,57.9848303 30.6997942,57.981959 31.0492982,58.7849275 C31.4877022,59.7926073 30.6180062,60.2202716 29.7234182,60.2236497 C28.4674729,60.228379 28.4605302,59.6502214 27.8878449,59.1575291 Z M53.7404725,22.3076265 C54.2025831,21.9813045 55.0119965,20.132315 55.2507565,19.4637939 C55.5465818,18.6358277 56.0633871,16.7929187 55.9421444,15.7617612 C55.0226645,15.1334393 51.9844858,14.8691049 50.6699512,14.9797368 C50.7100832,15.2292077 51.3628632,16.4595027 51.4764858,16.709987 C52.0180138,17.903292 52.5632672,19.1655099 53.0096298,20.37807 C53.1914938,20.8721135 53.5152592,21.9262418 53.7404725,22.3076265 Z M29.0631875,15.7617612 C29.0215315,17.5249476 30.4053235,21.6340383 31.3312382,22.3434341 C31.8085888,20.9001515 32.8501581,18.2270806 33.5366355,16.7807576 C33.7093555,16.4166011 34.3374128,15.300654 34.3524835,14.9790612 C32.9123035,14.8961295 30.0451515,15.1238117 29.0631875,15.7617612 Z M0.928962652,53.2823807 L0.00372533327,53.3171749 L0,54.4621735 L0.899498652,54.5055817 C1.37820398,57.1673361 -0.556598658,61.9358271 4.11547727,61.2347076 C4.2192786,60.9369303 4.17084927,60.3646843 4.1684786,60.0224853 C2.49817463,60.0586307 2.47226663,59.7444697 2.47243596,58.1351547 C2.47277463,56.9285062 2.47260529,55.7218577 2.47260529,54.5152093 L4.04164794,54.49815 L4.07365194,53.3278158 L2.48750663,53.2974131 L2.47141996,50.5655637 L0.930994652,50.5447885 L0.928962652,53.2823807 Z M80.5203694,54.4375135 C78.8986641,54.764849 78.9833307,55.9253868 78.9806214,57.5487208 C78.9794361,58.2233224 78.9630107,58.9496086 79.3340201,59.4909452 C79.8696214,60.2728007 82.545088,61.3792892 82.4294334,57.0362668 C82.393196,55.6728756 82.0733254,54.124197 80.5203694,54.4375135 Z M72.6749868,54.4341355 C71.1901029,54.7043815 71.2664722,56.0890545 71.2649482,57.6220251 C71.2641015,58.4108056 71.2397175,59.0379453 71.6334175,59.5574933 C71.9416042,59.9643824 72.6560215,60.2935759 73.3316615,60.1641956 C74.6346815,59.9147247 74.6516148,58.3109835 74.6428095,56.9609357 C74.6334961,55.5443399 74.2704455,54.143621 72.6749868,54.4341355 Z M56.9732151,61.2022781 L58.4868857,61.2169727 C58.5889937,59.400075 58.0577951,56.4373341 59.2397417,55.3403041 C59.8183537,54.803528 60.1145177,54.9217606 60.9962364,54.8232897 L61.009275,53.3161615 C60.382911,53.2636324 59.7716177,53.4806737 59.4085671,53.7497374 C58.9825244,54.0659252 58.7192111,54.62449 58.4372711,54.8401801 L58.4244017,53.3284914 L56.9972604,53.3051827 L56.9732151,61.2022781 Z M35.4184368,56.6298844 L38.6647261,56.6570779 C38.7358461,56.0958107 38.5444994,55.4293164 38.3578941,55.0060436 C37.8825754,53.9274242 35.2543528,53.7414611 35.4184368,56.6298844 Z" id="Fill-1" fill="#797979" mask="url(#mask-2)"></path>
                </g>
            </g>
        </g>
    </g>
</svg>