<?xml version="1.0" encoding="UTF-8"?>
<svg width="55px" height="45px" viewBox="0 0 55 45" version="1.1" xmlns="http://www.w3.org/2000/svg" xmlns:xlink="http://www.w3.org/1999/xlink">
    <!-- Generator: sketchtool 52.4 (67378) - http://www.bohemiancoding.com/sketch -->
    <title>57E0EA11-2CC0-482F-B41B-C2D2B836FF3E</title>
    <desc>Created with sketchtool.</desc>
    <defs>
        <polygon id="path-1" points="0 0 55 0 55 45 0 45"></polygon>
    </defs>
    <g id="Page-1" stroke="none" stroke-width="1" fill="none" fill-rule="evenodd">
        <g id="Main-page" transform="translate(-648.000000, -2852.000000)">
            <g id="Platforms-logos" transform="translate(383.000000, 2841.000000)">
                <g id="Twitter" transform="translate(265.000000, 11.000000)">
                    <mask id="mask-2" fill="white">
                        <use xlink:href="#path-1"></use>
                    </mask>
                    <g id="Clip-2"></g>
                    <path d="M55,5.32888258 C52.9400426,6.24609826 50.7559707,6.84831935 48.5193224,7.11645525 C50.8757757,5.6959424 52.6392371,3.46234431 53.4804582,0.830447259 C51.2662195,2.15463945 48.8425375,3.0874747 46.3154266,3.58643309 C44.1822071,1.2946955 41.2000094,-0.00346407214 38.0807685,6.94276018e-06 C31.8500439,6.94276018e-06 26.796684,5.08591153 26.796684,11.3615065 C26.796684,12.2518218 26.898389,13.1152368 27.0880085,13.9482803 C17.7061524,13.4727513 9.39478468,8.95262214 3.82772833,2.07827712 C2.82533066,3.81204906 2.29870557,5.78271777 2.30129129,7.78896439 C2.30129129,11.7303018 4.29401993,15.2091265 7.3210368,17.2457445 C5.52913245,17.1884728 3.77687582,16.7016629 2.20992917,15.8243639 C2.20820535,15.8720904 2.20820535,15.9198168 2.20820535,15.96494 C2.20820535,21.4708374 6.09799097,26.0638579 11.2616749,27.1068978 C10.2928916,27.370695 9.29307967,27.5043291 8.28895819,27.5034613 C7.55978499,27.5034613 6.85215947,27.4357765 6.1643578,27.3030102 C7.60115652,31.8153296 11.7658904,35.1006452 16.7054786,35.1908916 C12.7079546,38.3495151 7.77181408,40.062461 2.69087319,40.0555189 C1.79190434,40.0563867 0.892935498,40.002586 0,39.8958523 C5.15851251,43.2349686 11.1634175,45.0069217 17.2958848,44.9999797 C38.0531875,44.9999797 49.4027769,27.6891606 49.4027769,12.6770211 C49.4027769,12.1858725 49.3907102,11.6929884 49.3691625,11.2070463 C51.5782298,9.59996642 53.4847678,7.60933937 55,5.32888258" id="Fill-1" fill="#1DA1F2" mask="url(#mask-2)"></path>
                </g>
            </g>
        </g>
    </g>
</svg>