<?xml version="1.0" encoding="UTF-8"?>
<svg width="141px" height="33px" viewBox="0 0 141 33" version="1.1" xmlns="http://www.w3.org/2000/svg" xmlns:xlink="http://www.w3.org/1999/xlink">
    <!-- Generator: sketchtool 52.4 (67378) - http://www.bohemiancoding.com/sketch -->
    <title>A80AED52-8525-4F23-A841-61D9C3F3EDAF</title>
    <desc>Created with sketchtool.</desc>
    <defs>
        <polygon id="path-1" points="0.104975 0.104293333 3.908725 0.104293333 3.908725 4 0.104975 4"></polygon>
    </defs>
    <g id="Page-1" stroke="none" stroke-width="1" fill="none" fill-rule="evenodd">
        <g id="Logos-b&amp;w" transform="translate(-1100.000000, -114.000000)">
            <g id="Platforms-logos" transform="translate(87.000000, 96.000000)">
                <g id="Yahoo" transform="translate(1013.000000, 18.000000)">
                    <path d="M139.091547,1.03696621 L139.089755,1.03918975 L139.090054,1.03724415 C139.090054,1.03724415 138.807497,1 138.61589,1 C137.522551,1 136.439068,1.5967403 136.439068,3.12222198 C135.790621,10.7745061 135.115293,18.4491645 134.005227,25.7516593 L134,25.7559674 C134.001643,25.7558284 134.002987,25.7556895 134.00463,25.7555505 C134.00463,25.7556895 134.00463,25.7558284 134.00448,25.7559674 L134.009409,25.7549946 C134.680854,25.6472923 135.201613,25.8104439 135.707437,26 L135.704749,25.9959698 C136.965651,18.5792411 139.95908,7.46964323 140.725657,4.32515259 C140.835723,3.88308671 141,3.36027883 141,2.98881008 C141,1.86676043 140.235663,1.21498771 139.091547,1.03696621" id="Fill-1" fill="#242424"></path>
                    <path d="M64.7678268,4 C64.9729609,8.0412991 65.0830226,12.0861509 65.0978733,16.1341291 C60.3614702,16.2471059 55.6295084,16.2562009 50.9030982,16.1341291 L50.9021267,16.1345555 C50.9168386,12.0864351 51.0270391,8.04144121 51.2321732,4 C49.8459224,4.34234087 48.4359382,4.35214639 47,4 C47.3686306,12.6817302 47.3364309,21.3471179 47,30 C48.3744535,29.6609276 49.7818006,29.6458641 51.2268991,30 L51.2185716,29.9953104 L51.2321732,30 C51.0237081,25.9656643 50.9154507,21.934597 50.9018491,17.9067983 L50.9030982,17.9075088 C55.6347824,17.8398649 60.3663279,17.8367385 65.0981509,17.9018245 C65.0846881,21.9313285 64.9764307,25.9639589 64.7678268,30 L64.781706,29.9951683 L64.7732397,30 C66.2181994,29.6458641 67.6256853,29.6609276 69,30 C68.6635691,21.3471179 68.6315082,12.6817302 69,4 C67.5640618,4.35214639 66.1539388,4.34234087 64.7678268,4" id="Fill-3" fill="#242424"></path>
                    <path d="M32.4799973,8.48305737 C33.8992763,12.486193 35.4592057,16.5187289 37.0451036,20.5640477 L37.03612,20.5600708 C34.0006232,20.6664518 30.9652669,20.6681562 27.9297702,20.5600708 L27.9271032,20.561207 C29.7848973,15.7933781 31.5489245,11.1941396 32.4799973,8.48305737 M33.9752163,4.00213046 L33.9722685,4.00326671 L33.9753567,4.00142031 C32.9098096,4.37794372 32.0413417,4.35663912 30.9950253,4.00284061 L30.9903931,4 C27.5433322,12.7520745 23.5718497,22.6303104 20.0002807,29.9967333 C20.0002807,29.9967333 20.0002807,29.9967333 20.0002807,29.9967333 L20,30 L20.0153003,29.9933246 C20.0106681,29.9944608 20.0060359,29.995313 20.0015441,29.9964492 L20.0294777,29.9870752 L20.0153003,29.9933246 C21.6482221,29.583566 23.2067479,29.7102573 24.2372025,29.9924724 C24.2348162,29.9911941 24.2325703,29.9897738 24.2300436,29.9884955 L24.2357988,29.9904839 C25.1463776,27.6624586 26.1834296,25.0245221 27.220622,22.3711044 L27.2259561,22.3745131 C30.7356219,22.2733873 34.2452878,22.2596103 37.7549536,22.3745131 L37.7556555,22.374087 C38.753404,24.9131701 39.7543809,27.45623 40.7300914,29.9991478 L40.7298106,29.999858 C42.2938108,29.5866906 43.850231,29.699179 45,29.9924724 L44.99621,29.99091 C42.4225299,25.1282046 37.2573427,12.4067978 33.9752163,4.00213046" id="Fill-5" fill="#242424"></path>
                    <g id="Group-9" fill="#242424">
                        <path d="M25.8873946,0.0211797414 C25.8862641,0.0218909483 25.8851337,0.0226021552 25.8841446,0.0233133621 L25.8861228,0.0211797414 C24.3338946,0.375645259 22.9338511,0.387451293 21.5439815,0.0211797414 C20.3191554,2.31780905 15.8016554,9.74935216 12.9263946,14.5080375 C10.0102967,9.64622716 6.55780761,4.03338233 4.30880761,0.0211797414 C2.52554674,0.403951293 1.77960109,0.42841681 1.41304348e-05,0.0211797414 C3.5319163,5.37841681 9.19143804,15.5823866 11.1167098,18.9321711 L10.8581228,32.8982832 C10.8581228,32.8982832 12.1000467,32.6889039 12.9302098,32.6889039 C13.8501011,32.6889039 14.9946663,32.8982832 14.9946663,32.8982832 L14.7360793,18.9320289 C18.3286011,12.5873522 24.258862,2.23573578 25.8873946,0.0211797414" id="Fill-7"></path>
                    </g>
                    <path d="M84.0121239,28.5651737 C77.8978431,28.5651737 74.3049108,24.2890645 74.3049108,17.0764604 C74.3049108,8.91920692 78.7319116,5.63549168 83.760854,5.53488224 C83.8406875,5.53335995 83.9210882,5.53488224 84.0013471,5.53488224 C89.6106776,5.53488224 93.7301138,9.26365935 93.7301138,17.0552868 C93.7301138,24.8372269 89.616066,28.5651737 84.0121239,28.5651737 M83.9851819,4 C74.8122718,4 70,9.67606121 70,17.0342515 C70,25.0879894 75.2536957,30 83.9715691,30 C93.3968834,30 98,24.4641277 98,17.1186693 C98,8.92861743 92.5026917,4 83.9851819,4" id="Fill-10" fill="#242424"></path>
                    <path d="M104.271314,16.8883268 C104.271314,6.65397751 110.448765,3.62572698 115.951894,3.62572698 C122.736628,3.62572698 127.734016,7.82515254 127.734016,17.087238 C127.734016,27.1553993 121.688961,30.4207142 115.962553,30.4207142 C109.844568,30.4207142 104.271314,26.7624355 104.271314,16.8883268 M115.941235,2 C106.90619,2 100,7.22699018 100,16.9454852 C100,24.9526586 104.593889,32 116.015988,32 C125.686226,32 132,26.5833869 132,17.087238 C132,8.13237879 126.110061,2 115.941235,2" id="Fill-12" fill="#242424"></path>
                    <g id="Group-16" transform="translate(132.000000, 29.000000)">
                        <mask id="mask-2" fill="white">
                            <use xlink:href="#path-1"></use>
                        </mask>
                        <g id="Clip-15"></g>
                        <path d="M1.902225,0.104293333 C0.7031,0.104293333 0.104975,1.07989333 0.104975,2.12922667 C0.104975,3.36616 1.031225,4.00002667 2.176475,4.00002667 C3.004725,4.00002667 3.908725,3.46296 3.908725,2.00602667 C3.908725,0.836426667 3.049975,0.104293333 1.902225,0.104293333" id="Fill-14" fill="#242424" mask="url(#mask-2)"></path>
                    </g>
                </g>
            </g>
        </g>
    </g>
</svg>