<?xml version="1.0" encoding="UTF-8"?>
<svg width="2346px" height="2496px" viewBox="0 0 2346 2496" version="1.1" xmlns="http://www.w3.org/2000/svg" xmlns:xlink="http://www.w3.org/1999/xlink">
    <!-- Generator: Sketch 52.4 (67378) - http://www.bohemiancoding.com/sketch -->
    <title>Cubes</title>
    <desc>Created with Sketch.</desc>
    <defs>
        <filter x="-27.4%" y="-26.1%" width="154.8%" height="152.2%" filterUnits="objectBoundingBox" id="filter-1">
            <feOffset dx="4" dy="0" in="SourceAlpha" result="shadowOffsetOuter1"></feOffset>
            <feGaussianBlur stdDeviation="10.5" in="shadowOffsetOuter1" result="shadowBlurOuter1"></feGaussianBlur>
            <feColorMatrix values="0 0 0 0 0.184313725   0 0 0 0 0.176470588   0 0 0 0 0.176470588  0 0 0 0.05 0" type="matrix" in="shadowBlurOuter1" result="shadowMatrixOuter1"></feColorMatrix>
            <feMerge>
                <feMergeNode in="shadowMatrixOuter1"></feMergeNode>
                <feMergeNode in="SourceGraphic"></feMergeNode>
            </feMerge>
        </filter>
        <polygon id="path-2" points="0.3078 0.617 93.7771282 0.617 93.7771282 158.140902 0.3078 158.140902"></polygon>
        <filter x="-13.7%" y="-13.1%" width="127.4%" height="126.1%" filterUnits="objectBoundingBox" id="filter-4">
            <feOffset dx="4" dy="0" in="SourceAlpha" result="shadowOffsetOuter1"></feOffset>
            <feGaussianBlur stdDeviation="10.5" in="shadowOffsetOuter1" result="shadowBlurOuter1"></feGaussianBlur>
            <feColorMatrix values="0 0 0 0 0   0 0 0 0 0   0 0 0 0 0  0 0 0 0.08 0" type="matrix" in="shadowBlurOuter1" result="shadowMatrixOuter1"></feColorMatrix>
            <feMerge>
                <feMergeNode in="shadowMatrixOuter1"></feMergeNode>
                <feMergeNode in="SourceGraphic"></feMergeNode>
            </feMerge>
        </filter>
        <filter x="-14.1%" y="-13.3%" width="128.1%" height="126.6%" filterUnits="objectBoundingBox" id="filter-5">
            <feOffset dx="4" dy="0" in="SourceAlpha" result="shadowOffsetOuter1"></feOffset>
            <feGaussianBlur stdDeviation="10.5" in="shadowOffsetOuter1" result="shadowBlurOuter1"></feGaussianBlur>
            <feColorMatrix values="0 0 0 0 0   0 0 0 0 0   0 0 0 0 0  0 0 0 0.08 0" type="matrix" in="shadowBlurOuter1" result="shadowMatrixOuter1"></feColorMatrix>
            <feMerge>
                <feMergeNode in="shadowMatrixOuter1"></feMergeNode>
                <feMergeNode in="SourceGraphic"></feMergeNode>
            </feMerge>
        </filter>
        <filter x="-14.4%" y="-13.7%" width="128.8%" height="127.4%" filterUnits="objectBoundingBox" id="filter-6">
            <feOffset dx="4" dy="0" in="SourceAlpha" result="shadowOffsetOuter1"></feOffset>
            <feGaussianBlur stdDeviation="10.5" in="shadowOffsetOuter1" result="shadowBlurOuter1"></feGaussianBlur>
            <feColorMatrix values="0 0 0 0 0   0 0 0 0 0   0 0 0 0 0  0 0 0 0.08 0" type="matrix" in="shadowBlurOuter1" result="shadowMatrixOuter1"></feColorMatrix>
            <feMerge>
                <feMergeNode in="shadowMatrixOuter1"></feMergeNode>
                <feMergeNode in="SourceGraphic"></feMergeNode>
            </feMerge>
        </filter>
        <filter x="-10.7%" y="-10.2%" width="121.5%" height="120.4%" filterUnits="objectBoundingBox" id="filter-7">
            <feOffset dx="4" dy="0" in="SourceAlpha" result="shadowOffsetOuter1"></feOffset>
            <feGaussianBlur stdDeviation="10.5" in="shadowOffsetOuter1" result="shadowBlurOuter1"></feGaussianBlur>
            <feColorMatrix values="0 0 0 0 0   0 0 0 0 0   0 0 0 0 0  0 0 0 0.08 0" type="matrix" in="shadowBlurOuter1" result="shadowMatrixOuter1"></feColorMatrix>
            <feMerge>
                <feMergeNode in="shadowMatrixOuter1"></feMergeNode>
                <feMergeNode in="SourceGraphic"></feMergeNode>
            </feMerge>
        </filter>
        <polygon id="path-8" points="0 93.0262266 280.710841 196 510.202976 114.950746 238.6134 0.966299234"></polygon>
        <linearGradient x1="0%" y1="50.0001175%" x2="99.9999153%" y2="50.0001175%" id="linearGradient-10">
            <stop stop-color="#D3D4D6" offset="0%"></stop>
            <stop stop-color="#E6E6E8" offset="100%"></stop>
        </linearGradient>
        <filter x="-9.3%" y="-8.9%" width="118.6%" height="117.7%" filterUnits="objectBoundingBox" id="filter-11">
            <feOffset dx="4" dy="0" in="SourceAlpha" result="shadowOffsetOuter1"></feOffset>
            <feGaussianBlur stdDeviation="10.5" in="shadowOffsetOuter1" result="shadowBlurOuter1"></feGaussianBlur>
            <feColorMatrix values="0 0 0 0 0   0 0 0 0 0   0 0 0 0 0  0 0 0 0.08 0" type="matrix" in="shadowBlurOuter1" result="shadowMatrixOuter1"></feColorMatrix>
            <feMerge>
                <feMergeNode in="shadowMatrixOuter1"></feMergeNode>
                <feMergeNode in="SourceGraphic"></feMergeNode>
            </feMerge>
        </filter>
        <filter x="-11.4%" y="-10.8%" width="122.8%" height="121.7%" filterUnits="objectBoundingBox" id="filter-12">
            <feOffset dx="4" dy="0" in="SourceAlpha" result="shadowOffsetOuter1"></feOffset>
            <feGaussianBlur stdDeviation="10.5" in="shadowOffsetOuter1" result="shadowBlurOuter1"></feGaussianBlur>
            <feColorMatrix values="0 0 0 0 0   0 0 0 0 0   0 0 0 0 0  0 0 0 0.08 0" type="matrix" in="shadowBlurOuter1" result="shadowMatrixOuter1"></feColorMatrix>
            <feMerge>
                <feMergeNode in="shadowMatrixOuter1"></feMergeNode>
                <feMergeNode in="SourceGraphic"></feMergeNode>
            </feMerge>
        </filter>
        <filter x="-11.1%" y="-10.6%" width="122.2%" height="121.1%" filterUnits="objectBoundingBox" id="filter-13">
            <feOffset dx="4" dy="0" in="SourceAlpha" result="shadowOffsetOuter1"></feOffset>
            <feGaussianBlur stdDeviation="10.5" in="shadowOffsetOuter1" result="shadowBlurOuter1"></feGaussianBlur>
            <feColorMatrix values="0 0 0 0 0   0 0 0 0 0   0 0 0 0 0  0 0 0 0.08 0" type="matrix" in="shadowBlurOuter1" result="shadowMatrixOuter1"></feColorMatrix>
            <feMerge>
                <feMergeNode in="shadowMatrixOuter1"></feMergeNode>
                <feMergeNode in="SourceGraphic"></feMergeNode>
            </feMerge>
        </filter>
        <filter x="-17.6%" y="-16.7%" width="135.1%" height="133.4%" filterUnits="objectBoundingBox" id="filter-14">
            <feOffset dx="4" dy="0" in="SourceAlpha" result="shadowOffsetOuter1"></feOffset>
            <feGaussianBlur stdDeviation="10.5" in="shadowOffsetOuter1" result="shadowBlurOuter1"></feGaussianBlur>
            <feColorMatrix values="0 0 0 0 0   0 0 0 0 0   0 0 0 0 0  0 0 0 0.08 0" type="matrix" in="shadowBlurOuter1" result="shadowMatrixOuter1"></feColorMatrix>
            <feMerge>
                <feMergeNode in="shadowMatrixOuter1"></feMergeNode>
                <feMergeNode in="SourceGraphic"></feMergeNode>
            </feMerge>
        </filter>
        <filter x="-9.5%" y="-9.0%" width="118.9%" height="118.0%" filterUnits="objectBoundingBox" id="filter-15">
            <feOffset dx="4" dy="0" in="SourceAlpha" result="shadowOffsetOuter1"></feOffset>
            <feGaussianBlur stdDeviation="10.5" in="shadowOffsetOuter1" result="shadowBlurOuter1"></feGaussianBlur>
            <feColorMatrix values="0 0 0 0 0   0 0 0 0 0   0 0 0 0 0  0 0 0 0.08 0" type="matrix" in="shadowBlurOuter1" result="shadowMatrixOuter1"></feColorMatrix>
            <feMerge>
                <feMergeNode in="shadowMatrixOuter1"></feMergeNode>
                <feMergeNode in="SourceGraphic"></feMergeNode>
            </feMerge>
        </filter>
        <filter x="-9.5%" y="-9.0%" width="119.0%" height="118.1%" filterUnits="objectBoundingBox" id="filter-16">
            <feOffset dx="4" dy="0" in="SourceAlpha" result="shadowOffsetOuter1"></feOffset>
            <feGaussianBlur stdDeviation="10.5" in="shadowOffsetOuter1" result="shadowBlurOuter1"></feGaussianBlur>
            <feColorMatrix values="0 0 0 0 0   0 0 0 0 0   0 0 0 0 0  0 0 0 0.08 0" type="matrix" in="shadowBlurOuter1" result="shadowMatrixOuter1"></feColorMatrix>
            <feMerge>
                <feMergeNode in="shadowMatrixOuter1"></feMergeNode>
                <feMergeNode in="SourceGraphic"></feMergeNode>
            </feMerge>
        </filter>
        <filter x="-9.5%" y="-9.0%" width="118.9%" height="118.0%" filterUnits="objectBoundingBox" id="filter-17">
            <feOffset dx="4" dy="0" in="SourceAlpha" result="shadowOffsetOuter1"></feOffset>
            <feGaussianBlur stdDeviation="10.5" in="shadowOffsetOuter1" result="shadowBlurOuter1"></feGaussianBlur>
            <feColorMatrix values="0 0 0 0 0   0 0 0 0 0   0 0 0 0 0  0 0 0 0.08 0" type="matrix" in="shadowBlurOuter1" result="shadowMatrixOuter1"></feColorMatrix>
            <feMerge>
                <feMergeNode in="shadowMatrixOuter1"></feMergeNode>
                <feMergeNode in="SourceGraphic"></feMergeNode>
            </feMerge>
        </filter>
        <filter x="-9.5%" y="-9.0%" width="119.0%" height="118.0%" filterUnits="objectBoundingBox" id="filter-18">
            <feOffset dx="4" dy="0" in="SourceAlpha" result="shadowOffsetOuter1"></feOffset>
            <feGaussianBlur stdDeviation="10.5" in="shadowOffsetOuter1" result="shadowBlurOuter1"></feGaussianBlur>
            <feColorMatrix values="0 0 0 0 0   0 0 0 0 0   0 0 0 0 0  0 0 0 0.08 0" type="matrix" in="shadowBlurOuter1" result="shadowMatrixOuter1"></feColorMatrix>
            <feMerge>
                <feMergeNode in="shadowMatrixOuter1"></feMergeNode>
                <feMergeNode in="SourceGraphic"></feMergeNode>
            </feMerge>
        </filter>
        <filter x="-9.5%" y="-9.0%" width="119.1%" height="118.1%" filterUnits="objectBoundingBox" id="filter-19">
            <feOffset dx="4" dy="0" in="SourceAlpha" result="shadowOffsetOuter1"></feOffset>
            <feGaussianBlur stdDeviation="10.5" in="shadowOffsetOuter1" result="shadowBlurOuter1"></feGaussianBlur>
            <feColorMatrix values="0 0 0 0 0   0 0 0 0 0   0 0 0 0 0  0 0 0 0.08 0" type="matrix" in="shadowBlurOuter1" result="shadowMatrixOuter1"></feColorMatrix>
            <feMerge>
                <feMergeNode in="shadowMatrixOuter1"></feMergeNode>
                <feMergeNode in="SourceGraphic"></feMergeNode>
            </feMerge>
        </filter>
        <filter x="-9.5%" y="-9.0%" width="119.0%" height="118.1%" filterUnits="objectBoundingBox" id="filter-20">
            <feOffset dx="4" dy="0" in="SourceAlpha" result="shadowOffsetOuter1"></feOffset>
            <feGaussianBlur stdDeviation="10.5" in="shadowOffsetOuter1" result="shadowBlurOuter1"></feGaussianBlur>
            <feColorMatrix values="0 0 0 0 0   0 0 0 0 0   0 0 0 0 0  0 0 0 0.08 0" type="matrix" in="shadowBlurOuter1" result="shadowMatrixOuter1"></feColorMatrix>
            <feMerge>
                <feMergeNode in="shadowMatrixOuter1"></feMergeNode>
                <feMergeNode in="SourceGraphic"></feMergeNode>
            </feMerge>
        </filter>
        <filter x="-9.4%" y="-8.9%" width="118.8%" height="117.9%" filterUnits="objectBoundingBox" id="filter-21">
            <feOffset dx="4" dy="0" in="SourceAlpha" result="shadowOffsetOuter1"></feOffset>
            <feGaussianBlur stdDeviation="10.5" in="shadowOffsetOuter1" result="shadowBlurOuter1"></feGaussianBlur>
            <feColorMatrix values="0 0 0 0 0   0 0 0 0 0   0 0 0 0 0  0 0 0 0.08 0" type="matrix" in="shadowBlurOuter1" result="shadowMatrixOuter1"></feColorMatrix>
            <feMerge>
                <feMergeNode in="shadowMatrixOuter1"></feMergeNode>
                <feMergeNode in="SourceGraphic"></feMergeNode>
            </feMerge>
        </filter>
        <polygon id="path-22" points="0.376933928 0.557824092 274.222067 0.557824092 274.222067 460.479624 0.376933928 460.479624"></polygon>
        <polygon id="path-24" points="0.000463405027 0.0243609136 514.57421 0.0243609136 514.57421 195.959053 0.000463405027 195.959053"></polygon>
        <filter x="-9.7%" y="-9.2%" width="119.4%" height="118.5%" filterUnits="objectBoundingBox" id="filter-26">
            <feOffset dx="4" dy="0" in="SourceAlpha" result="shadowOffsetOuter1"></feOffset>
            <feGaussianBlur stdDeviation="10.5" in="shadowOffsetOuter1" result="shadowBlurOuter1"></feGaussianBlur>
            <feColorMatrix values="0 0 0 0 0   0 0 0 0 0   0 0 0 0 0  0 0 0 0.08 0" type="matrix" in="shadowBlurOuter1" result="shadowMatrixOuter1"></feColorMatrix>
            <feMerge>
                <feMergeNode in="shadowMatrixOuter1"></feMergeNode>
                <feMergeNode in="SourceGraphic"></feMergeNode>
            </feMerge>
        </filter>
        <filter x="-6.9%" y="-6.6%" width="113.8%" height="113.1%" filterUnits="objectBoundingBox" id="filter-27">
            <feOffset dx="4" dy="0" in="SourceAlpha" result="shadowOffsetOuter1"></feOffset>
            <feGaussianBlur stdDeviation="10.5" in="shadowOffsetOuter1" result="shadowBlurOuter1"></feGaussianBlur>
            <feColorMatrix values="0 0 0 0 0   0 0 0 0 0   0 0 0 0 0  0 0 0 0.08 0" type="matrix" in="shadowBlurOuter1" result="shadowMatrixOuter1"></feColorMatrix>
            <feMerge>
                <feMergeNode in="shadowMatrixOuter1"></feMergeNode>
                <feMergeNode in="SourceGraphic"></feMergeNode>
            </feMerge>
        </filter>
        <filter x="-12.1%" y="-11.4%" width="124.1%" height="122.9%" filterUnits="objectBoundingBox" id="filter-28">
            <feOffset dx="4" dy="0" in="SourceAlpha" result="shadowOffsetOuter1"></feOffset>
            <feGaussianBlur stdDeviation="10.5" in="shadowOffsetOuter1" result="shadowBlurOuter1"></feGaussianBlur>
            <feColorMatrix values="0 0 0 0 0   0 0 0 0 0   0 0 0 0 0  0 0 0 0.08 0" type="matrix" in="shadowBlurOuter1" result="shadowMatrixOuter1"></feColorMatrix>
            <feMerge>
                <feMergeNode in="shadowMatrixOuter1"></feMergeNode>
                <feMergeNode in="SourceGraphic"></feMergeNode>
            </feMerge>
        </filter>
        <filter x="-7.7%" y="-7.3%" width="115.4%" height="114.7%" filterUnits="objectBoundingBox" id="filter-29">
            <feOffset dx="4" dy="0" in="SourceAlpha" result="shadowOffsetOuter1"></feOffset>
            <feGaussianBlur stdDeviation="10.5" in="shadowOffsetOuter1" result="shadowBlurOuter1"></feGaussianBlur>
            <feColorMatrix values="0 0 0 0 0   0 0 0 0 0   0 0 0 0 0  0 0 0 0.08 0" type="matrix" in="shadowBlurOuter1" result="shadowMatrixOuter1"></feColorMatrix>
            <feMerge>
                <feMergeNode in="shadowMatrixOuter1"></feMergeNode>
                <feMergeNode in="SourceGraphic"></feMergeNode>
            </feMerge>
        </filter>
    </defs>
    <g id="Page-1" stroke="none" stroke-width="1" fill="none" fill-rule="evenodd">
        <g id="кубы" transform="translate(-57.000000, -36.000000)">
            <g id="Cubes" transform="translate(74.000000, 56.000000)">
                <g id="1" filter="url(#filter-1)" transform="translate(102.000000, 1736.000000)">
                    <polygon id="Fill-1" fill="#F7F8FA" points="83.206543 0.610839844 0 36.360847 0 151 83 119.185887 83.2635498 118.860718"></polygon>
                    <g id="Group-7">
                        <g id="Group-4" transform="translate(82.897436, 0.000000)">
                            <mask id="mask-3" fill="white">
                                <use xlink:href="#path-2"></use>
                            </mask>
                            <g id="Clip-3"></g>
                            <path d="M0.3078,0.617 C0.354210256,0.663341463 0.312441026,111.623341 0.3078,118.560659 L0.3078,118.898951 L93.7780564,158.140902 L93.7780564,39.7616341 L0.3078,0.617 Z" id="Fill-2" fill="#EDEDED" mask="url(#mask-3)"></path>
                        </g>
                        <polygon id="Fill-5" fill="#EEEFEF" points="0 150.741561 97.4522564 185.998146 176.674564 158.142293 83.2043077 118.900341"></polygon>
                    </g>
                </g>
                <g id="6" filter="url(#filter-4)" transform="translate(1301.000000, 1940.000000)">
                    <polygon id="Fill-1" fill="#F6F6F6" points="167 0 1.90348331 70.7716302 1 300 167 236.385676"></polygon>
                    <polygon id="Fill-2" fill="#EDEDED" points="167 0 167 236.542044 354 315 353.856093 78.3281581"></polygon>
                    <polygon id="Fill-3" fill="#E6E7E8" points="0.988082886 299.994614 195.632116 371 353.997192 315.003693 167.020966 236.38028"></polygon>
                </g>
                <g id="3" filter="url(#filter-5)" transform="translate(659.000000, 1937.000000)">
                    <polygon id="Fill-1" fill="#FAFAFB" points="161 0 0 69.5939227 0 295 161 232.535438"></polygon>
                    <polygon id="Fill-2" fill="#EAEAEA" points="161 0 161 232.180084 345 309 344.855672 76.8524632"></polygon>
                    <polygon id="Fill-3" fill="#F3F5F5" points="0 294.633463 189.814126 364 345 309.145525 161.35223 232"></polygon>
                </g>
                <g id="4" filter="url(#filter-6)" transform="translate(1075.000000, 2102.000000)">
                    <polygon id="Fill-1" fill="#F7F7F7" points="158 0 0.860088024 67.7038609 0 287 158 226.307914"></polygon>
                    <polygon id="Fill-2" fill="#ECECEC" points="158 0 158 226.286753 337 301 336.930826 74.874158"></polygon>
                    <polygon id="Fill-3" fill="#E8E8E9" points="0 286.654796 185.84596 354 337 300.674325 158.670393 226"></polygon>
                </g>
                <g id="5" filter="url(#filter-7)" transform="translate(945.000000, 1743.000000)">
                    <polygon id="Fill-1" fill="#E7E7E7" points="211 0 211 304.354529 452 405 452 100.724071"></polygon>
                    <polygon id="Fill-2" fill="#F4F5F6" points="211 0 1.15903741 91.0519533 0 386 211 304.309349"></polygon>
                    <polygon id="Fill-3" fill="#EFEFF0" points="0 385.592999 249.313675 476 452 404.509167 211.43385 304"></polygon>
                </g>
                <g id="18" transform="translate(945.000000, 798.000000)">
                    <polygon id="Fill-1" fill="#EEEEEE" points="238 0 0 102.712673 0 435 238 343.268463"></polygon>
                    <polygon id="Fill-2" fill="#D6D6D6" points="238 0 238 342.628289 510 456 509.788413 113.399228"></polygon>
                    <g id="Group-5" transform="translate(0.000000, 342.000000)">
                        <mask id="mask-9" fill="white">
                            <use xlink:href="#path-8"></use>
                        </mask>
                        <g id="Clip-4"></g>
                        <polygon id="Fill-3" fill="url(#linearGradient-10)" mask="url(#mask-9)" points="0 93.0262266 280.710841 196 510.202976 114.950746 238.6134 0.966299234"></polygon>
                    </g>
                </g>
                <g id="19" filter="url(#filter-11)" transform="translate(574.000000, 653.000000)">
                    <polygon id="Fill-1" fill="#F6F6F7" points="243 0 0 104.638405 0 443 243 349.735634"></polygon>
                    <polygon id="Fill-2" fill="#E7E7E7" points="243 0 243 350.200907 522 466 521.778524 115.886419"></polygon>
                    <polygon id="Fill-3" fill="#DADADC" points="0 443.299367 287.193086 548 522 465.684052 243.35515 350"></polygon>
                </g>
                <g id="12" filter="url(#filter-12)" transform="translate(621.000000, 1121.000000)">
                    <polygon id="Fill-1" fill="#F7F7F8" points="199 0 0 85.6422371 0 363 199 286.238016"></polygon>
                    <polygon id="Fill-2" fill="#E8E8E8" points="199 0 199 286.324248 426 381 426 94.7543215"></polygon>
                    <polygon id="Fill-3" fill="#E5E5E6" points="0 362.765295 234.482083 448 426 380.651322 198.685552 286"></polygon>
                </g>
                <g id="7" filter="url(#filter-13)" transform="translate(614.000000, 1530.000000)">
                    <polygon id="Fill-3" fill="#EAEAEA" points="0 371.77229 240.987929 459 437 389.937481 205 292"></polygon>
                    <polygon id="Fill-1" fill="#F8F8F9" points="205 0 1.12697774 87.7742508 0 372 205 292.985428"></polygon>
                    <polygon id="Fill-2" fill="#EFEFEF" points="205.054998 0 205 292.981086 437 390 436.903753 97.0326598"></polygon>
                </g>
                <g id="2" filter="url(#filter-14)" transform="translate(407.000000, 1799.000000)">
                    <polygon id="Fill-1" fill="#F9F9FA" points="130 0 0 55.4423842 0 235 130 185.310193"></polygon>
                    <polygon id="Fill-2" fill="#EEEEEE" points="130 0 130 185.692702 276 247 276 61.4470983"></polygon>
                    <polygon id="Fill-3" fill="#F4F4F5" points="0 234.753015 152.235144 290 276 246.25776 129.980528 185"></polygon>
                </g>
                <g id="15" filter="url(#filter-15)" transform="translate(1558.000000, 1224.000000)">
                    <polygon id="Fill-1" fill="#F2F2F2" points="239 0 0 102.831491 0 436 239 343.720755"></polygon>
                    <polygon id="Fill-2" fill="#DDDDDD" points="239 0 239 343.43482 512 457 511.792823 113.64791"></polygon>
                    <polygon id="Fill-3" fill="#D5D6D7" points="0 436.503843 281.699554 539 511.993103 457.006897 239 343.302246"></polygon>
                </g>
                <g id="10" filter="url(#filter-16)" transform="translate(1558.000000, 1618.000000)">
                    <polygon id="Fill-1" fill="#F5F5F5" points="239 0 0 102.633487 0 435 239 342.758848"></polygon>
                    <polygon id="Fill-2" fill="#ECECEC" points="239 0 239 343.313216 511 457 510.894165 113.700577"></polygon>
                    <polygon id="Fill-3" fill="#F0F1F1" points="0 435.061118 281.207581 537 511 456.282732 239.004395 342.23291"></polygon>
                </g>
                <g id="17" filter="url(#filter-17)" transform="translate(1240.000000, 703.000000)">
                    <polygon id="Fill-1" fill="#F6F6F7" points="240 0 0 103.091271 0 437 240 344.533748"></polygon>
                    <polygon id="Fill-2" fill="#E7E7E7" points="240 0 240 344.131044 512 458 511.788413 113.896593"></polygon>
                    <polygon id="Fill-3" fill="#D2D4D5" points="0 436.433688 281.699554 539 512 457.962057 239.453838 344"></polygon>
                </g>
                <g id="14" filter="url(#filter-18)" transform="translate(1246.000000, 1092.000000)">
                    <polygon id="Fill-1" fill="#EFF1F1" points="240.004303 0.998031616 0 103.846635 0 437 239 344.668478"></polygon>
                    <polygon id="Fill-2" fill="#D7D7D7" points="240 1 238.977112 344.075012 511 458 510.894554 114.700577"></polygon>
                    <polygon id="Fill-3" fill="#CACCCC" points="0 436.532919 281.207581 539 511 457.788799 239.035646 344"></polygon>
                </g>
                <g id="9" filter="url(#filter-19)" transform="translate(1246.000000, 1488.000000)">
                    <polygon id="Fill-1" fill="#F2F2F2" points="237 0 1 102.374862 1 434 237 342.146961"></polygon>
                    <polygon id="Fill-2" fill="#ECECEC" points="237 0 237 341.931795 509 455 509 113.159721"></polygon>
                    <polygon id="Fill-3" fill="#E5E5E6" points="0.960083008 434 280.61456 536 508.997772 455.000687 236.989563 341.907104"></polygon>
                </g>
                <g id="13" filter="url(#filter-20)" transform="translate(928.000000, 966.000000)">
                    <polygon id="Fill-1" fill="#F6F6F7" points="239 0 0 102.633487 0 435 239 343.011312"></polygon>
                    <polygon id="Fill-2" fill="#E8E8E8" points="239 0 239 343.566088 511 457 510.894458 113.700577"></polygon>
                    <polygon id="Fill-3" fill="#DADCDC" points="0 434.402398 281.207581 537 511 455.761144 238.281097 342"></polygon>
                </g>
                <g id="8" filter="url(#filter-21)" transform="translate(924.000000, 1357.000000)">
                    <polygon id="Fill-1" fill="#F7F7F8" points="240.76358 0.563079834 0 104.563084 0 440 241 346"></polygon>
                    <g id="Group-8">
                        <g id="Group-4" transform="translate(240.352143, 0.000000)">
                            <mask id="mask-23" fill="white">
                                <use xlink:href="#path-22"></use>
                            </mask>
                            <g id="Clip-3"></g>
                            <path d="M0.405768018,0.557824092 L274.22253,114.974911 L274.22253,460.479624 L0.405768018,346.062537 C0.405768018,346.062537 0.340891314,0.557824092 0.405768018,0.557824092" id="Fill-2" fill="#ECECEC" mask="url(#mask-23)"></path>
                        </g>
                        <g id="Group-7" transform="translate(0.000000, 346.037251)">
                            <mask id="mask-25" fill="white">
                                <use xlink:href="#path-24"></use>
                            </mask>
                            <g id="Clip-6"></g>
                            <polygon id="Fill-5" fill="#E7E8E8" mask="url(#mask-25)" points="283.233616 195.959053 0.000463405027 93.0035715 240.757911 0.0243609136 514.574673 114.441448"></polygon>
                        </g>
                    </g>
                </g>
                <g id="11" filter="url(#filter-26)" transform="translate(0.000000, 1038.000000)">
                    <polygon id="Fill-1" fill="#F5F5F6" points="233 0 0 100.227947 0 425 233 334.814177"></polygon>
                    <polygon id="Fill-2" fill="#E8E8E8" points="233 0 233 335.679116 499 447 498.796855 111.145547"></polygon>
                    <polygon id="Fill-3" fill="#F1F1F2" points="0.00375366211 425.011322 274.553959 525 499.015137 446.99408 233.007935 334.803574"></polygon>
                </g>
                <g id="16" filter="url(#filter-27)" transform="translate(1602.000000, 773.000000)">
                    <polygon id="Fill-1" fill="#F6F6F6" points="329 0 0 141.525587 0 600 329 473.025714"></polygon>
                    <polygon id="Fill-2" fill="#E7E7E7" points="328 0 328 472.605334 702 629 701.7188 156.394666"></polygon>
                    <polygon id="Fill-3" fill="#EAEBEB" points="0 599.04118 386.24002 740 702 628.61732 328.315763 472"></polygon>
                </g>
                <g id="20" filter="url(#filter-28)" transform="translate(214.000000, 441.000000)">
                    <polygon id="Fill-1" fill="#F6F6F7" points="188 0 0 81.0120175 0 343 188 270.73857"></polygon>
                    <polygon id="Fill-2" fill="#E7E7E7" points="188 0 188 270.593801 402 360 401.912585 89.5581015"></polygon>
                    <polygon id="Fill-3" fill="#ECEEEE" points="0 343.11951 221.223045 424 402 360.278345 188.044648 271"></polygon>
                </g>
                <g id="21" filter="url(#filter-29)" transform="translate(858.000000, 0.000000)">
                    <polygon id="Fill-1" fill="#F6F6F7" points="293 0 0 126.358592 0 535 293 422.360894"></polygon>
                    <polygon id="Fill-2" fill="#E7E7E7" points="293 0 293 422.506011 628 562 627.880072 139.81702"></polygon>
                    <polygon id="Fill-3" fill="#EFF0F1" points="0 534.624973 345.599588 661 628 561.428582 292.84362 422"></polygon>
                </g>
            </g>
        </g>
    </g>
</svg>