<svg class="google-icon" width="181px" height="38px" viewBox="0 0 181 38" version="1.1" >
    <defs>
        <polygon id="path-1" points="0 0.0886440678 27.9985065 0.0886440678 27.9985065 29.9481173 0 29.9481173"></polygon>
    </defs>
    <g id="Page-1" stroke="none" stroke-width="1" fill="none" fill-rule="evenodd">
        <g id="Logos-b&amp;w" transform="translate(-87.000000, -112.000000)">
            <g id="Platforms-logos" transform="translate(87.000000, 96.000000)">
                <g id="Google-Ads" transform="translate(0.000000, 16.000000)">
                    <path d="M76.7978358,37.6183754 C74.3375998,36.8540775 72.1138525,35.0538691 70.9480443,32.8821088 C70.6139763,32.2581822 70.7822107,32.1302015 72.9845215,31.3254715 C74.5358455,30.7586063 75.0323173,30.6958387 75.0323173,31.0662493 C75.0323173,31.6037685 76.508013,33.0459568 77.5198206,33.4982099 C79.5439503,34.402879 82.2060333,33.8596536 83.4692494,32.2862239 C84.051982,31.5589345 84.5714338,29.6273216 84.4764267,28.5376102 L84.4261794,27.9583546 L83.466334,28.5948347 C82.1003938,29.4993408 79.8432053,29.897793 77.9979426,29.5588478 C75.79083,29.1537112 74.393678,28.4544635 72.9131805,27.01684 C71.3500235,25.4970481 70.6772571,24.2669654 70.1866162,22.0324376 C69.2049913,17.5553932 72.1935966,12.7653259 76.8563149,11.3422124 C79.2251452,10.6191618 82.5466181,11.0846205 83.9480574,12.3362235 L84.4868878,12.8171703 L84.5642311,12.1738428 L84.6415743,11.5305153 L86.7773459,11.5305153 L88.91226,11.5305153 L88.9820576,20.5532408 C89.054599,30.0324581 88.9465585,31.3287321 87.9117709,33.3456112 C86.8876158,35.3411329 84.901386,36.9135845 82.4617291,37.6588075 C80.9210376,38.1289942 78.3856878,38.1110605 76.7978358,37.6183754 M81.0460559,25.5151447 C83.3877903,24.8652959 84.7602474,22.9516166 84.7602474,20.3365702 C84.7602474,18.7324902 84.3009896,17.4712683 83.3737279,16.5287756 C80.6713441,13.7806943 76.0794524,14.9682254 74.9349093,18.7111329 C74.4662195,20.2457609 74.4667339,20.3624924 74.9561744,22.0370025 C75.3946816,23.5352741 76.7796576,25.0875096 77.8792695,25.312984 C78.2056204,25.3803166 78.6861432,25.5229703 78.9471553,25.6295938 C79.6075741,25.9000652 79.671884,25.8966415 81.0460559,25.5151447" id="google-path-1" fill="#7E7E7E"></path>
                    <path d="M37.7486037,29.7691712 C34.1589532,29.0908755 31.5548512,26.610499 30.3278303,22.6992829 C29.7611727,20.8925183 29.9500586,17.7631638 30.7327963,15.991615 C32.4176975,12.1765052 35.6222043,9.98670302 39.5000163,10.0000608 C46.8896637,10.0253884 51.2609052,17.9716833 47.7885507,25.0674197 C46.7961218,27.0964085 43.960868,29.2603627 41.7238893,29.6963108 C39.7228132,30.0855935 39.4554569,30.0904509 37.7486037,29.7691712 M42.2934957,24.7104037 C44.0483485,23.4230296 44.9048058,20.6250165 44.2857255,18.2015405 C43.7696886,16.1817459 41.5756311,14.3146113 39.7182262,14.3146113 C36.7222638,14.3146113 34.5429502,16.656206 34.5309912,19.8880855 C34.5219811,22.4640479 36.0281533,24.8405115 38.0136664,25.3815868 C39.3009735,25.7327046 41.3348139,25.4138535 42.2934957,24.7104037" id="Fill-3" fill="#737373"></path>
                    <path d="M105.265124,29.6341454 C101.727022,28.7505098 99.407053,26.3702584 98.2327537,22.4196544 C97.9142696,21.348748 97.924945,18.238709 98.2505462,17.1679749 C99.6229882,12.6552139 102.741351,10 106.668622,10 C108.911275,10 110.763627,10.8112771 112.372061,12.4974033 C113.522259,13.703379 115,16.3389527 115,17.1853754 C115,17.7328883 114.732143,17.8982793 111.97901,19.0498138 C109.764663,19.9765199 108.69631,20.4425434 106.943757,21.2479629 C106.635787,21.3900957 106.182565,21.5930442 105.936545,21.6986532 C105.690524,21.8052959 105.035764,22.0993817 104.481773,22.3509138 C103.927782,22.6034795 103.333838,22.8560453 103.16109,22.9130707 C102.623274,23.0886263 104.474009,24.9292898 105.488823,25.2281994 C107.483191,25.815165 109.238008,25.4108186 110.628242,24.0456541 C111.152795,23.5308748 111.683818,23.1099893 111.809659,23.1099893 C112.188799,23.1099893 114.992074,25.1167328 114.995956,25.3918676 C115.00372,25.899411 113.038953,27.8112271 111.740753,28.5596211 C110.549794,29.2475441 107.81882,30.0646787 106.943757,29.9959381 C106.758878,29.9816387 106.003347,29.8191766 105.265124,29.6341454 M102.91232,18.9805563 C103.73902,18.5886142 103.433961,18.6952569 103.578727,18.690433 C103.723978,18.6869874 104.655491,18.2593828 105.453238,17.8662348 C106.251147,17.4725699 107.063937,17.1510912 107.25933,17.1510912 C107.454885,17.1510912 106.304039,17.6787917 106.304039,17.5750778 C106.304039,17.4713639 108.169169,16.5723952 108.847222,16.326893 C110.044813,15.8932586 110.068267,15.8677608 109.686862,15.4189656 C108.55947,14.0920478 106.280586,13.8275945 104.76354,14.8475054 C103.534084,15.6742878 102.553237,17.0783881 102.363828,18.2831578 C102.193992,19.3644011 102.112308,19.3597495 102.91232,18.9805563" id="google-path-5" fill="#737373"></path>
                    <path d="M11.6729734,29.757678 C8.93981734,29.3002203 6.30199075,27.7858136 3.99449942,25.3483559 C2.37503121,23.6378475 1.31038382,21.8303898 0.417944509,19.2759831 C-0.149176879,17.6520847 -0.136390751,12.2997119 0.439146821,10.6568305 C2.25801387,5.46310169 5.7405341,1.97818644 10.6651353,0.42259322 C12.2300601,-0.0719830508 17.2061295,-0.00249152542 18.6150312,0.533101695 C20.7503145,1.34547458 23.3653202,2.92733898 24.095748,3.84920339 C24.3631237,4.18683051 24.2266844,4.41649153 22.9697595,5.74479661 C22.1826844,6.57615254 21.4857595,7.25649153 21.4205341,7.25615254 C21.3553087,7.25615254 21.0087884,6.99191525 20.6511006,6.66954237 C18.7954936,4.99835593 15.2284879,4.11479661 12.5259214,4.65666102 C9.44851098,5.27377966 6.89581734,7.31445763 5.4624763,10.3044576 C4.74499653,11.8010678 4.27870751,11.8880169 4.27870751,14.9953051 C4.27870751,17.947 4.77218728,18.2527627 5.33769017,19.516322 C5.67142428,20.2622542 6.51870751,21.5025932 7.22064971,22.2737797 C9.78224509,25.0858136 13.5264763,26.1931017 17.1085341,25.1954746 C19.1180601,24.6364915 19.9787769,24.1546271 21.233274,22.8898814 C22.3302913,21.7837797 23.0450197,20.4127627 23.2984763,18.9283559 L23.4478636,18.0532712 L18.9040948,17.9902203 L14.3604879,17.926661 L14.3604879,15.7368305 L14.3604879,13.547 L20.8538983,13.5664915 C24.4260832,13.577339 27.4099445,13.586322 27.4850428,13.587 C27.5607884,13.5878475 27.7307306,14.1534407 27.8632855,14.8444576 C28.3619445,17.4456441 27.4466844,21.3858136 25.6901295,24.1978475 C24.2433549,26.5139492 22.694615,27.7647966 19.3988694,29.277 C18.0317249,29.9034407 14.034037,30.1532712 11.6729734,29.757678" id="google-path-7" fill="#7D7D7D"></path>
                    <path d="M56.2243569,29.8507014 C53.8129357,29.3071943 51.2946794,27.2623471 50.1524791,24.9197526 C48.248976,21.0156034 48.7324418,16.4874276 51.3878935,13.3529405 C55.1760271,8.88077827 61.8533038,8.8825287 65.7120044,13.3571415 C69.0317702,17.2068525 68.6877973,24.1943763 65.0127349,27.5502921 C63.2615252,29.1493059 61.5562661,29.8699561 59.2600496,29.9797078 C58.1460761,30.0337959 56.7801949,29.9760319 56.2243569,29.8507014 M60.1418086,25.4595839 C61.1981798,25.1775903 62.6159195,23.7581702 63.134997,22.4626803 C63.3434157,21.943329 63.6783627,20.9433109 63.6288017,19.9453933 C63.5580706,18.5189715 63.2739975,17.5056501 62.9943554,17.1438372 C61.8109637,15.6155406 61.1919436,15.0555795 60.3242981,14.7289501 C58.3805882,13.9974472 56.5717762,14.3975945 55.1093987,15.8824805 C52.2499593,18.7859114 53.3468655,24.1763469 57.0705041,25.5210238 C58.1381989,25.9066425 58.497434,25.8994658 60.1418086,25.4595839" id="google-path-10" fill="#BBBBBB"></path>
                    <polygon id="google-path-12" fill="#7C7C7C" points="92 15.4999142 92 1 93.9999259 1.06778307 96 1.13573774 96 15.5002574 96 29.8640907 93.9999259 29.9325601 92 30 92 15.5002574"></polygon>
                    <path d="M154.577835,29.8847203 C152.321181,29.5201389 150.337014,27.8031611 149.184812,25.2178384 C148.673247,24.0709582 148.590784,23.5706229 148.590784,21.633045 C148.590784,18.6634292 149.22751,16.7801871 150.767908,15.1969062 C152.429882,13.4883273 153.623153,12.9753079 155.918594,12.9814785 C158.0289,12.9871349 159.30333,13.4874702 160.422449,14.7493641 L160.991868,15.3912811 L160.879093,10.7026305 L160.766317,6.0136371 L162.31796,5.93753266 C163.213157,5.89365263 163.905456,5.96170097 163.954674,6.09899749 C164.001935,6.22926635 164.014158,11.5510922 163.982216,17.9253532 L163.923383,29.5143111 L162.457626,29.5131113 L160.991868,29.5107116 L161.07205,28.4899865 L161.152231,27.4680616 L160.294517,28.2599591 C158.695287,29.7373108 156.870994,30.255301 154.577835,29.8847203 M158.787854,26.2728448 C159.325168,25.8976362 159.946738,25.1494472 160.322548,24.4225127 C160.847639,23.4077868 160.95357,22.9192786 160.94917,21.5281443 C160.942977,19.4285873 160.484704,18.2285712 159.244335,17.0630077 C157.342305,15.2757532 155.067072,15.2812382 153.234305,17.0784342 C152.106875,18.1843483 151.612585,19.4032192 151.593517,21.1244822 C151.564346,23.8054497 152.553903,25.7217732 154.451044,26.6598804 C155.712599,27.2839711 157.573397,27.1177069 158.787854,26.2728448 M123.000001,29.339648 C123.001142,29.209722 123.925022,26.5417814 125.052453,23.4113864 C126.180698,20.2808199 127.53694,16.4922244 128.067083,14.9920756 C129.502528,10.9288869 131.758693,4.63775796 132.375862,2.97528732 C132.67475,2.17053428 132.919369,1.3966344 132.919369,1.25590975 C132.919369,1.09084539 133.671641,1 135.037498,1 C136.846146,1 137.177628,1.06067786 137.308819,1.41497489 C137.90578,3.03133721 145.511129,24.2456213 146.002485,25.6640092 C146.340812,26.6420541 146.782788,27.856297 146.98422,28.3614317 C147.185652,28.8663949 147.350578,29.3195935 147.350578,29.3691299 C147.350578,29.4186664 146.444624,29.4587754 145.337239,29.4587754 L143.323901,29.4587754 L142.838737,28.0947233 C142.571628,27.3453346 141.99455,25.6379555 141.555344,24.3009856 L140.756462,21.8690716 L135.16543,21.8690716 L129.574398,21.8690716 L129.214885,22.8779697 C129.017364,23.4314409 128.423337,25.1482474 127.894986,26.691762 L126.9346,29.4988845 L124.966078,29.5377938 C123.778512,29.5614479 122.99886,29.4836294 123.000001,29.339648 M139.359641,17.9094124 C139.278971,17.6876126 138.344334,14.993104 137.283559,11.9209872 C136.222294,8.84921312 135.276413,6.24812105 135.180586,6.14133487 C135.028046,5.96975707 133.222332,10.8946057 133.075821,11.8841348 C133.044531,12.0935934 132.954082,12.3743571 132.874552,12.5085683 C132.662528,12.8647508 130.889896,17.8657038 130.889896,18.107044 C130.889896,18.2203436 132.829084,18.3123889 135.198513,18.3123889 C139.160002,18.3123889 139.494907,18.2798217 139.359641,17.9094124" id="google-path-14" fill="#7F7F7F"></path>
                    <path d="M173.383897,28.9079046 C171.162727,28.6484186 169.305054,27.397699 168.232718,25.4384264 C167.82063,24.68429 167.894776,24.5523725 168.954502,24.1455061 C169.497731,23.9369186 170.010024,23.6619697 170.092745,23.5344012 C170.183535,23.3936248 170.414546,23.502348 170.67498,23.8095112 C172.645469,26.1258792 173.089333,26.3608823 175.217864,26.213502 C176.50776,26.1236242 176.721286,26.0360013 177.311592,25.3585349 C178.591232,23.890369 177.67509,22.9534166 174.080125,22.049806 C170.047518,21.0373111 168.431784,19.7366594 168.431784,17.5032432 C168.431784,15.675888 169.136755,14.6239306 170.952059,13.7409371 C172.365868,13.0534843 172.641938,12.9992033 174.700358,13.0000086 C176.676227,13.000814 177.058219,13.0692693 178.145014,13.6170732 C179.422805,14.2613589 181.044255,16.0669694 180.828544,16.6062365 C180.764318,16.7658583 180.627628,16.846555 180.524732,16.785509 C180.421668,16.724624 179.833044,16.8818297 179.216677,17.135195 C178.466143,17.4431636 178.066834,17.5129075 178.008997,17.3460375 C177.878191,16.9721907 177.009461,16.2360944 176.245141,15.8527444 C175.333033,15.3953016 173.275621,15.5613662 172.434801,16.1602297 C172.040199,16.4412994 171.778588,16.8612125 171.734034,17.2849914 C171.630465,18.2728424 172.412776,18.7439763 175.311512,19.4404491 C178.903114,20.3021811 179.76142,20.786845 180.641583,22.4500684 C181.263665,23.6254065 181.05014,25.742207 180.201081,26.8088219 C178.806439,28.5607957 176.500363,29.2704764 173.383897,28.9079046" id="google-path-16" fill="#7F7F7F"></path>
                </g>
            </g>
        </g>
    </g>
</svg>