<svg version="1" xmlns="http://www.w3.org/2000/svg" width="346.667" height="346.667" viewBox="0 0 260.000000 260.000000"><path d="M106 13.6c-12.9 7.5-25.5 14.8-28 16.2-2.5 1.4-8.9 5.2-14.3 8.4-5.5 3.2-10 5.8-10.2 5.8-.1 0-8.3 4.7-18.1 10.4L17.5 64.8v130.4l15.5 9c8.5 4.9 33.8 19.5 56.2 32.5l40.8 23.5 9.2-5.4c5.1-2.9 10.1-5.8 11-6.3.9-.6 2.9-1.7 4.5-2.6 3.6-1.9 67.6-39 72.3-41.8 1.9-1.1 4.2-2.4 5-2.8.8-.4 3.6-1.9 6.2-3.5l4.6-2.9-.1-65-.2-65.1-19-11c-10.4-6-25.1-14.5-32.5-18.8-7.4-4.3-23.7-13.7-36.2-20.9C142.3 6.9 131.5.8 130.8.5c-.7-.3-11.9 5.6-24.8 13.1z"/></svg>